<?xml version="1.0" encoding="utf-8" standalone="no"?>
<!DOCTYPE svg PUBLIC "-//W3C//DTD SVG 1.1//EN"
  "http://www.w3.org/Graphics/SVG/1.1/DTD/svg11.dtd">
<svg xmlns:xlink="http://www.w3.org/1999/xlink" width="864pt" height="360pt" viewBox="0 0 864 360" xmlns="http://www.w3.org/2000/svg" version="1.1">
 <metadata>
  <rdf:RDF xmlns:dc="http://purl.org/dc/elements/1.1/" xmlns:cc="http://creativecommons.org/ns#" xmlns:rdf="http://www.w3.org/1999/02/22-rdf-syntax-ns#">
   <cc:Work>
    <dc:type rdf:resource="http://purl.org/dc/dcmitype/StillImage"/>
    <dc:date>2025-02-18T08:13:40.985545</dc:date>
    <dc:format>image/svg+xml</dc:format>
    <dc:creator>
     <cc:Agent>
      <dc:title>Matplotlib v3.10.0, https://matplotlib.org/</dc:title>
     </cc:Agent>
    </dc:creator>
   </cc:Work>
  </rdf:RDF>
 </metadata>
 <defs>
  <style type="text/css">*{stroke-linejoin: round; stroke-linecap: butt}</style>
 </defs>
 <g id="figure_1">
  <g id="patch_1">
   <path d="M 0 360 
L 864 360 
L 864 0 
L 0 0 
L 0 360 
z
" style="fill: none; opacity: 0"/>
  </g>
  <g id="axes_1">
   <g id="patch_2">
    <path d="M 108 320.4 
L 777.6 320.4 
L 777.6 43.2 
L 108 43.2 
L 108 320.4 
z
" style="fill: none; opacity: 0"/>
   </g>
   <g id="matplotlib.axis_1">
    <g id="xtick_1">
     <g id="line2d_1">
      <path d="M 127.707837 320.4 
L 127.707837 43.2 
" clip-path="url(#p4af1e7bfc5)" style="fill: none; stroke-dasharray: 5.12,1.28,0.8,1.28; stroke-dashoffset: 0; stroke: #b0b0b0; stroke-width: 0.8"/>
     </g>
     <g id="line2d_2">
      <defs>
       <path id="md857ee476a" d="M 0 0 
L 0 3.5 
" style="stroke: #a9a9a9; stroke-width: 0.8"/>
      </defs>
      <g>
       <use xlink:href="#md857ee476a" x="127.707837" y="320.4" style="fill: #a9a9a9; stroke: #a9a9a9; stroke-width: 0.8"/>
      </g>
     </g>
     <g id="text_1">
      <!-- 2021-07 -->
      <g style="fill: #a9a9a9" transform="translate(106.816431 334.998438) scale(0.1 -0.1)">
       <defs>
        <path id="DejaVuSans-32" d="M 1228 531 
L 3431 531 
L 3431 0 
L 469 0 
L 469 531 
Q 828 903 1448 1529 
Q 2069 2156 2228 2338 
Q 2531 2678 2651 2914 
Q 2772 3150 2772 3378 
Q 2772 3750 2511 3984 
Q 2250 4219 1831 4219 
Q 1534 4219 1204 4116 
Q 875 4013 500 3803 
L 500 4441 
Q 881 4594 1212 4672 
Q 1544 4750 1819 4750 
Q 2544 4750 2975 4387 
Q 3406 4025 3406 3419 
Q 3406 3131 3298 2873 
Q 3191 2616 2906 2266 
Q 2828 2175 2409 1742 
Q 1991 1309 1228 531 
z
" transform="scale(0.015625)"/>
        <path id="DejaVuSans-30" d="M 2034 4250 
Q 1547 4250 1301 3770 
Q 1056 3291 1056 2328 
Q 1056 1369 1301 889 
Q 1547 409 2034 409 
Q 2525 409 2770 889 
Q 3016 1369 3016 2328 
Q 3016 3291 2770 3770 
Q 2525 4250 2034 4250 
z
M 2034 4750 
Q 2819 4750 3233 4129 
Q 3647 3509 3647 2328 
Q 3647 1150 3233 529 
Q 2819 -91 2034 -91 
Q 1250 -91 836 529 
Q 422 1150 422 2328 
Q 422 3509 836 4129 
Q 1250 4750 2034 4750 
z
" transform="scale(0.015625)"/>
        <path id="DejaVuSans-31" d="M 794 531 
L 1825 531 
L 1825 4091 
L 703 3866 
L 703 4441 
L 1819 4666 
L 2450 4666 
L 2450 531 
L 3481 531 
L 3481 0 
L 794 0 
L 794 531 
z
" transform="scale(0.015625)"/>
        <path id="DejaVuSans-2d" d="M 313 2009 
L 1997 2009 
L 1997 1497 
L 313 1497 
L 313 2009 
z
" transform="scale(0.015625)"/>
        <path id="DejaVuSans-37" d="M 525 4666 
L 3525 4666 
L 3525 4397 
L 1831 0 
L 1172 0 
L 2766 4134 
L 525 4134 
L 525 4666 
z
" transform="scale(0.015625)"/>
       </defs>
       <use xlink:href="#DejaVuSans-32"/>
       <use xlink:href="#DejaVuSans-30" transform="translate(63.623047 0)"/>
       <use xlink:href="#DejaVuSans-32" transform="translate(127.246094 0)"/>
       <use xlink:href="#DejaVuSans-31" transform="translate(190.869141 0)"/>
       <use xlink:href="#DejaVuSans-2d" transform="translate(254.492188 0)"/>
       <use xlink:href="#DejaVuSans-30" transform="translate(290.576172 0)"/>
       <use xlink:href="#DejaVuSans-37" transform="translate(354.199219 0)"/>
      </g>
     </g>
    </g>
    <g id="xtick_2">
     <g id="line2d_3">
      <path d="M 213.53605 320.4 
L 213.53605 43.2 
" clip-path="url(#p4af1e7bfc5)" style="fill: none; stroke-dasharray: 5.12,1.28,0.8,1.28; stroke-dashoffset: 0; stroke: #b0b0b0; stroke-width: 0.8"/>
     </g>
     <g id="line2d_4">
      <g>
       <use xlink:href="#md857ee476a" x="213.53605" y="320.4" style="fill: #a9a9a9; stroke: #a9a9a9; stroke-width: 0.8"/>
      </g>
     </g>
     <g id="text_2">
      <!-- 2022-01 -->
      <g style="fill: #a9a9a9" transform="translate(192.644644 334.998438) scale(0.1 -0.1)">
       <use xlink:href="#DejaVuSans-32"/>
       <use xlink:href="#DejaVuSans-30" transform="translate(63.623047 0)"/>
       <use xlink:href="#DejaVuSans-32" transform="translate(127.246094 0)"/>
       <use xlink:href="#DejaVuSans-32" transform="translate(190.869141 0)"/>
       <use xlink:href="#DejaVuSans-2d" transform="translate(254.492188 0)"/>
       <use xlink:href="#DejaVuSans-30" transform="translate(290.576172 0)"/>
       <use xlink:href="#DejaVuSans-31" transform="translate(354.199219 0)"/>
      </g>
     </g>
    </g>
    <g id="xtick_3">
     <g id="line2d_5">
      <path d="M 297.96489 320.4 
L 297.96489 43.2 
" clip-path="url(#p4af1e7bfc5)" style="fill: none; stroke-dasharray: 5.12,1.28,0.8,1.28; stroke-dashoffset: 0; stroke: #b0b0b0; stroke-width: 0.8"/>
     </g>
     <g id="line2d_6">
      <g>
       <use xlink:href="#md857ee476a" x="297.96489" y="320.4" style="fill: #a9a9a9; stroke: #a9a9a9; stroke-width: 0.8"/>
      </g>
     </g>
     <g id="text_3">
      <!-- 2022-07 -->
      <g style="fill: #a9a9a9" transform="translate(277.073484 334.998438) scale(0.1 -0.1)">
       <use xlink:href="#DejaVuSans-32"/>
       <use xlink:href="#DejaVuSans-30" transform="translate(63.623047 0)"/>
       <use xlink:href="#DejaVuSans-32" transform="translate(127.246094 0)"/>
       <use xlink:href="#DejaVuSans-32" transform="translate(190.869141 0)"/>
       <use xlink:href="#DejaVuSans-2d" transform="translate(254.492188 0)"/>
       <use xlink:href="#DejaVuSans-30" transform="translate(290.576172 0)"/>
       <use xlink:href="#DejaVuSans-37" transform="translate(354.199219 0)"/>
      </g>
     </g>
    </g>
    <g id="xtick_4">
     <g id="line2d_7">
      <path d="M 383.793103 320.4 
L 383.793103 43.2 
" clip-path="url(#p4af1e7bfc5)" style="fill: none; stroke-dasharray: 5.12,1.28,0.8,1.28; stroke-dashoffset: 0; stroke: #b0b0b0; stroke-width: 0.8"/>
     </g>
     <g id="line2d_8">
      <g>
       <use xlink:href="#md857ee476a" x="383.793103" y="320.4" style="fill: #a9a9a9; stroke: #a9a9a9; stroke-width: 0.8"/>
      </g>
     </g>
     <g id="text_4">
      <!-- 2023-01 -->
      <g style="fill: #a9a9a9" transform="translate(362.901697 334.998438) scale(0.1 -0.1)">
       <defs>
        <path id="DejaVuSans-33" d="M 2597 2516 
Q 3050 2419 3304 2112 
Q 3559 1806 3559 1356 
Q 3559 666 3084 287 
Q 2609 -91 1734 -91 
Q 1441 -91 1130 -33 
Q 819 25 488 141 
L 488 750 
Q 750 597 1062 519 
Q 1375 441 1716 441 
Q 2309 441 2620 675 
Q 2931 909 2931 1356 
Q 2931 1769 2642 2001 
Q 2353 2234 1838 2234 
L 1294 2234 
L 1294 2753 
L 1863 2753 
Q 2328 2753 2575 2939 
Q 2822 3125 2822 3475 
Q 2822 3834 2567 4026 
Q 2313 4219 1838 4219 
Q 1578 4219 1281 4162 
Q 984 4106 628 3988 
L 628 4550 
Q 988 4650 1302 4700 
Q 1616 4750 1894 4750 
Q 2613 4750 3031 4423 
Q 3450 4097 3450 3541 
Q 3450 3153 3228 2886 
Q 3006 2619 2597 2516 
z
" transform="scale(0.015625)"/>
       </defs>
       <use xlink:href="#DejaVuSans-32"/>
       <use xlink:href="#DejaVuSans-30" transform="translate(63.623047 0)"/>
       <use xlink:href="#DejaVuSans-32" transform="translate(127.246094 0)"/>
       <use xlink:href="#DejaVuSans-33" transform="translate(190.869141 0)"/>
       <use xlink:href="#DejaVuSans-2d" transform="translate(254.492188 0)"/>
       <use xlink:href="#DejaVuSans-30" transform="translate(290.576172 0)"/>
       <use xlink:href="#DejaVuSans-31" transform="translate(354.199219 0)"/>
      </g>
     </g>
    </g>
    <g id="xtick_5">
     <g id="line2d_9">
      <path d="M 468.221944 320.4 
L 468.221944 43.2 
" clip-path="url(#p4af1e7bfc5)" style="fill: none; stroke-dasharray: 5.12,1.28,0.8,1.28; stroke-dashoffset: 0; stroke: #b0b0b0; stroke-width: 0.8"/>
     </g>
     <g id="line2d_10">
      <g>
       <use xlink:href="#md857ee476a" x="468.221944" y="320.4" style="fill: #a9a9a9; stroke: #a9a9a9; stroke-width: 0.8"/>
      </g>
     </g>
     <g id="text_5">
      <!-- 2023-07 -->
      <g style="fill: #a9a9a9" transform="translate(447.330537 334.998438) scale(0.1 -0.1)">
       <use xlink:href="#DejaVuSans-32"/>
       <use xlink:href="#DejaVuSans-30" transform="translate(63.623047 0)"/>
       <use xlink:href="#DejaVuSans-32" transform="translate(127.246094 0)"/>
       <use xlink:href="#DejaVuSans-33" transform="translate(190.869141 0)"/>
       <use xlink:href="#DejaVuSans-2d" transform="translate(254.492188 0)"/>
       <use xlink:href="#DejaVuSans-30" transform="translate(290.576172 0)"/>
       <use xlink:href="#DejaVuSans-37" transform="translate(354.199219 0)"/>
      </g>
     </g>
    </g>
    <g id="xtick_6">
     <g id="line2d_11">
      <path d="M 554.050157 320.4 
L 554.050157 43.2 
" clip-path="url(#p4af1e7bfc5)" style="fill: none; stroke-dasharray: 5.12,1.28,0.8,1.28; stroke-dashoffset: 0; stroke: #b0b0b0; stroke-width: 0.8"/>
     </g>
     <g id="line2d_12">
      <g>
       <use xlink:href="#md857ee476a" x="554.050157" y="320.4" style="fill: #a9a9a9; stroke: #a9a9a9; stroke-width: 0.8"/>
      </g>
     </g>
     <g id="text_6">
      <!-- 2024-01 -->
      <g style="fill: #a9a9a9" transform="translate(533.15875 334.998438) scale(0.1 -0.1)">
       <defs>
        <path id="DejaVuSans-34" d="M 2419 4116 
L 825 1625 
L 2419 1625 
L 2419 4116 
z
M 2253 4666 
L 3047 4666 
L 3047 1625 
L 3713 1625 
L 3713 1100 
L 3047 1100 
L 3047 0 
L 2419 0 
L 2419 1100 
L 313 1100 
L 313 1709 
L 2253 4666 
z
" transform="scale(0.015625)"/>
       </defs>
       <use xlink:href="#DejaVuSans-32"/>
       <use xlink:href="#DejaVuSans-30" transform="translate(63.623047 0)"/>
       <use xlink:href="#DejaVuSans-32" transform="translate(127.246094 0)"/>
       <use xlink:href="#DejaVuSans-34" transform="translate(190.869141 0)"/>
       <use xlink:href="#DejaVuSans-2d" transform="translate(254.492188 0)"/>
       <use xlink:href="#DejaVuSans-30" transform="translate(290.576172 0)"/>
       <use xlink:href="#DejaVuSans-31" transform="translate(354.199219 0)"/>
      </g>
     </g>
    </g>
    <g id="xtick_7">
     <g id="line2d_13">
      <path d="M 638.945455 320.4 
L 638.945455 43.2 
" clip-path="url(#p4af1e7bfc5)" style="fill: none; stroke-dasharray: 5.12,1.28,0.8,1.28; stroke-dashoffset: 0; stroke: #b0b0b0; stroke-width: 0.8"/>
     </g>
     <g id="line2d_14">
      <g>
       <use xlink:href="#md857ee476a" x="638.945455" y="320.4" style="fill: #a9a9a9; stroke: #a9a9a9; stroke-width: 0.8"/>
      </g>
     </g>
     <g id="text_7">
      <!-- 2024-07 -->
      <g style="fill: #a9a9a9" transform="translate(618.054048 334.998438) scale(0.1 -0.1)">
       <use xlink:href="#DejaVuSans-32"/>
       <use xlink:href="#DejaVuSans-30" transform="translate(63.623047 0)"/>
       <use xlink:href="#DejaVuSans-32" transform="translate(127.246094 0)"/>
       <use xlink:href="#DejaVuSans-34" transform="translate(190.869141 0)"/>
       <use xlink:href="#DejaVuSans-2d" transform="translate(254.492188 0)"/>
       <use xlink:href="#DejaVuSans-30" transform="translate(290.576172 0)"/>
       <use xlink:href="#DejaVuSans-37" transform="translate(354.199219 0)"/>
      </g>
     </g>
    </g>
    <g id="xtick_8">
     <g id="line2d_15">
      <path d="M 724.773668 320.4 
L 724.773668 43.2 
" clip-path="url(#p4af1e7bfc5)" style="fill: none; stroke-dasharray: 5.12,1.28,0.8,1.28; stroke-dashoffset: 0; stroke: #b0b0b0; stroke-width: 0.8"/>
     </g>
     <g id="line2d_16">
      <g>
       <use xlink:href="#md857ee476a" x="724.773668" y="320.4" style="fill: #a9a9a9; stroke: #a9a9a9; stroke-width: 0.8"/>
      </g>
     </g>
     <g id="text_8">
      <!-- 2025-01 -->
      <g style="fill: #a9a9a9" transform="translate(703.882261 334.998438) scale(0.1 -0.1)">
       <defs>
        <path id="DejaVuSans-35" d="M 691 4666 
L 3169 4666 
L 3169 4134 
L 1269 4134 
L 1269 2991 
Q 1406 3038 1543 3061 
Q 1681 3084 1819 3084 
Q 2600 3084 3056 2656 
Q 3513 2228 3513 1497 
Q 3513 744 3044 326 
Q 2575 -91 1722 -91 
Q 1428 -91 1123 -41 
Q 819 9 494 109 
L 494 744 
Q 775 591 1075 516 
Q 1375 441 1709 441 
Q 2250 441 2565 725 
Q 2881 1009 2881 1497 
Q 2881 1984 2565 2268 
Q 2250 2553 1709 2553 
Q 1456 2553 1204 2497 
Q 953 2441 691 2322 
L 691 4666 
z
" transform="scale(0.015625)"/>
       </defs>
       <use xlink:href="#DejaVuSans-32"/>
       <use xlink:href="#DejaVuSans-30" transform="translate(63.623047 0)"/>
       <use xlink:href="#DejaVuSans-32" transform="translate(127.246094 0)"/>
       <use xlink:href="#DejaVuSans-35" transform="translate(190.869141 0)"/>
       <use xlink:href="#DejaVuSans-2d" transform="translate(254.492188 0)"/>
       <use xlink:href="#DejaVuSans-30" transform="translate(290.576172 0)"/>
       <use xlink:href="#DejaVuSans-31" transform="translate(354.199219 0)"/>
      </g>
     </g>
    </g>
   </g>
   <g id="matplotlib.axis_2">
    <g id="ytick_1">
     <g id="line2d_17">
      <path d="M 108 307.834426 
L 777.6 307.834426 
" clip-path="url(#p4af1e7bfc5)" style="fill: none; stroke-dasharray: 5.12,1.28,0.8,1.28; stroke-dashoffset: 0; stroke: #b0b0b0; stroke-width: 0.8"/>
     </g>
     <g id="line2d_18">
      <defs>
       <path id="m25fa5ff68e" d="M 0 0 
L -3.5 0 
" style="stroke: #a9a9a9; stroke-width: 0.8"/>
      </defs>
      <g>
       <use xlink:href="#m25fa5ff68e" x="108" y="307.834426" style="fill: #a9a9a9; stroke: #a9a9a9; stroke-width: 0.8"/>
      </g>
     </g>
     <g id="text_9">
      <!-- 0 -->
      <g style="fill: #a9a9a9" transform="translate(94.6375 311.633645) scale(0.1 -0.1)">
       <use xlink:href="#DejaVuSans-30"/>
      </g>
     </g>
    </g>
    <g id="ytick_2">
     <g id="line2d_19">
      <path d="M 108 273.408197 
L 777.6 273.408197 
" clip-path="url(#p4af1e7bfc5)" style="fill: none; stroke-dasharray: 5.12,1.28,0.8,1.28; stroke-dashoffset: 0; stroke: #b0b0b0; stroke-width: 0.8"/>
     </g>
     <g id="line2d_20">
      <g>
       <use xlink:href="#m25fa5ff68e" x="108" y="273.408197" style="fill: #a9a9a9; stroke: #a9a9a9; stroke-width: 0.8"/>
      </g>
     </g>
     <g id="text_10">
      <!-- 1000 -->
      <g style="fill: #a9a9a9" transform="translate(75.55 277.207415) scale(0.1 -0.1)">
       <use xlink:href="#DejaVuSans-31"/>
       <use xlink:href="#DejaVuSans-30" transform="translate(63.623047 0)"/>
       <use xlink:href="#DejaVuSans-30" transform="translate(127.246094 0)"/>
       <use xlink:href="#DejaVuSans-30" transform="translate(190.869141 0)"/>
      </g>
     </g>
    </g>
    <g id="ytick_3">
     <g id="line2d_21">
      <path d="M 108 238.981967 
L 777.6 238.981967 
" clip-path="url(#p4af1e7bfc5)" style="fill: none; stroke-dasharray: 5.12,1.28,0.8,1.28; stroke-dashoffset: 0; stroke: #b0b0b0; stroke-width: 0.8"/>
     </g>
     <g id="line2d_22">
      <g>
       <use xlink:href="#m25fa5ff68e" x="108" y="238.981967" style="fill: #a9a9a9; stroke: #a9a9a9; stroke-width: 0.8"/>
      </g>
     </g>
     <g id="text_11">
      <!-- 2000 -->
      <g style="fill: #a9a9a9" transform="translate(75.55 242.781186) scale(0.1 -0.1)">
       <use xlink:href="#DejaVuSans-32"/>
       <use xlink:href="#DejaVuSans-30" transform="translate(63.623047 0)"/>
       <use xlink:href="#DejaVuSans-30" transform="translate(127.246094 0)"/>
       <use xlink:href="#DejaVuSans-30" transform="translate(190.869141 0)"/>
      </g>
     </g>
    </g>
    <g id="ytick_4">
     <g id="line2d_23">
      <path d="M 108 204.555738 
L 777.6 204.555738 
" clip-path="url(#p4af1e7bfc5)" style="fill: none; stroke-dasharray: 5.12,1.28,0.8,1.28; stroke-dashoffset: 0; stroke: #b0b0b0; stroke-width: 0.8"/>
     </g>
     <g id="line2d_24">
      <g>
       <use xlink:href="#m25fa5ff68e" x="108" y="204.555738" style="fill: #a9a9a9; stroke: #a9a9a9; stroke-width: 0.8"/>
      </g>
     </g>
     <g id="text_12">
      <!-- 3000 -->
      <g style="fill: #a9a9a9" transform="translate(75.55 208.354956) scale(0.1 -0.1)">
       <use xlink:href="#DejaVuSans-33"/>
       <use xlink:href="#DejaVuSans-30" transform="translate(63.623047 0)"/>
       <use xlink:href="#DejaVuSans-30" transform="translate(127.246094 0)"/>
       <use xlink:href="#DejaVuSans-30" transform="translate(190.869141 0)"/>
      </g>
     </g>
    </g>
    <g id="ytick_5">
     <g id="line2d_25">
      <path d="M 108 170.129508 
L 777.6 170.129508 
" clip-path="url(#p4af1e7bfc5)" style="fill: none; stroke-dasharray: 5.12,1.28,0.8,1.28; stroke-dashoffset: 0; stroke: #b0b0b0; stroke-width: 0.8"/>
     </g>
     <g id="line2d_26">
      <g>
       <use xlink:href="#m25fa5ff68e" x="108" y="170.129508" style="fill: #a9a9a9; stroke: #a9a9a9; stroke-width: 0.8"/>
      </g>
     </g>
     <g id="text_13">
      <!-- 4000 -->
      <g style="fill: #a9a9a9" transform="translate(75.55 173.928727) scale(0.1 -0.1)">
       <use xlink:href="#DejaVuSans-34"/>
       <use xlink:href="#DejaVuSans-30" transform="translate(63.623047 0)"/>
       <use xlink:href="#DejaVuSans-30" transform="translate(127.246094 0)"/>
       <use xlink:href="#DejaVuSans-30" transform="translate(190.869141 0)"/>
      </g>
     </g>
    </g>
    <g id="ytick_6">
     <g id="line2d_27">
      <path d="M 108 135.703279 
L 777.6 135.703279 
" clip-path="url(#p4af1e7bfc5)" style="fill: none; stroke-dasharray: 5.12,1.28,0.8,1.28; stroke-dashoffset: 0; stroke: #b0b0b0; stroke-width: 0.8"/>
     </g>
     <g id="line2d_28">
      <g>
       <use xlink:href="#m25fa5ff68e" x="108" y="135.703279" style="fill: #a9a9a9; stroke: #a9a9a9; stroke-width: 0.8"/>
      </g>
     </g>
     <g id="text_14">
      <!-- 5000 -->
      <g style="fill: #a9a9a9" transform="translate(75.55 139.502497) scale(0.1 -0.1)">
       <use xlink:href="#DejaVuSans-35"/>
       <use xlink:href="#DejaVuSans-30" transform="translate(63.623047 0)"/>
       <use xlink:href="#DejaVuSans-30" transform="translate(127.246094 0)"/>
       <use xlink:href="#DejaVuSans-30" transform="translate(190.869141 0)"/>
      </g>
     </g>
    </g>
    <g id="ytick_7">
     <g id="line2d_29">
      <path d="M 108 101.277049 
L 777.6 101.277049 
" clip-path="url(#p4af1e7bfc5)" style="fill: none; stroke-dasharray: 5.12,1.28,0.8,1.28; stroke-dashoffset: 0; stroke: #b0b0b0; stroke-width: 0.8"/>
     </g>
     <g id="line2d_30">
      <g>
       <use xlink:href="#m25fa5ff68e" x="108" y="101.277049" style="fill: #a9a9a9; stroke: #a9a9a9; stroke-width: 0.8"/>
      </g>
     </g>
     <g id="text_15">
      <!-- 6000 -->
      <g style="fill: #a9a9a9" transform="translate(75.55 105.076268) scale(0.1 -0.1)">
       <defs>
        <path id="DejaVuSans-36" d="M 2113 2584 
Q 1688 2584 1439 2293 
Q 1191 2003 1191 1497 
Q 1191 994 1439 701 
Q 1688 409 2113 409 
Q 2538 409 2786 701 
Q 3034 994 3034 1497 
Q 3034 2003 2786 2293 
Q 2538 2584 2113 2584 
z
M 3366 4563 
L 3366 3988 
Q 3128 4100 2886 4159 
Q 2644 4219 2406 4219 
Q 1781 4219 1451 3797 
Q 1122 3375 1075 2522 
Q 1259 2794 1537 2939 
Q 1816 3084 2150 3084 
Q 2853 3084 3261 2657 
Q 3669 2231 3669 1497 
Q 3669 778 3244 343 
Q 2819 -91 2113 -91 
Q 1303 -91 875 529 
Q 447 1150 447 2328 
Q 447 3434 972 4092 
Q 1497 4750 2381 4750 
Q 2619 4750 2861 4703 
Q 3103 4656 3366 4563 
z
" transform="scale(0.015625)"/>
       </defs>
       <use xlink:href="#DejaVuSans-36"/>
       <use xlink:href="#DejaVuSans-30" transform="translate(63.623047 0)"/>
       <use xlink:href="#DejaVuSans-30" transform="translate(127.246094 0)"/>
       <use xlink:href="#DejaVuSans-30" transform="translate(190.869141 0)"/>
      </g>
     </g>
    </g>
    <g id="ytick_8">
     <g id="line2d_31">
      <path d="M 108 66.85082 
L 777.6 66.85082 
" clip-path="url(#p4af1e7bfc5)" style="fill: none; stroke-dasharray: 5.12,1.28,0.8,1.28; stroke-dashoffset: 0; stroke: #b0b0b0; stroke-width: 0.8"/>
     </g>
     <g id="line2d_32">
      <g>
       <use xlink:href="#m25fa5ff68e" x="108" y="66.85082" style="fill: #a9a9a9; stroke: #a9a9a9; stroke-width: 0.8"/>
      </g>
     </g>
     <g id="text_16">
      <!-- 7000 -->
      <g style="fill: #a9a9a9" transform="translate(75.55 70.650038) scale(0.1 -0.1)">
       <use xlink:href="#DejaVuSans-37"/>
       <use xlink:href="#DejaVuSans-30" transform="translate(63.623047 0)"/>
       <use xlink:href="#DejaVuSans-30" transform="translate(127.246094 0)"/>
       <use xlink:href="#DejaVuSans-30" transform="translate(190.869141 0)"/>
      </g>
     </g>
    </g>
   </g>
   <g id="line2d_33">
    <path d="M 138.436364 307.731148 
L 141.23511 307.490164 
L 141.701567 307.283607 
L 143.567398 307.042623 
L 145.433229 306.663934 
L 146.366144 306.52623 
L 148.698433 306.319672 
L 149.631348 305.940984 
L 150.097806 305.321311 
L 150.564263 305.011475 
L 151.030721 303.944262 
L 151.497179 303.87541 
L 151.963636 303.496721 
L 152.896552 303.014754 
L 154.762382 301.5 
L 156.628213 300.570492 
L 158.027586 299.916393 
L 158.494044 299.159016 
L 159.426959 298.470492 
L 159.893417 298.263934 
L 164.557994 297.57541 
L 165.024451 297.368852 
L 168.289655 297.093443 
L 170.155486 296.645902 
L 173.887147 296.129508 
L 174.353605 295.888525 
L 174.820063 295.819672 
L 175.752978 295.509836 
L 179.018182 294.959016 
L 179.951097 294.683607 
L 184.149216 293.960656 
L 185.082132 293.754098 
L 186.015047 293.719672 
L 187.880878 293.272131 
L 188.347335 292.618033 
L 189.746708 292.067213 
L 191.146082 291.688525 
L 191.612539 291.447541 
L 192.545455 291.27541 
L 194.411285 290.72459 
L 195.344201 290.655738 
L 196.277116 290.414754 
L 198.142947 289.932787 
L 198.609404 289.898361 
L 199.54232 289.45082 
L 200.008777 289.381967 
L 200.475235 289.140984 
L 205.60627 288.280328 
L 207.4721 287.729508 
L 207.938558 287.419672 
L 210.270846 286.627869 
L 211.203762 285.97377 
L 212.603135 285.698361 
L 224.731034 282.221311 
L 225.197492 282.221311 
L 225.66395 282.014754 
L 226.596865 281.911475 
L 227.063323 281.739344 
L 228.929154 281.670492 
L 229.862069 281.498361 
L 230.794984 281.016393 
L 232.194357 280.5 
L 232.660815 280.190164 
L 233.59373 279.777049 
L 234.060188 279.536066 
L 234.993103 279.22623 
L 235.459561 279.088525 
L 236.392476 278.503279 
L 236.858934 277.986885 
L 237.79185 276.540984 
L 238.258307 276.403279 
L 238.724765 276.403279 
L 240.124138 275.577049 
L 240.590596 275.336066 
L 241.057053 275.232787 
L 241.523511 274.785246 
L 242.456426 274.406557 
L 243.389342 273.959016 
L 245.72163 270.963934 
L 248.520376 269.44918 
L 249.453292 268.691803 
L 249.919749 268.381967 
L 250.386207 267.727869 
L 250.852665 266.660656 
L 251.319122 265.937705 
L 251.78558 265.559016 
L 252.252038 265.352459 
L 255.983699 261.909836 
L 256.916614 261.04918 
L 259.715361 259.293443 
L 260.181818 259.121311 
L 261.581191 258.295082 
L 262.980564 257.365574 
L 264.846395 255.678689 
L 265.77931 255.3 
L 266.712226 254.645902 
L 267.178683 254.370492 
L 267.645141 254.301639 
L 269.044514 253.509836 
L 269.510972 252.993443 
L 271.84326 251.719672 
L 272.309718 251.547541 
L 273.709091 250.583607 
L 280.705956 248.104918 
L 281.638871 247.244262 
L 283.038245 246.555738 
L 283.97116 245.970492 
L 284.904075 245.695082 
L 285.370533 245.385246 
L 285.836991 245.247541 
L 287.236364 244.318033 
L 289.568652 243.767213 
L 290.968025 242.940984 
L 292.367398 242.631148 
L 292.833856 242.493443 
L 294.233229 241.42623 
L 296.09906 240.909836 
L 296.565517 240.531148 
L 299.364263 239.567213 
L 300.297179 239.395082 
L 301.230094 239.016393 
L 304.495298 237.811475 
L 305.428213 237.67377 
L 306.827586 237.191803 
L 309.159875 236.055738 
L 311.025705 235.022951 
L 314.757367 233.47377 
L 315.223824 233.404918 
L 316.15674 232.819672 
L 316.623197 232.75082 
L 318.489028 231.993443 
L 320.354859 231.752459 
L 321.287774 231.270492 
L 321.754232 230.857377 
L 322.22069 229.996721 
L 324.08652 229.480328 
L 325.485893 228.757377 
L 326.418809 228.447541 
L 327.351724 227.965574 
L 330.15047 226.829508 
L 331.083386 226.622951 
L 332.016301 226.140984 
L 332.482759 225.934426 
L 332.949216 225.865574 
L 334.815047 225.004918 
L 336.21442 224.109836 
L 337.613793 223.834426 
L 339.479624 223.318033 
L 339.946082 223.283607 
L 340.412539 222.904918 
L 341.345455 222.595082 
L 343.677743 221.665574 
L 344.144201 221.321311 
L 344.610658 221.14918 
L 345.543574 220.632787 
L 347.409404 220.047541 
L 347.875862 219.806557 
L 349.275235 218.670492 
L 349.741693 218.567213 
L 350.674608 217.809836 
L 351.141066 217.740984 
L 351.607524 216.983607 
L 352.073981 216.777049 
L 352.540439 216.398361 
L 353.006897 216.329508 
L 353.939812 215.744262 
L 354.872727 215.434426 
L 355.339185 215.090164 
L 355.805643 214.918033 
L 357.671473 213.678689 
L 358.604389 213.162295 
L 359.070846 212.921311 
L 360.003762 212.680328 
L 360.936677 212.163934 
L 361.403135 211.372131 
L 362.33605 210.683607 
L 362.802508 210.580328 
L 365.601254 209.237705 
L 366.534169 208.859016 
L 367.933542 207.688525 
L 368.866458 206.896721 
L 369.799373 206.345902 
L 370.265831 205.829508 
L 370.732288 205.519672 
L 371.665204 204.762295 
L 372.131661 204.555738 
L 372.598119 204.004918 
L 373.064577 203.62623 
L 373.997492 203.281967 
L 374.930408 202.662295 
L 376.329781 201.939344 
L 376.796238 201.870492 
L 378.195611 201.113115 
L 379.128527 200.527869 
L 383.793103 198.806557 
L 384.259561 198.427869 
L 386.125392 197.704918 
L 386.59185 197.567213 
L 387.524765 196.947541 
L 388.45768 196.534426 
L 389.390596 195.880328 
L 390.323511 194.021311 
L 391.256426 192.919672 
L 392.655799 192.196721 
L 393.588715 191.818033 
L 394.055172 191.74918 
L 394.52163 191.47377 
L 396.853918 190.716393 
L 397.320376 190.509836 
L 398.253292 189.855738 
L 399.652665 189.236066 
L 400.58558 188.719672 
L 403.384326 186.791803 
L 405.716614 185.518033 
L 408.515361 184.106557 
L 409.914734 183.693443 
L 411.314107 183.142623 
L 411.780564 182.798361 
L 412.71348 182.522951 
L 413.646395 182.144262 
L 414.112853 181.765574 
L 415.978683 181.111475 
L 416.911599 180.422951 
L 417.844514 180.044262 
L 418.777429 179.321311 
L 419.710345 179.011475 
L 420.176803 178.598361 
L 420.64326 178.529508 
L 421.576176 177.806557 
L 422.509091 177.32459 
L 422.975549 177.118033 
L 423.442006 176.636066 
L 426.70721 175.327869 
L 427.640125 174.914754 
L 429.039498 174.467213 
L 429.972414 174.329508 
L 430.438871 174.122951 
L 430.905329 174.054098 
L 431.838245 173.640984 
L 432.304702 173.606557 
L 434.170533 172.918033 
L 435.569906 171.919672 
L 436.036364 171.747541 
L 436.969279 171.231148 
L 437.435737 171.093443 
L 440.234483 169.509836 
L 440.70094 169.406557 
L 442.100313 168.580328 
L 443.499687 168.098361 
L 444.432602 167.788525 
L 446.298433 167.168852 
L 447.231348 166.859016 
L 449.097179 166.480328 
L 449.563636 166.27377 
L 450.030094 166.204918 
L 450.963009 165.791803 
L 451.429467 165.722951 
L 451.895925 165.481967 
L 452.82884 165.309836 
L 454.228213 164.793443 
L 455.161129 164.690164 
L 456.560502 164.380328 
L 458.89279 163.967213 
L 471.02069 160.386885 
L 471.487147 159.904918 
L 472.420063 159.52623 
L 476.151724 158.114754 
L 476.618182 157.839344 
L 478.017555 157.42623 
L 478.95047 157.185246 
L 479.416928 156.87541 
L 479.883386 156.772131 
L 480.349843 156.359016 
L 481.749216 156.083607 
L 482.682132 155.636066 
L 483.148589 155.085246 
L 485.01442 154.637705 
L 488.279624 153.94918 
L 488.746082 153.94918 
L 489.212539 153.742623 
L 491.07837 153.398361 
L 491.544828 153.191803 
L 493.410658 152.847541 
L 494.343574 152.434426 
L 495.276489 152.262295 
L 497.608777 151.677049 
L 499.474608 151.091803 
L 499.941066 150.988525 
L 500.407524 150.747541 
L 501.340439 150.506557 
L 502.273354 150.127869 
L 503.20627 149.783607 
L 503.672727 149.47377 
L 504.605643 149.198361 
L 508.337304 147.890164 
L 509.270219 147.821311 
L 511.13605 147.270492 
L 511.602508 146.995082 
L 512.535423 146.719672 
L 514.867712 145.652459 
L 515.334169 145.618033 
L 520.465204 143.793443 
L 522.797492 143.17377 
L 523.730408 142.72623 
L 525.129781 142.416393 
L 526.995611 140.901639 
L 527.928527 140.62623 
L 528.394984 140.247541 
L 531.19373 139.180328 
L 531.660188 138.870492 
L 532.593103 138.595082 
L 533.059561 138.285246 
L 535.39185 137.527869 
L 536.791223 136.701639 
L 537.25768 136.598361 
L 539.589969 135.32459 
L 540.989342 134.704918 
L 541.455799 134.360656 
L 542.388715 134.05082 
L 543.32163 133.5 
L 543.788088 133.327869 
L 544.254545 132.983607 
L 550.318495 130.84918 
L 550.784953 130.745902 
L 551.251411 130.436066 
L 553.117241 130.057377 
L 554.050157 129.678689 
L 556.848903 128.336066 
L 557.315361 128.267213 
L 558.714734 127.47541 
L 560.114107 126.993443 
L 563.37931 125.65082 
L 563.845768 125.513115 
L 564.312226 125.203279 
L 565.245141 125.1 
L 565.711599 124.790164 
L 566.644514 124.618033 
L 567.577429 124.170492 
L 568.043887 123.963934 
L 568.510345 123.895082 
L 569.44326 123.585246 
L 572.708464 122.44918 
L 574.107837 122.139344 
L 575.50721 121.588525 
L 577.373041 120.555738 
L 578.305956 120.177049 
L 578.772414 119.867213 
L 579.705329 119.660656 
L 580.171787 119.385246 
L 580.638245 119.281967 
L 582.037618 118.490164 
L 582.970533 118.111475 
L 584.836364 117.388525 
L 587.168652 116.596721 
L 588.101567 116.114754 
L 590.433856 115.322951 
L 593.232602 114.186885 
L 595.098433 113.32623 
L 599.763009 111.501639 
L 600.229467 111.191803 
L 602.095298 110.572131 
L 602.561755 110.572131 
L 603.494671 110.159016 
L 605.360502 108.644262 
L 605.826959 108.506557 
L 606.293417 108.231148 
L 606.759875 108.127869 
L 607.226332 107.886885 
L 607.69279 107.818033 
L 608.159248 107.47377 
L 608.625705 107.370492 
L 609.558621 106.785246 
L 610.957994 106.062295 
L 611.890909 105.683607 
L 612.357367 105.442623 
L 613.75674 105.132787 
L 616.089028 104.340984 
L 617.021944 104.031148 
L 618.421317 103.308197 
L 619.354232 102.860656 
L 620.287147 102.619672 
L 621.68652 101.965574 
L 625.884639 100.416393 
L 627.284013 99.555738 
L 627.75047 99.452459 
L 628.683386 99.004918 
L 629.616301 98.660656 
L 630.082759 98.247541 
L 631.015674 97.868852 
L 632.415047 97.352459 
L 632.881505 96.97377 
L 633.347962 96.939344 
L 634.280878 96.663934 
L 635.213793 96.354098 
L 635.680251 96.113115 
L 636.146708 96.044262 
L 637.546082 95.527869 
L 638.945455 95.011475 
L 640.811285 94.185246 
L 641.277743 94.116393 
L 645.009404 92.567213 
L 646.408777 92.119672 
L 647.341693 92.05082 
L 648.274608 91.672131 
L 651.073354 90.845902 
L 652.00627 90.811475 
L 655.737931 89.606557 
L 656.670846 89.090164 
L 657.137304 88.677049 
L 658.536677 87.85082 
L 659.469592 87.3 
L 662.268339 86.404918 
L 662.734796 86.02623 
L 665.533542 84.855738 
L 667.399373 84.339344 
L 668.332288 83.92623 
L 668.798746 83.685246 
L 669.731661 83.409836 
L 670.198119 83.134426 
L 671.131034 82.962295 
L 674.862696 81.344262 
L 675.329154 81.27541 
L 675.795611 80.965574 
L 676.262069 80.793443 
L 676.728527 80.380328 
L 677.194984 80.311475 
L 679.060815 79.588525 
L 680.926646 79.140984 
L 681.393103 79.072131 
L 681.859561 78.865574 
L 682.326019 78.831148 
L 683.258934 78.521311 
L 683.725392 78.486885 
L 685.124765 77.936066 
L 686.990596 77.385246 
L 687.923511 76.696721 
L 689.789342 75.663934 
L 691.188715 75.181967 
L 694.920376 73.42623 
L 695.386834 73.185246 
L 695.853292 72.737705 
L 698.652038 71.842623 
L 699.584953 71.463934 
L 700.517868 71.222951 
L 700.984326 70.981967 
L 701.450784 70.568852 
L 703.316614 70.086885 
L 703.783072 69.742623 
L 709.847022 67.539344 
L 710.779937 67.367213 
L 714.978056 65.886885 
L 715.910972 65.645902 
L 716.377429 65.439344 
L 716.843887 65.439344 
L 717.776803 65.060656 
L 718.709718 64.509836 
L 721.042006 63.718033 
L 722.441379 63.236066 
L 722.907837 63.167213 
L 723.840752 62.788525 
L 725.240125 62.478689 
L 726.639498 62.031148 
L 727.105956 61.927869 
L 727.572414 61.618033 
L 728.505329 61.411475 
L 737.834483 58.72623 
L 740.166771 58.313115 
L 741.099687 57.865574 
L 741.566144 57.555738 
L 745.297806 56.247541 
L 746.230721 55.972131 
L 746.697179 55.8 
L 747.163636 55.8 
L 747.163636 55.8 
" clip-path="url(#p4af1e7bfc5)" style="fill: none; stroke: #1f77b4; stroke-width: 1.5; stroke-linecap: square"/>
   </g>
   <g id="line2d_34">
    <path d="M 138.902821 307.8 
L 143.10094 307.696721 
L 146.832602 307.52459 
L 148.698433 307.52459 
L 149.16489 307.386885 
L 151.497179 307.283607 
L 154.295925 306.97377 
L 157.094671 306.870492 
L 158.027586 306.767213 
L 161.29279 306.629508 
L 164.557994 306.52623 
L 166.890282 306.457377 
L 172.954232 306.354098 
L 175.28652 306.285246 
L 178.551724 306.181967 
L 180.884013 306.113115 
L 186.015047 306.009836 
L 187.880878 305.837705 
L 189.746708 305.803279 
L 192.545455 305.7 
L 194.411285 305.665574 
L 196.743574 305.596721 
L 198.609404 305.42459 
L 202.807524 305.321311 
L 203.740439 305.252459 
L 205.60627 305.14918 
L 208.405016 305.045902 
L 210.270846 304.942623 
L 218.667085 304.42623 
L 221.932288 304.322951 
L 223.331661 304.185246 
L 225.66395 304.081967 
L 230.328527 303.840984 
L 234.993103 303.772131 
L 236.858934 303.565574 
L 238.724765 303.462295 
L 243.855799 302.980328 
L 247.121003 302.601639 
L 248.520376 302.532787 
L 252.252038 302.05082 
L 255.050784 301.981967 
L 256.450157 301.844262 
L 257.84953 301.740984 
L 270.910345 300.742623 
L 271.84326 300.570492 
L 274.642006 300.467213 
L 282.105329 300.019672 
L 285.370533 299.916393 
L 287.236364 299.709836 
L 289.568652 299.606557 
L 292.367398 299.503279 
L 294.699687 299.4 
L 296.565517 299.365574 
L 298.897806 299.296721 
L 299.830721 299.159016 
L 306.361129 299.055738 
L 307.294044 298.952459 
L 312.891536 298.84918 
L 317.089655 298.642623 
L 320.354859 298.539344 
L 322.22069 298.332787 
L 325.485893 298.229508 
L 326.418809 298.057377 
L 328.751097 297.988525 
L 333.415674 297.919672 
L 335.281505 297.747541 
L 337.147335 297.713115 
L 338.546708 297.609836 
L 340.412539 297.437705 
L 345.077116 297.196721 
L 349.741693 297.093443 
L 353.939812 296.886885 
L 355.339185 296.852459 
L 356.2721 296.714754 
L 358.604389 296.611475 
L 359.537304 296.542623 
L 360.470219 296.47377 
L 361.403135 296.404918 
L 365.601254 296.336066 
L 367.000627 296.232787 
L 379.594984 295.406557 
L 381.927273 295.303279 
L 384.259561 295.234426 
L 390.789969 295.131148 
L 391.722884 294.993443 
L 398.253292 294.890164 
L 402.917868 294.64918 
L 403.850784 294.614754 
L 404.783699 294.511475 
L 407.115987 294.408197 
L 409.448276 294.339344 
L 411.780564 294.236066 
L 414.112853 294.167213 
L 418.310972 294.063934 
L 421.109718 293.960656 
L 427.640125 293.857377 
L 432.77116 293.581967 
L 434.636991 293.513115 
L 436.036364 293.409836 
L 442.566771 293.306557 
L 445.365517 293.203279 
L 453.761755 293.1 
L 455.627586 293.065574 
L 461.225078 292.996721 
L 462.157994 292.927869 
L 468.688401 292.82459 
L 470.554232 292.790164 
L 482.682132 292.686885 
L 484.081505 292.54918 
L 505.0721 292.445902 
L 507.404389 292.377049 
L 519.532288 292.308197 
L 520.465204 292.239344 
L 522.797492 292.170492 
L 524.196865 292.032787 
L 526.995611 291.929508 
L 530.260815 291.791803 
L 534.458934 291.688525 
L 536.791223 291.619672 
L 540.056426 291.516393 
L 543.788088 291.344262 
L 546.120376 291.240984 
L 547.986207 291.206557 
L 552.184326 291.103279 
L 554.050157 291.068852 
L 560.114107 290.965574 
L 561.979937 290.931148 
L 564.312226 290.827869 
L 567.110972 290.72459 
L 570.376176 290.655738 
L 571.309091 290.586885 
L 582.504075 290.483607 
L 588.568025 290.139344 
L 590.900313 290.070492 
L 591.833229 289.967213 
L 592.766144 289.898361 
L 596.497806 289.795082 
L 599.296552 289.691803 
L 603.961129 289.588525 
L 606.293417 289.347541 
L 610.957994 289.244262 
L 611.890909 289.140984 
L 616.555486 289.037705 
L 618.887774 288.968852 
L 624.018809 288.934426 
L 624.951724 288.831148 
L 630.082759 288.727869 
L 631.015674 288.659016 
L 641.277743 288.555738 
L 644.076489 288.452459 
L 651.073354 288.34918 
L 652.939185 288.314754 
L 657.137304 288.245902 
L 658.070219 288.142623 
L 664.134169 288.039344 
L 666.466458 287.970492 
L 674.862696 287.867213 
L 676.262069 287.763934 
L 677.661442 287.660656 
L 679.060815 287.557377 
L 686.05768 287.454098 
L 688.856426 287.35082 
L 701.450784 287.247541 
L 705.648903 287.040984 
L 711.246395 286.937705 
L 712.17931 286.868852 
L 719.176176 286.8 
L 720.109091 286.731148 
L 725.240125 286.627869 
L 727.105956 286.593443 
L 733.636364 286.490164 
L 736.43511 286.386885 
L 744.36489 286.283607 
L 746.230721 286.24918 
L 747.163636 286.24918 
L 747.163636 286.24918 
" clip-path="url(#p4af1e7bfc5)" style="fill: none; stroke: #ff7f0e; stroke-width: 1.5; stroke-linecap: square"/>
   </g>
   <g id="patch_3">
    <path d="M 108 320.4 
L 108 43.2 
" style="fill: none; stroke: #a9a9a9; stroke-width: 0.8; stroke-linejoin: miter; stroke-linecap: square"/>
   </g>
   <g id="patch_4">
    <path d="M 777.6 320.4 
L 777.6 43.2 
" style="fill: none"/>
   </g>
   <g id="patch_5">
    <path d="M 108 320.4 
L 777.6 320.4 
" style="fill: none; stroke: #a9a9a9; stroke-width: 0.8; stroke-linejoin: miter; stroke-linecap: square"/>
   </g>
   <g id="patch_6">
    <path d="M 108 43.2 
L 777.6 43.2 
" style="fill: none"/>
   </g>
   <g id="text_17">
    <!-- get_subscribe history -->
    <g style="fill: #a9a9a9" transform="translate(378.6075 37.2) scale(0.12 -0.12)">
     <defs>
      <path id="DejaVuSans-67" d="M 2906 1791 
Q 2906 2416 2648 2759 
Q 2391 3103 1925 3103 
Q 1463 3103 1205 2759 
Q 947 2416 947 1791 
Q 947 1169 1205 825 
Q 1463 481 1925 481 
Q 2391 481 2648 825 
Q 2906 1169 2906 1791 
z
M 3481 434 
Q 3481 -459 3084 -895 
Q 2688 -1331 1869 -1331 
Q 1566 -1331 1297 -1286 
Q 1028 -1241 775 -1147 
L 775 -588 
Q 1028 -725 1275 -790 
Q 1522 -856 1778 -856 
Q 2344 -856 2625 -561 
Q 2906 -266 2906 331 
L 2906 616 
Q 2728 306 2450 153 
Q 2172 0 1784 0 
Q 1141 0 747 490 
Q 353 981 353 1791 
Q 353 2603 747 3093 
Q 1141 3584 1784 3584 
Q 2172 3584 2450 3431 
Q 2728 3278 2906 2969 
L 2906 3500 
L 3481 3500 
L 3481 434 
z
" transform="scale(0.015625)"/>
      <path id="DejaVuSans-65" d="M 3597 1894 
L 3597 1613 
L 953 1613 
Q 991 1019 1311 708 
Q 1631 397 2203 397 
Q 2534 397 2845 478 
Q 3156 559 3463 722 
L 3463 178 
Q 3153 47 2828 -22 
Q 2503 -91 2169 -91 
Q 1331 -91 842 396 
Q 353 884 353 1716 
Q 353 2575 817 3079 
Q 1281 3584 2069 3584 
Q 2775 3584 3186 3129 
Q 3597 2675 3597 1894 
z
M 3022 2063 
Q 3016 2534 2758 2815 
Q 2500 3097 2075 3097 
Q 1594 3097 1305 2825 
Q 1016 2553 972 2059 
L 3022 2063 
z
" transform="scale(0.015625)"/>
      <path id="DejaVuSans-74" d="M 1172 4494 
L 1172 3500 
L 2356 3500 
L 2356 3053 
L 1172 3053 
L 1172 1153 
Q 1172 725 1289 603 
Q 1406 481 1766 481 
L 2356 481 
L 2356 0 
L 1766 0 
Q 1100 0 847 248 
Q 594 497 594 1153 
L 594 3053 
L 172 3053 
L 172 3500 
L 594 3500 
L 594 4494 
L 1172 4494 
z
" transform="scale(0.015625)"/>
      <path id="DejaVuSans-5f" d="M 3263 -1063 
L 3263 -1509 
L -63 -1509 
L -63 -1063 
L 3263 -1063 
z
" transform="scale(0.015625)"/>
      <path id="DejaVuSans-73" d="M 2834 3397 
L 2834 2853 
Q 2591 2978 2328 3040 
Q 2066 3103 1784 3103 
Q 1356 3103 1142 2972 
Q 928 2841 928 2578 
Q 928 2378 1081 2264 
Q 1234 2150 1697 2047 
L 1894 2003 
Q 2506 1872 2764 1633 
Q 3022 1394 3022 966 
Q 3022 478 2636 193 
Q 2250 -91 1575 -91 
Q 1294 -91 989 -36 
Q 684 19 347 128 
L 347 722 
Q 666 556 975 473 
Q 1284 391 1588 391 
Q 1994 391 2212 530 
Q 2431 669 2431 922 
Q 2431 1156 2273 1281 
Q 2116 1406 1581 1522 
L 1381 1569 
Q 847 1681 609 1914 
Q 372 2147 372 2553 
Q 372 3047 722 3315 
Q 1072 3584 1716 3584 
Q 2034 3584 2315 3537 
Q 2597 3491 2834 3397 
z
" transform="scale(0.015625)"/>
      <path id="DejaVuSans-75" d="M 544 1381 
L 544 3500 
L 1119 3500 
L 1119 1403 
Q 1119 906 1312 657 
Q 1506 409 1894 409 
Q 2359 409 2629 706 
Q 2900 1003 2900 1516 
L 2900 3500 
L 3475 3500 
L 3475 0 
L 2900 0 
L 2900 538 
Q 2691 219 2414 64 
Q 2138 -91 1772 -91 
Q 1169 -91 856 284 
Q 544 659 544 1381 
z
M 1991 3584 
L 1991 3584 
z
" transform="scale(0.015625)"/>
      <path id="DejaVuSans-62" d="M 3116 1747 
Q 3116 2381 2855 2742 
Q 2594 3103 2138 3103 
Q 1681 3103 1420 2742 
Q 1159 2381 1159 1747 
Q 1159 1113 1420 752 
Q 1681 391 2138 391 
Q 2594 391 2855 752 
Q 3116 1113 3116 1747 
z
M 1159 2969 
Q 1341 3281 1617 3432 
Q 1894 3584 2278 3584 
Q 2916 3584 3314 3078 
Q 3713 2572 3713 1747 
Q 3713 922 3314 415 
Q 2916 -91 2278 -91 
Q 1894 -91 1617 61 
Q 1341 213 1159 525 
L 1159 0 
L 581 0 
L 581 4863 
L 1159 4863 
L 1159 2969 
z
" transform="scale(0.015625)"/>
      <path id="DejaVuSans-63" d="M 3122 3366 
L 3122 2828 
Q 2878 2963 2633 3030 
Q 2388 3097 2138 3097 
Q 1578 3097 1268 2742 
Q 959 2388 959 1747 
Q 959 1106 1268 751 
Q 1578 397 2138 397 
Q 2388 397 2633 464 
Q 2878 531 3122 666 
L 3122 134 
Q 2881 22 2623 -34 
Q 2366 -91 2075 -91 
Q 1284 -91 818 406 
Q 353 903 353 1747 
Q 353 2603 823 3093 
Q 1294 3584 2113 3584 
Q 2378 3584 2631 3529 
Q 2884 3475 3122 3366 
z
" transform="scale(0.015625)"/>
      <path id="DejaVuSans-72" d="M 2631 2963 
Q 2534 3019 2420 3045 
Q 2306 3072 2169 3072 
Q 1681 3072 1420 2755 
Q 1159 2438 1159 1844 
L 1159 0 
L 581 0 
L 581 3500 
L 1159 3500 
L 1159 2956 
Q 1341 3275 1631 3429 
Q 1922 3584 2338 3584 
Q 2397 3584 2469 3576 
Q 2541 3569 2628 3553 
L 2631 2963 
z
" transform="scale(0.015625)"/>
      <path id="DejaVuSans-69" d="M 603 3500 
L 1178 3500 
L 1178 0 
L 603 0 
L 603 3500 
z
M 603 4863 
L 1178 4863 
L 1178 4134 
L 603 4134 
L 603 4863 
z
" transform="scale(0.015625)"/>
      <path id="DejaVuSans-20" transform="scale(0.015625)"/>
      <path id="DejaVuSans-68" d="M 3513 2113 
L 3513 0 
L 2938 0 
L 2938 2094 
Q 2938 2591 2744 2837 
Q 2550 3084 2163 3084 
Q 1697 3084 1428 2787 
Q 1159 2491 1159 1978 
L 1159 0 
L 581 0 
L 581 4863 
L 1159 4863 
L 1159 2956 
Q 1366 3272 1645 3428 
Q 1925 3584 2291 3584 
Q 2894 3584 3203 3211 
Q 3513 2838 3513 2113 
z
" transform="scale(0.015625)"/>
      <path id="DejaVuSans-6f" d="M 1959 3097 
Q 1497 3097 1228 2736 
Q 959 2375 959 1747 
Q 959 1119 1226 758 
Q 1494 397 1959 397 
Q 2419 397 2687 759 
Q 2956 1122 2956 1747 
Q 2956 2369 2687 2733 
Q 2419 3097 1959 3097 
z
M 1959 3584 
Q 2709 3584 3137 3096 
Q 3566 2609 3566 1747 
Q 3566 888 3137 398 
Q 2709 -91 1959 -91 
Q 1206 -91 779 398 
Q 353 888 353 1747 
Q 353 2609 779 3096 
Q 1206 3584 1959 3584 
z
" transform="scale(0.015625)"/>
      <path id="DejaVuSans-79" d="M 2059 -325 
Q 1816 -950 1584 -1140 
Q 1353 -1331 966 -1331 
L 506 -1331 
L 506 -850 
L 844 -850 
Q 1081 -850 1212 -737 
Q 1344 -625 1503 -206 
L 1606 56 
L 191 3500 
L 800 3500 
L 1894 763 
L 2988 3500 
L 3597 3500 
L 2059 -325 
z
" transform="scale(0.015625)"/>
     </defs>
     <use xlink:href="#DejaVuSans-67"/>
     <use xlink:href="#DejaVuSans-65" transform="translate(63.476562 0)"/>
     <use xlink:href="#DejaVuSans-74" transform="translate(125 0)"/>
     <use xlink:href="#DejaVuSans-5f" transform="translate(164.208984 0)"/>
     <use xlink:href="#DejaVuSans-73" transform="translate(214.208984 0)"/>
     <use xlink:href="#DejaVuSans-75" transform="translate(266.308594 0)"/>
     <use xlink:href="#DejaVuSans-62" transform="translate(329.6875 0)"/>
     <use xlink:href="#DejaVuSans-73" transform="translate(393.164062 0)"/>
     <use xlink:href="#DejaVuSans-63" transform="translate(445.263672 0)"/>
     <use xlink:href="#DejaVuSans-72" transform="translate(500.244141 0)"/>
     <use xlink:href="#DejaVuSans-69" transform="translate(541.357422 0)"/>
     <use xlink:href="#DejaVuSans-62" transform="translate(569.140625 0)"/>
     <use xlink:href="#DejaVuSans-65" transform="translate(632.617188 0)"/>
     <use xlink:href="#DejaVuSans-20" transform="translate(694.140625 0)"/>
     <use xlink:href="#DejaVuSans-68" transform="translate(725.927734 0)"/>
     <use xlink:href="#DejaVuSans-69" transform="translate(789.306641 0)"/>
     <use xlink:href="#DejaVuSans-73" transform="translate(817.089844 0)"/>
     <use xlink:href="#DejaVuSans-74" transform="translate(869.189453 0)"/>
     <use xlink:href="#DejaVuSans-6f" transform="translate(908.398438 0)"/>
     <use xlink:href="#DejaVuSans-72" transform="translate(969.580078 0)"/>
     <use xlink:href="#DejaVuSans-79" transform="translate(1010.693359 0)"/>
    </g>
   </g>
   <g id="legend_1">
    <g id="line2d_35">
     <path d="M 815.08 328.498438 
L 825.08 328.498438 
L 835.08 328.498438 
" style="fill: none; stroke: #1f77b4; stroke-width: 1.5; stroke-linecap: square"/>
    </g>
    <g id="text_18">
     <!-- star -->
     <g style="fill: #a9a9a9" transform="translate(843.08 331.998438) scale(0.1 -0.1)">
      <defs>
       <path id="DejaVuSans-61" d="M 2194 1759 
Q 1497 1759 1228 1600 
Q 959 1441 959 1056 
Q 959 750 1161 570 
Q 1363 391 1709 391 
Q 2188 391 2477 730 
Q 2766 1069 2766 1631 
L 2766 1759 
L 2194 1759 
z
M 3341 1997 
L 3341 0 
L 2766 0 
L 2766 531 
Q 2569 213 2275 61 
Q 1981 -91 1556 -91 
Q 1019 -91 701 211 
Q 384 513 384 1019 
Q 384 1609 779 1909 
Q 1175 2209 1959 2209 
L 2766 2209 
L 2766 2266 
Q 2766 2663 2505 2880 
Q 2244 3097 1772 3097 
Q 1472 3097 1187 3025 
Q 903 2953 641 2809 
L 641 3341 
Q 956 3463 1253 3523 
Q 1550 3584 1831 3584 
Q 2591 3584 2966 3190 
Q 3341 2797 3341 1997 
z
" transform="scale(0.015625)"/>
      </defs>
      <use xlink:href="#DejaVuSans-73"/>
      <use xlink:href="#DejaVuSans-74" transform="translate(52.099609 0)"/>
      <use xlink:href="#DejaVuSans-61" transform="translate(91.308594 0)"/>
      <use xlink:href="#DejaVuSans-72" transform="translate(152.587891 0)"/>
     </g>
    </g>
    <g id="line2d_36">
     <path d="M 815.08 343.176562 
L 825.08 343.176562 
L 835.08 343.176562 
" style="fill: none; stroke: #ff7f0e; stroke-width: 1.5; stroke-linecap: square"/>
    </g>
    <g id="text_19">
     <!-- fork -->
     <g style="fill: #a9a9a9" transform="translate(843.08 346.676562) scale(0.1 -0.1)">
      <defs>
       <path id="DejaVuSans-66" d="M 2375 4863 
L 2375 4384 
L 1825 4384 
Q 1516 4384 1395 4259 
Q 1275 4134 1275 3809 
L 1275 3500 
L 2222 3500 
L 2222 3053 
L 1275 3053 
L 1275 0 
L 697 0 
L 697 3053 
L 147 3053 
L 147 3500 
L 697 3500 
L 697 3744 
Q 697 4328 969 4595 
Q 1241 4863 1831 4863 
L 2375 4863 
z
" transform="scale(0.015625)"/>
       <path id="DejaVuSans-6b" d="M 581 4863 
L 1159 4863 
L 1159 1991 
L 2875 3500 
L 3609 3500 
L 1753 1863 
L 3688 0 
L 2938 0 
L 1159 1709 
L 1159 0 
L 581 0 
L 581 4863 
z
" transform="scale(0.015625)"/>
      </defs>
      <use xlink:href="#DejaVuSans-66"/>
      <use xlink:href="#DejaVuSans-6f" transform="translate(35.205078 0)"/>
      <use xlink:href="#DejaVuSans-72" transform="translate(96.386719 0)"/>
      <use xlink:href="#DejaVuSans-6b" transform="translate(137.5 0)"/>
     </g>
    </g>
   </g>
  </g>
 </g>
 <defs>
  <clipPath id="p4af1e7bfc5">
   <rect x="108" y="43.2" width="669.6" height="277.2"/>
  </clipPath>
 </defs>
</svg>
