<?xml version="1.0" encoding="utf-8" standalone="no"?>
<!DOCTYPE svg PUBLIC "-//W3C//DTD SVG 1.1//EN"
  "http://www.w3.org/Graphics/SVG/1.1/DTD/svg11.dtd">
<svg xmlns:xlink="http://www.w3.org/1999/xlink" width="864pt" height="360pt" viewBox="0 0 864 360" xmlns="http://www.w3.org/2000/svg" version="1.1">
 <metadata>
  <rdf:RDF xmlns:dc="http://purl.org/dc/elements/1.1/" xmlns:cc="http://creativecommons.org/ns#" xmlns:rdf="http://www.w3.org/1999/02/22-rdf-syntax-ns#">
   <cc:Work>
    <dc:type rdf:resource="http://purl.org/dc/dcmitype/StillImage"/>
    <dc:date>2023-12-15T20:04:57.860443</dc:date>
    <dc:format>image/svg+xml</dc:format>
    <dc:creator>
     <cc:Agent>
      <dc:title>Matplotlib v3.8.2, https://matplotlib.org/</dc:title>
     </cc:Agent>
    </dc:creator>
   </cc:Work>
  </rdf:RDF>
 </metadata>
 <defs>
  <style type="text/css">*{stroke-linejoin: round; stroke-linecap: butt}</style>
 </defs>
 <g id="figure_1">
  <g id="patch_1">
   <path d="M 0 360 
L 864 360 
L 864 0 
L 0 0 
L 0 360 
z
" style="fill: none; opacity: 0"/>
  </g>
  <g id="axes_1">
   <g id="patch_2">
    <path d="M 108 320.4 
L 777.6 320.4 
L 777.6 43.2 
L 108 43.2 
L 108 320.4 
z
" style="fill: none; opacity: 0"/>
   </g>
   <g id="matplotlib.axis_1">
    <g id="xtick_1">
     <g id="line2d_1">
      <path d="M 122.417225 320.4 
L 122.417225 43.2 
" clip-path="url(#p3a433b27e1)" style="fill: none; stroke-dasharray: 5.12,1.28,0.8,1.28; stroke-dashoffset: 0; stroke: #b0b0b0; stroke-width: 0.8"/>
     </g>
     <g id="line2d_2">
      <defs>
       <path id="mb77b95e190" d="M 0 0 
L 0 3.5 
" style="stroke: #a9a9a9; stroke-width: 0.8"/>
      </defs>
      <g>
       <use xlink:href="#mb77b95e190" x="122.417225" y="320.4" style="fill: #a9a9a9; stroke: #a9a9a9; stroke-width: 0.8"/>
      </g>
     </g>
     <g id="text_1">
      <!-- 2021-07 -->
      <g style="fill: #a9a9a9" transform="translate(101.525819 334.998438) scale(0.1 -0.1)">
       <defs>
        <path id="DejaVuSans-32" d="M 1228 531 
L 3431 531 
L 3431 0 
L 469 0 
L 469 531 
Q 828 903 1448 1529 
Q 2069 2156 2228 2338 
Q 2531 2678 2651 2914 
Q 2772 3150 2772 3378 
Q 2772 3750 2511 3984 
Q 2250 4219 1831 4219 
Q 1534 4219 1204 4116 
Q 875 4013 500 3803 
L 500 4441 
Q 881 4594 1212 4672 
Q 1544 4750 1819 4750 
Q 2544 4750 2975 4387 
Q 3406 4025 3406 3419 
Q 3406 3131 3298 2873 
Q 3191 2616 2906 2266 
Q 2828 2175 2409 1742 
Q 1991 1309 1228 531 
z
" transform="scale(0.015625)"/>
        <path id="DejaVuSans-30" d="M 2034 4250 
Q 1547 4250 1301 3770 
Q 1056 3291 1056 2328 
Q 1056 1369 1301 889 
Q 1547 409 2034 409 
Q 2525 409 2770 889 
Q 3016 1369 3016 2328 
Q 3016 3291 2770 3770 
Q 2525 4250 2034 4250 
z
M 2034 4750 
Q 2819 4750 3233 4129 
Q 3647 3509 3647 2328 
Q 3647 1150 3233 529 
Q 2819 -91 2034 -91 
Q 1250 -91 836 529 
Q 422 1150 422 2328 
Q 422 3509 836 4129 
Q 1250 4750 2034 4750 
z
" transform="scale(0.015625)"/>
        <path id="DejaVuSans-31" d="M 794 531 
L 1825 531 
L 1825 4091 
L 703 3866 
L 703 4441 
L 1819 4666 
L 2450 4666 
L 2450 531 
L 3481 531 
L 3481 0 
L 794 0 
L 794 531 
z
" transform="scale(0.015625)"/>
        <path id="DejaVuSans-2d" d="M 313 2009 
L 1997 2009 
L 1997 1497 
L 313 1497 
L 313 2009 
z
" transform="scale(0.015625)"/>
        <path id="DejaVuSans-37" d="M 525 4666 
L 3525 4666 
L 3525 4397 
L 1831 0 
L 1172 0 
L 2766 4134 
L 525 4134 
L 525 4666 
z
" transform="scale(0.015625)"/>
       </defs>
       <use xlink:href="#DejaVuSans-32"/>
       <use xlink:href="#DejaVuSans-30" x="63.623047"/>
       <use xlink:href="#DejaVuSans-32" x="127.246094"/>
       <use xlink:href="#DejaVuSans-31" x="190.869141"/>
       <use xlink:href="#DejaVuSans-2d" x="254.492188"/>
       <use xlink:href="#DejaVuSans-30" x="290.576172"/>
       <use xlink:href="#DejaVuSans-37" x="354.199219"/>
      </g>
     </g>
    </g>
    <g id="xtick_2">
     <g id="line2d_3">
      <path d="M 186.49378 320.4 
L 186.49378 43.2 
" clip-path="url(#p3a433b27e1)" style="fill: none; stroke-dasharray: 5.12,1.28,0.8,1.28; stroke-dashoffset: 0; stroke: #b0b0b0; stroke-width: 0.8"/>
     </g>
     <g id="line2d_4">
      <g>
       <use xlink:href="#mb77b95e190" x="186.49378" y="320.4" style="fill: #a9a9a9; stroke: #a9a9a9; stroke-width: 0.8"/>
      </g>
     </g>
     <g id="text_2">
      <!-- 2021-10 -->
      <g style="fill: #a9a9a9" transform="translate(165.602374 334.998438) scale(0.1 -0.1)">
       <use xlink:href="#DejaVuSans-32"/>
       <use xlink:href="#DejaVuSans-30" x="63.623047"/>
       <use xlink:href="#DejaVuSans-32" x="127.246094"/>
       <use xlink:href="#DejaVuSans-31" x="190.869141"/>
       <use xlink:href="#DejaVuSans-2d" x="254.492188"/>
       <use xlink:href="#DejaVuSans-31" x="290.576172"/>
       <use xlink:href="#DejaVuSans-30" x="354.199219"/>
      </g>
     </g>
    </g>
    <g id="xtick_3">
     <g id="line2d_5">
      <path d="M 250.570335 320.4 
L 250.570335 43.2 
" clip-path="url(#p3a433b27e1)" style="fill: none; stroke-dasharray: 5.12,1.28,0.8,1.28; stroke-dashoffset: 0; stroke: #b0b0b0; stroke-width: 0.8"/>
     </g>
     <g id="line2d_6">
      <g>
       <use xlink:href="#mb77b95e190" x="250.570335" y="320.4" style="fill: #a9a9a9; stroke: #a9a9a9; stroke-width: 0.8"/>
      </g>
     </g>
     <g id="text_3">
      <!-- 2022-01 -->
      <g style="fill: #a9a9a9" transform="translate(229.678929 334.998438) scale(0.1 -0.1)">
       <use xlink:href="#DejaVuSans-32"/>
       <use xlink:href="#DejaVuSans-30" x="63.623047"/>
       <use xlink:href="#DejaVuSans-32" x="127.246094"/>
       <use xlink:href="#DejaVuSans-32" x="190.869141"/>
       <use xlink:href="#DejaVuSans-2d" x="254.492188"/>
       <use xlink:href="#DejaVuSans-30" x="290.576172"/>
       <use xlink:href="#DejaVuSans-31" x="354.199219"/>
      </g>
     </g>
    </g>
    <g id="xtick_4">
     <g id="line2d_7">
      <path d="M 313.253921 320.4 
L 313.253921 43.2 
" clip-path="url(#p3a433b27e1)" style="fill: none; stroke-dasharray: 5.12,1.28,0.8,1.28; stroke-dashoffset: 0; stroke: #b0b0b0; stroke-width: 0.8"/>
     </g>
     <g id="line2d_8">
      <g>
       <use xlink:href="#mb77b95e190" x="313.253921" y="320.4" style="fill: #a9a9a9; stroke: #a9a9a9; stroke-width: 0.8"/>
      </g>
     </g>
     <g id="text_4">
      <!-- 2022-04 -->
      <g style="fill: #a9a9a9" transform="translate(292.362515 334.998438) scale(0.1 -0.1)">
       <defs>
        <path id="DejaVuSans-34" d="M 2419 4116 
L 825 1625 
L 2419 1625 
L 2419 4116 
z
M 2253 4666 
L 3047 4666 
L 3047 1625 
L 3713 1625 
L 3713 1100 
L 3047 1100 
L 3047 0 
L 2419 0 
L 2419 1100 
L 313 1100 
L 313 1709 
L 2253 4666 
z
" transform="scale(0.015625)"/>
       </defs>
       <use xlink:href="#DejaVuSans-32"/>
       <use xlink:href="#DejaVuSans-30" x="63.623047"/>
       <use xlink:href="#DejaVuSans-32" x="127.246094"/>
       <use xlink:href="#DejaVuSans-32" x="190.869141"/>
       <use xlink:href="#DejaVuSans-2d" x="254.492188"/>
       <use xlink:href="#DejaVuSans-30" x="290.576172"/>
       <use xlink:href="#DejaVuSans-34" x="354.199219"/>
      </g>
     </g>
    </g>
    <g id="xtick_5">
     <g id="line2d_9">
      <path d="M 376.633992 320.4 
L 376.633992 43.2 
" clip-path="url(#p3a433b27e1)" style="fill: none; stroke-dasharray: 5.12,1.28,0.8,1.28; stroke-dashoffset: 0; stroke: #b0b0b0; stroke-width: 0.8"/>
     </g>
     <g id="line2d_10">
      <g>
       <use xlink:href="#mb77b95e190" x="376.633992" y="320.4" style="fill: #a9a9a9; stroke: #a9a9a9; stroke-width: 0.8"/>
      </g>
     </g>
     <g id="text_5">
      <!-- 2022-07 -->
      <g style="fill: #a9a9a9" transform="translate(355.742586 334.998438) scale(0.1 -0.1)">
       <use xlink:href="#DejaVuSans-32"/>
       <use xlink:href="#DejaVuSans-30" x="63.623047"/>
       <use xlink:href="#DejaVuSans-32" x="127.246094"/>
       <use xlink:href="#DejaVuSans-32" x="190.869141"/>
       <use xlink:href="#DejaVuSans-2d" x="254.492188"/>
       <use xlink:href="#DejaVuSans-30" x="290.576172"/>
       <use xlink:href="#DejaVuSans-37" x="354.199219"/>
      </g>
     </g>
    </g>
    <g id="xtick_6">
     <g id="line2d_11">
      <path d="M 440.710547 320.4 
L 440.710547 43.2 
" clip-path="url(#p3a433b27e1)" style="fill: none; stroke-dasharray: 5.12,1.28,0.8,1.28; stroke-dashoffset: 0; stroke: #b0b0b0; stroke-width: 0.8"/>
     </g>
     <g id="line2d_12">
      <g>
       <use xlink:href="#mb77b95e190" x="440.710547" y="320.4" style="fill: #a9a9a9; stroke: #a9a9a9; stroke-width: 0.8"/>
      </g>
     </g>
     <g id="text_6">
      <!-- 2022-10 -->
      <g style="fill: #a9a9a9" transform="translate(419.819141 334.998438) scale(0.1 -0.1)">
       <use xlink:href="#DejaVuSans-32"/>
       <use xlink:href="#DejaVuSans-30" x="63.623047"/>
       <use xlink:href="#DejaVuSans-32" x="127.246094"/>
       <use xlink:href="#DejaVuSans-32" x="190.869141"/>
       <use xlink:href="#DejaVuSans-2d" x="254.492188"/>
       <use xlink:href="#DejaVuSans-31" x="290.576172"/>
       <use xlink:href="#DejaVuSans-30" x="354.199219"/>
      </g>
     </g>
    </g>
    <g id="xtick_7">
     <g id="line2d_13">
      <path d="M 504.787102 320.4 
L 504.787102 43.2 
" clip-path="url(#p3a433b27e1)" style="fill: none; stroke-dasharray: 5.12,1.28,0.8,1.28; stroke-dashoffset: 0; stroke: #b0b0b0; stroke-width: 0.8"/>
     </g>
     <g id="line2d_14">
      <g>
       <use xlink:href="#mb77b95e190" x="504.787102" y="320.4" style="fill: #a9a9a9; stroke: #a9a9a9; stroke-width: 0.8"/>
      </g>
     </g>
     <g id="text_7">
      <!-- 2023-01 -->
      <g style="fill: #a9a9a9" transform="translate(483.895696 334.998438) scale(0.1 -0.1)">
       <defs>
        <path id="DejaVuSans-33" d="M 2597 2516 
Q 3050 2419 3304 2112 
Q 3559 1806 3559 1356 
Q 3559 666 3084 287 
Q 2609 -91 1734 -91 
Q 1441 -91 1130 -33 
Q 819 25 488 141 
L 488 750 
Q 750 597 1062 519 
Q 1375 441 1716 441 
Q 2309 441 2620 675 
Q 2931 909 2931 1356 
Q 2931 1769 2642 2001 
Q 2353 2234 1838 2234 
L 1294 2234 
L 1294 2753 
L 1863 2753 
Q 2328 2753 2575 2939 
Q 2822 3125 2822 3475 
Q 2822 3834 2567 4026 
Q 2313 4219 1838 4219 
Q 1578 4219 1281 4162 
Q 984 4106 628 3988 
L 628 4550 
Q 988 4650 1302 4700 
Q 1616 4750 1894 4750 
Q 2613 4750 3031 4423 
Q 3450 4097 3450 3541 
Q 3450 3153 3228 2886 
Q 3006 2619 2597 2516 
z
" transform="scale(0.015625)"/>
       </defs>
       <use xlink:href="#DejaVuSans-32"/>
       <use xlink:href="#DejaVuSans-30" x="63.623047"/>
       <use xlink:href="#DejaVuSans-32" x="127.246094"/>
       <use xlink:href="#DejaVuSans-33" x="190.869141"/>
       <use xlink:href="#DejaVuSans-2d" x="254.492188"/>
       <use xlink:href="#DejaVuSans-30" x="290.576172"/>
       <use xlink:href="#DejaVuSans-31" x="354.199219"/>
      </g>
     </g>
    </g>
    <g id="xtick_8">
     <g id="line2d_15">
      <path d="M 567.470689 320.4 
L 567.470689 43.2 
" clip-path="url(#p3a433b27e1)" style="fill: none; stroke-dasharray: 5.12,1.28,0.8,1.28; stroke-dashoffset: 0; stroke: #b0b0b0; stroke-width: 0.8"/>
     </g>
     <g id="line2d_16">
      <g>
       <use xlink:href="#mb77b95e190" x="567.470689" y="320.4" style="fill: #a9a9a9; stroke: #a9a9a9; stroke-width: 0.8"/>
      </g>
     </g>
     <g id="text_8">
      <!-- 2023-04 -->
      <g style="fill: #a9a9a9" transform="translate(546.579282 334.998438) scale(0.1 -0.1)">
       <use xlink:href="#DejaVuSans-32"/>
       <use xlink:href="#DejaVuSans-30" x="63.623047"/>
       <use xlink:href="#DejaVuSans-32" x="127.246094"/>
       <use xlink:href="#DejaVuSans-33" x="190.869141"/>
       <use xlink:href="#DejaVuSans-2d" x="254.492188"/>
       <use xlink:href="#DejaVuSans-30" x="290.576172"/>
       <use xlink:href="#DejaVuSans-34" x="354.199219"/>
      </g>
     </g>
    </g>
    <g id="xtick_9">
     <g id="line2d_17">
      <path d="M 630.850759 320.4 
L 630.850759 43.2 
" clip-path="url(#p3a433b27e1)" style="fill: none; stroke-dasharray: 5.12,1.28,0.8,1.28; stroke-dashoffset: 0; stroke: #b0b0b0; stroke-width: 0.8"/>
     </g>
     <g id="line2d_18">
      <g>
       <use xlink:href="#mb77b95e190" x="630.850759" y="320.4" style="fill: #a9a9a9; stroke: #a9a9a9; stroke-width: 0.8"/>
      </g>
     </g>
     <g id="text_9">
      <!-- 2023-07 -->
      <g style="fill: #a9a9a9" transform="translate(609.959353 334.998438) scale(0.1 -0.1)">
       <use xlink:href="#DejaVuSans-32"/>
       <use xlink:href="#DejaVuSans-30" x="63.623047"/>
       <use xlink:href="#DejaVuSans-32" x="127.246094"/>
       <use xlink:href="#DejaVuSans-33" x="190.869141"/>
       <use xlink:href="#DejaVuSans-2d" x="254.492188"/>
       <use xlink:href="#DejaVuSans-30" x="290.576172"/>
       <use xlink:href="#DejaVuSans-37" x="354.199219"/>
      </g>
     </g>
    </g>
    <g id="xtick_10">
     <g id="line2d_19">
      <path d="M 694.927314 320.4 
L 694.927314 43.2 
" clip-path="url(#p3a433b27e1)" style="fill: none; stroke-dasharray: 5.12,1.28,0.8,1.28; stroke-dashoffset: 0; stroke: #b0b0b0; stroke-width: 0.8"/>
     </g>
     <g id="line2d_20">
      <g>
       <use xlink:href="#mb77b95e190" x="694.927314" y="320.4" style="fill: #a9a9a9; stroke: #a9a9a9; stroke-width: 0.8"/>
      </g>
     </g>
     <g id="text_10">
      <!-- 2023-10 -->
      <g style="fill: #a9a9a9" transform="translate(674.035908 334.998438) scale(0.1 -0.1)">
       <use xlink:href="#DejaVuSans-32"/>
       <use xlink:href="#DejaVuSans-30" x="63.623047"/>
       <use xlink:href="#DejaVuSans-32" x="127.246094"/>
       <use xlink:href="#DejaVuSans-33" x="190.869141"/>
       <use xlink:href="#DejaVuSans-2d" x="254.492188"/>
       <use xlink:href="#DejaVuSans-31" x="290.576172"/>
       <use xlink:href="#DejaVuSans-30" x="354.199219"/>
      </g>
     </g>
    </g>
    <g id="xtick_11">
     <g id="line2d_21">
      <path d="M 759.003869 320.4 
L 759.003869 43.2 
" clip-path="url(#p3a433b27e1)" style="fill: none; stroke-dasharray: 5.12,1.28,0.8,1.28; stroke-dashoffset: 0; stroke: #b0b0b0; stroke-width: 0.8"/>
     </g>
     <g id="line2d_22">
      <g>
       <use xlink:href="#mb77b95e190" x="759.003869" y="320.4" style="fill: #a9a9a9; stroke: #a9a9a9; stroke-width: 0.8"/>
      </g>
     </g>
     <g id="text_11">
      <!-- 2024-01 -->
      <g style="fill: #a9a9a9" transform="translate(738.112463 334.998438) scale(0.1 -0.1)">
       <use xlink:href="#DejaVuSans-32"/>
       <use xlink:href="#DejaVuSans-30" x="63.623047"/>
       <use xlink:href="#DejaVuSans-32" x="127.246094"/>
       <use xlink:href="#DejaVuSans-34" x="190.869141"/>
       <use xlink:href="#DejaVuSans-2d" x="254.492188"/>
       <use xlink:href="#DejaVuSans-30" x="290.576172"/>
       <use xlink:href="#DejaVuSans-31" x="354.199219"/>
      </g>
     </g>
    </g>
   </g>
   <g id="matplotlib.axis_2">
    <g id="ytick_1">
     <g id="line2d_23">
      <path d="M 108 307.847315 
L 777.6 307.847315 
" clip-path="url(#p3a433b27e1)" style="fill: none; stroke-dasharray: 5.12,1.28,0.8,1.28; stroke-dashoffset: 0; stroke: #b0b0b0; stroke-width: 0.8"/>
     </g>
     <g id="line2d_24">
      <defs>
       <path id="mcc75a331a2" d="M 0 0 
L -3.5 0 
" style="stroke: #a9a9a9; stroke-width: 0.8"/>
      </defs>
      <g>
       <use xlink:href="#mcc75a331a2" x="108" y="307.847315" style="fill: #a9a9a9; stroke: #a9a9a9; stroke-width: 0.8"/>
      </g>
     </g>
     <g id="text_12">
      <!-- 0 -->
      <g style="fill: #a9a9a9" transform="translate(94.6375 311.646534) scale(0.1 -0.1)">
       <use xlink:href="#DejaVuSans-30"/>
      </g>
     </g>
    </g>
    <g id="ytick_2">
     <g id="line2d_25">
      <path d="M 108 279.45828 
L 777.6 279.45828 
" clip-path="url(#p3a433b27e1)" style="fill: none; stroke-dasharray: 5.12,1.28,0.8,1.28; stroke-dashoffset: 0; stroke: #b0b0b0; stroke-width: 0.8"/>
     </g>
     <g id="line2d_26">
      <g>
       <use xlink:href="#mcc75a331a2" x="108" y="279.45828" style="fill: #a9a9a9; stroke: #a9a9a9; stroke-width: 0.8"/>
      </g>
     </g>
     <g id="text_13">
      <!-- 600 -->
      <g style="fill: #a9a9a9" transform="translate(81.9125 283.257499) scale(0.1 -0.1)">
       <defs>
        <path id="DejaVuSans-36" d="M 2113 2584 
Q 1688 2584 1439 2293 
Q 1191 2003 1191 1497 
Q 1191 994 1439 701 
Q 1688 409 2113 409 
Q 2538 409 2786 701 
Q 3034 994 3034 1497 
Q 3034 2003 2786 2293 
Q 2538 2584 2113 2584 
z
M 3366 4563 
L 3366 3988 
Q 3128 4100 2886 4159 
Q 2644 4219 2406 4219 
Q 1781 4219 1451 3797 
Q 1122 3375 1075 2522 
Q 1259 2794 1537 2939 
Q 1816 3084 2150 3084 
Q 2853 3084 3261 2657 
Q 3669 2231 3669 1497 
Q 3669 778 3244 343 
Q 2819 -91 2113 -91 
Q 1303 -91 875 529 
Q 447 1150 447 2328 
Q 447 3434 972 4092 
Q 1497 4750 2381 4750 
Q 2619 4750 2861 4703 
Q 3103 4656 3366 4563 
z
" transform="scale(0.015625)"/>
       </defs>
       <use xlink:href="#DejaVuSans-36"/>
       <use xlink:href="#DejaVuSans-30" x="63.623047"/>
       <use xlink:href="#DejaVuSans-30" x="127.246094"/>
      </g>
     </g>
    </g>
    <g id="ytick_3">
     <g id="line2d_27">
      <path d="M 108 251.069245 
L 777.6 251.069245 
" clip-path="url(#p3a433b27e1)" style="fill: none; stroke-dasharray: 5.12,1.28,0.8,1.28; stroke-dashoffset: 0; stroke: #b0b0b0; stroke-width: 0.8"/>
     </g>
     <g id="line2d_28">
      <g>
       <use xlink:href="#mcc75a331a2" x="108" y="251.069245" style="fill: #a9a9a9; stroke: #a9a9a9; stroke-width: 0.8"/>
      </g>
     </g>
     <g id="text_14">
      <!-- 1200 -->
      <g style="fill: #a9a9a9" transform="translate(75.55 254.868464) scale(0.1 -0.1)">
       <use xlink:href="#DejaVuSans-31"/>
       <use xlink:href="#DejaVuSans-32" x="63.623047"/>
       <use xlink:href="#DejaVuSans-30" x="127.246094"/>
       <use xlink:href="#DejaVuSans-30" x="190.869141"/>
      </g>
     </g>
    </g>
    <g id="ytick_4">
     <g id="line2d_29">
      <path d="M 108 222.68021 
L 777.6 222.68021 
" clip-path="url(#p3a433b27e1)" style="fill: none; stroke-dasharray: 5.12,1.28,0.8,1.28; stroke-dashoffset: 0; stroke: #b0b0b0; stroke-width: 0.8"/>
     </g>
     <g id="line2d_30">
      <g>
       <use xlink:href="#mcc75a331a2" x="108" y="222.68021" style="fill: #a9a9a9; stroke: #a9a9a9; stroke-width: 0.8"/>
      </g>
     </g>
     <g id="text_15">
      <!-- 1800 -->
      <g style="fill: #a9a9a9" transform="translate(75.55 226.479429) scale(0.1 -0.1)">
       <defs>
        <path id="DejaVuSans-38" d="M 2034 2216 
Q 1584 2216 1326 1975 
Q 1069 1734 1069 1313 
Q 1069 891 1326 650 
Q 1584 409 2034 409 
Q 2484 409 2743 651 
Q 3003 894 3003 1313 
Q 3003 1734 2745 1975 
Q 2488 2216 2034 2216 
z
M 1403 2484 
Q 997 2584 770 2862 
Q 544 3141 544 3541 
Q 544 4100 942 4425 
Q 1341 4750 2034 4750 
Q 2731 4750 3128 4425 
Q 3525 4100 3525 3541 
Q 3525 3141 3298 2862 
Q 3072 2584 2669 2484 
Q 3125 2378 3379 2068 
Q 3634 1759 3634 1313 
Q 3634 634 3220 271 
Q 2806 -91 2034 -91 
Q 1263 -91 848 271 
Q 434 634 434 1313 
Q 434 1759 690 2068 
Q 947 2378 1403 2484 
z
M 1172 3481 
Q 1172 3119 1398 2916 
Q 1625 2713 2034 2713 
Q 2441 2713 2670 2916 
Q 2900 3119 2900 3481 
Q 2900 3844 2670 4047 
Q 2441 4250 2034 4250 
Q 1625 4250 1398 4047 
Q 1172 3844 1172 3481 
z
" transform="scale(0.015625)"/>
       </defs>
       <use xlink:href="#DejaVuSans-31"/>
       <use xlink:href="#DejaVuSans-38" x="63.623047"/>
       <use xlink:href="#DejaVuSans-30" x="127.246094"/>
       <use xlink:href="#DejaVuSans-30" x="190.869141"/>
      </g>
     </g>
    </g>
    <g id="ytick_5">
     <g id="line2d_31">
      <path d="M 108 194.291175 
L 777.6 194.291175 
" clip-path="url(#p3a433b27e1)" style="fill: none; stroke-dasharray: 5.12,1.28,0.8,1.28; stroke-dashoffset: 0; stroke: #b0b0b0; stroke-width: 0.8"/>
     </g>
     <g id="line2d_32">
      <g>
       <use xlink:href="#mcc75a331a2" x="108" y="194.291175" style="fill: #a9a9a9; stroke: #a9a9a9; stroke-width: 0.8"/>
      </g>
     </g>
     <g id="text_16">
      <!-- 2400 -->
      <g style="fill: #a9a9a9" transform="translate(75.55 198.090394) scale(0.1 -0.1)">
       <use xlink:href="#DejaVuSans-32"/>
       <use xlink:href="#DejaVuSans-34" x="63.623047"/>
       <use xlink:href="#DejaVuSans-30" x="127.246094"/>
       <use xlink:href="#DejaVuSans-30" x="190.869141"/>
      </g>
     </g>
    </g>
    <g id="ytick_6">
     <g id="line2d_33">
      <path d="M 108 165.90214 
L 777.6 165.90214 
" clip-path="url(#p3a433b27e1)" style="fill: none; stroke-dasharray: 5.12,1.28,0.8,1.28; stroke-dashoffset: 0; stroke: #b0b0b0; stroke-width: 0.8"/>
     </g>
     <g id="line2d_34">
      <g>
       <use xlink:href="#mcc75a331a2" x="108" y="165.90214" style="fill: #a9a9a9; stroke: #a9a9a9; stroke-width: 0.8"/>
      </g>
     </g>
     <g id="text_17">
      <!-- 3000 -->
      <g style="fill: #a9a9a9" transform="translate(75.55 169.701359) scale(0.1 -0.1)">
       <use xlink:href="#DejaVuSans-33"/>
       <use xlink:href="#DejaVuSans-30" x="63.623047"/>
       <use xlink:href="#DejaVuSans-30" x="127.246094"/>
       <use xlink:href="#DejaVuSans-30" x="190.869141"/>
      </g>
     </g>
    </g>
    <g id="ytick_7">
     <g id="line2d_35">
      <path d="M 108 137.513106 
L 777.6 137.513106 
" clip-path="url(#p3a433b27e1)" style="fill: none; stroke-dasharray: 5.12,1.28,0.8,1.28; stroke-dashoffset: 0; stroke: #b0b0b0; stroke-width: 0.8"/>
     </g>
     <g id="line2d_36">
      <g>
       <use xlink:href="#mcc75a331a2" x="108" y="137.513106" style="fill: #a9a9a9; stroke: #a9a9a9; stroke-width: 0.8"/>
      </g>
     </g>
     <g id="text_18">
      <!-- 3600 -->
      <g style="fill: #a9a9a9" transform="translate(75.55 141.312324) scale(0.1 -0.1)">
       <use xlink:href="#DejaVuSans-33"/>
       <use xlink:href="#DejaVuSans-36" x="63.623047"/>
       <use xlink:href="#DejaVuSans-30" x="127.246094"/>
       <use xlink:href="#DejaVuSans-30" x="190.869141"/>
      </g>
     </g>
    </g>
    <g id="ytick_8">
     <g id="line2d_37">
      <path d="M 108 109.124071 
L 777.6 109.124071 
" clip-path="url(#p3a433b27e1)" style="fill: none; stroke-dasharray: 5.12,1.28,0.8,1.28; stroke-dashoffset: 0; stroke: #b0b0b0; stroke-width: 0.8"/>
     </g>
     <g id="line2d_38">
      <g>
       <use xlink:href="#mcc75a331a2" x="108" y="109.124071" style="fill: #a9a9a9; stroke: #a9a9a9; stroke-width: 0.8"/>
      </g>
     </g>
     <g id="text_19">
      <!-- 4200 -->
      <g style="fill: #a9a9a9" transform="translate(75.55 112.923289) scale(0.1 -0.1)">
       <use xlink:href="#DejaVuSans-34"/>
       <use xlink:href="#DejaVuSans-32" x="63.623047"/>
       <use xlink:href="#DejaVuSans-30" x="127.246094"/>
       <use xlink:href="#DejaVuSans-30" x="190.869141"/>
      </g>
     </g>
    </g>
    <g id="ytick_9">
     <g id="line2d_39">
      <path d="M 108 80.735036 
L 777.6 80.735036 
" clip-path="url(#p3a433b27e1)" style="fill: none; stroke-dasharray: 5.12,1.28,0.8,1.28; stroke-dashoffset: 0; stroke: #b0b0b0; stroke-width: 0.8"/>
     </g>
     <g id="line2d_40">
      <g>
       <use xlink:href="#mcc75a331a2" x="108" y="80.735036" style="fill: #a9a9a9; stroke: #a9a9a9; stroke-width: 0.8"/>
      </g>
     </g>
     <g id="text_20">
      <!-- 4800 -->
      <g style="fill: #a9a9a9" transform="translate(75.55 84.534254) scale(0.1 -0.1)">
       <use xlink:href="#DejaVuSans-34"/>
       <use xlink:href="#DejaVuSans-38" x="63.623047"/>
       <use xlink:href="#DejaVuSans-30" x="127.246094"/>
       <use xlink:href="#DejaVuSans-30" x="190.869141"/>
      </g>
     </g>
    </g>
    <g id="ytick_10">
     <g id="line2d_41">
      <path d="M 108 52.346001 
L 777.6 52.346001 
" clip-path="url(#p3a433b27e1)" style="fill: none; stroke-dasharray: 5.12,1.28,0.8,1.28; stroke-dashoffset: 0; stroke: #b0b0b0; stroke-width: 0.8"/>
     </g>
     <g id="line2d_42">
      <g>
       <use xlink:href="#mcc75a331a2" x="108" y="52.346001" style="fill: #a9a9a9; stroke: #a9a9a9; stroke-width: 0.8"/>
      </g>
     </g>
     <g id="text_21">
      <!-- 5400 -->
      <g style="fill: #a9a9a9" transform="translate(75.55 56.14522) scale(0.1 -0.1)">
       <defs>
        <path id="DejaVuSans-35" d="M 691 4666 
L 3169 4666 
L 3169 4134 
L 1269 4134 
L 1269 2991 
Q 1406 3038 1543 3061 
Q 1681 3084 1819 3084 
Q 2600 3084 3056 2656 
Q 3513 2228 3513 1497 
Q 3513 744 3044 326 
Q 2575 -91 1722 -91 
Q 1428 -91 1123 -41 
Q 819 9 494 109 
L 494 744 
Q 775 591 1075 516 
Q 1375 441 1709 441 
Q 2250 441 2565 725 
Q 2881 1009 2881 1497 
Q 2881 1984 2565 2268 
Q 2250 2553 1709 2553 
Q 1456 2553 1204 2497 
Q 953 2441 691 2322 
L 691 4666 
z
" transform="scale(0.015625)"/>
       </defs>
       <use xlink:href="#DejaVuSans-35"/>
       <use xlink:href="#DejaVuSans-34" x="63.623047"/>
       <use xlink:href="#DejaVuSans-30" x="127.246094"/>
       <use xlink:href="#DejaVuSans-30" x="190.869141"/>
      </g>
     </g>
    </g>
   </g>
   <g id="line2d_43">
    <path d="M 138.436364 307.70537 
L 142.615269 307.374164 
L 143.311754 307.090274 
L 145.401207 306.853699 
L 150.276597 305.954713 
L 153.759018 305.623507 
L 154.455502 305.292302 
L 155.151987 305.103042 
L 155.848471 304.251371 
L 156.544955 303.825535 
L 157.24144 302.311453 
L 157.937924 302.216823 
L 158.634408 301.696357 
L 160.027377 301.033947 
L 161.420345 299.993015 
L 162.11683 299.330605 
L 163.509798 298.668194 
L 164.206283 298.384303 
L 164.902767 297.863838 
L 167.688704 296.680961 
L 168.385188 295.592715 
L 169.778157 294.599099 
L 170.474641 294.267893 
L 177.439484 293.321592 
L 178.135968 292.990387 
L 183.011358 292.611866 
L 184.404327 292.233346 
L 185.797296 291.949456 
L 191.36917 291.23973 
L 192.065654 290.861209 
L 192.762139 290.766579 
L 193.458623 290.482689 
L 194.851591 290.246113 
L 195.548076 290.198798 
L 196.24456 289.962223 
L 199.030497 289.536388 
L 200.423466 289.157867 
L 202.512919 288.968607 
L 203.905887 288.826662 
L 204.602372 288.637401 
L 205.298856 288.590086 
L 207.388309 287.974991 
L 211.567214 287.359895 
L 212.263699 287.170635 
L 212.960183 286.224333 
L 215.049636 285.467293 
L 217.139089 284.899512 
L 217.835573 284.568306 
L 218.532057 284.520991 
L 222.014479 283.57469 
L 223.407447 283.48006 
L 224.103932 283.38543 
L 226.193385 282.770334 
L 228.979322 282.107923 
L 229.675806 281.824033 
L 230.37229 281.729403 
L 231.068775 281.398198 
L 238.033618 280.357266 
L 241.516039 279.36365 
L 242.212523 278.937814 
L 244.998461 278.180774 
L 246.391429 277.376418 
L 247.087913 276.903267 
L 247.784398 276.808637 
L 248.480882 276.572062 
L 250.570335 276.193541 
L 251.266819 275.862336 
L 252.659788 275.62576 
L 253.356272 275.24724 
L 254.749241 274.821404 
L 255.445725 274.726774 
L 256.838694 274.348254 
L 258.231662 274.017048 
L 258.928146 273.922418 
L 260.321115 273.354638 
L 261.017599 273.212692 
L 261.714084 272.928802 
L 262.410568 272.834172 
L 263.107052 272.502967 
L 263.803537 272.313706 
L 265.196505 272.219076 
L 266.589474 271.745926 
L 267.982442 271.651296 
L 268.678927 271.32009 
L 271.464864 270.84694 
L 274.250801 270.610364 
L 274.947285 270.468419 
L 276.340254 269.806008 
L 284.001581 266.635899 
L 284.698065 266.257379 
L 285.39455 265.500338 
L 286.091034 264.364777 
L 286.787518 263.46579 
L 287.484002 263.27653 
L 288.180487 263.27653 
L 289.573455 262.282914 
L 290.26994 262.093654 
L 290.966424 261.715133 
L 291.662908 261.573188 
L 292.359393 260.958092 
L 293.055877 260.768832 
L 295.14533 259.775216 
L 295.841814 258.923545 
L 296.538298 257.882614 
L 297.234783 257.456778 
L 297.931267 256.321217 
L 298.627751 255.611491 
L 299.324235 255.280285 
L 300.02072 255.091025 
L 301.413688 254.286669 
L 302.110173 253.955464 
L 304.89611 251.920916 
L 305.592594 250.9273 
L 306.289078 249.365903 
L 306.985563 248.324972 
L 307.682047 247.804506 
L 308.378531 247.520616 
L 311.164468 245.154863 
L 311.860953 244.681712 
L 313.253921 243.498836 
L 313.950406 242.50522 
L 315.343374 241.322343 
L 318.129311 239.571686 
L 318.825796 238.95659 
L 319.52228 238.814645 
L 321.611733 237.726399 
L 323.701186 236.685468 
L 325.094154 235.407961 
L 325.790639 234.603605 
L 327.183607 233.657304 
L 327.880092 233.468044 
L 328.576576 233.136838 
L 329.27306 232.616373 
L 330.666029 231.859332 
L 331.362513 231.764701 
L 332.755482 231.007661 
L 333.451966 230.62914 
L 334.14845 229.919414 
L 334.844934 229.493579 
L 335.541419 229.257003 
L 336.237903 228.783853 
L 339.02384 227.364401 
L 339.720325 226.749305 
L 342.506262 225.803004 
L 343.202746 225.329854 
L 343.89923 225.187908 
L 345.292199 224.714758 
L 347.381652 223.910402 
L 349.471105 223.153361 
L 350.864073 222.916786 
L 352.257042 221.733909 
L 353.65001 221.071498 
L 355.739463 219.888622 
L 357.132432 219.510101 
L 357.828916 219.084266 
L 358.5254 218.895006 
L 359.918369 217.99602 
L 360.614853 217.617499 
L 364.097275 216.813143 
L 366.186728 215.630267 
L 366.883212 215.535637 
L 367.579696 215.299061 
L 368.972665 215.015171 
L 371.062118 213.501089 
L 373.151571 213.027938 
L 373.848055 212.791363 
L 374.544539 212.270897 
L 378.723445 210.946076 
L 379.419929 210.898761 
L 384.295319 209.195419 
L 384.991804 208.864213 
L 387.081257 208.391063 
L 388.474225 208.059857 
L 389.170709 207.728652 
L 389.867194 207.586707 
L 391.956647 206.640406 
L 394.046099 205.599474 
L 394.742584 205.126324 
L 395.439068 204.937063 
L 397.528521 203.848817 
L 398.921489 203.517612 
L 400.314458 202.807886 
L 401.707427 202.429365 
L 402.403911 202.334735 
L 403.100395 201.861585 
L 403.79688 201.530379 
L 404.493364 201.388434 
L 405.886332 200.820653 
L 406.582817 200.678708 
L 407.279301 200.300188 
L 410.065238 199.874352 
L 411.458207 199.211941 
L 412.154691 198.644161 
L 412.851175 197.461284 
L 414.244144 197.177394 
L 414.940628 197.035449 
L 417.726565 195.615997 
L 418.42305 195.474052 
L 423.994924 192.824409 
L 426.084377 192.398573 
L 427.477346 191.736162 
L 428.17383 191.452272 
L 428.870314 191.357642 
L 431.656251 190.12745 
L 433.04922 189.181149 
L 433.745704 188.849944 
L 434.442188 188.755314 
L 435.138673 188.518738 
L 435.835157 188.471423 
L 439.317579 187.572437 
L 440.014063 187.051971 
L 441.407031 186.578821 
L 443.496484 185.91641 
L 444.192969 185.490575 
L 444.889453 185.301314 
L 445.585937 184.828164 
L 446.282421 184.544273 
L 446.978906 184.118438 
L 448.371874 183.597972 
L 450.461327 182.935561 
L 451.157812 182.604356 
L 451.854296 182.08389 
L 452.55078 181.374164 
L 453.247264 180.948329 
L 453.943749 180.806384 
L 455.336717 179.765452 
L 456.033202 179.623507 
L 456.729686 178.582576 
L 457.42617 178.298686 
L 458.122654 177.77822 
L 458.819139 177.68359 
L 459.515623 177.210439 
L 460.212107 176.879234 
L 460.908592 176.737289 
L 461.605076 176.453398 
L 462.30156 175.885618 
L 462.998045 175.649042 
L 465.087497 174.276906 
L 467.873435 172.904769 
L 468.569919 172.810139 
L 469.962887 172.195043 
L 470.659372 171.769208 
L 471.355856 170.633646 
L 472.05234 170.018551 
L 472.748825 169.64003 
L 473.445309 169.498085 
L 474.838278 168.646414 
L 475.534762 168.504469 
L 476.92773 167.842058 
L 479.017183 166.990387 
L 480.410152 166.044086 
L 481.80312 164.577319 
L 483.196089 163.725648 
L 483.892573 163.299812 
L 484.589058 162.590086 
L 485.285542 162.116936 
L 486.678511 160.981374 
L 487.374995 160.697484 
L 488.071479 159.940443 
L 488.767963 159.419977 
L 490.160932 158.946827 
L 490.857416 158.331731 
L 492.250385 157.622005 
L 492.946869 157.432745 
L 493.643353 156.959594 
L 494.339838 156.770334 
L 496.429291 155.682088 
L 497.125775 155.161622 
L 498.518743 154.593842 
L 499.215228 154.451896 
L 499.911712 154.026061 
L 504.787102 152.370034 
L 505.483586 151.754938 
L 507.573039 150.997897 
L 508.966008 150.572062 
L 509.662492 150.051596 
L 511.751945 149.105295 
L 512.448429 148.584829 
L 513.144914 148.206309 
L 514.537882 145.50935 
L 515.930851 143.900638 
L 516.627335 143.427488 
L 518.716788 142.528502 
L 519.413272 142.291926 
L 520.109757 142.197296 
L 520.806241 141.818776 
L 522.895694 141.20368 
L 524.985147 140.399324 
L 526.378115 139.500338 
L 528.467568 138.601352 
L 531.94999 136.614119 
L 532.646474 135.904394 
L 534.039442 135.147353 
L 534.735927 134.768832 
L 535.432411 134.532257 
L 536.128895 134.059106 
L 537.521864 133.396695 
L 539.611317 132.308449 
L 540.307801 132.119189 
L 541.004285 131.598723 
L 541.70077 131.314833 
L 542.397254 131.172888 
L 544.486707 130.415847 
L 545.183191 130.226587 
L 545.879675 129.895381 
L 546.57616 129.374916 
L 547.969128 128.996395 
L 549.362097 128.475929 
L 550.058581 127.908149 
L 551.45155 127.482313 
L 552.148034 127.151108 
L 552.844518 126.961848 
L 554.237487 126.015546 
L 555.630456 125.400451 
L 557.023424 124.359519 
L 558.416393 123.886369 
L 559.112877 123.318588 
L 559.809361 123.176643 
L 561.20233 122.183027 
L 562.595299 121.520616 
L 563.291783 121.236725 
L 563.988267 120.527 
L 568.167173 119.012918 
L 570.256626 118.113932 
L 572.346079 117.498836 
L 573.739047 117.309576 
L 574.435532 117.025685 
L 575.132016 116.88374 
L 576.524984 116.315959 
L 577.221469 116.268644 
L 580.007406 115.275028 
L 582.096859 113.855576 
L 586.275765 111.821029 
L 588.365217 110.496207 
L 589.758186 110.165002 
L 591.151155 109.218701 
L 593.937092 108.36703 
L 594.633576 108.083139 
L 596.026545 107.751934 
L 599.508966 106.616373 
L 601.598419 106.237852 
L 602.294903 106.048592 
L 602.991388 105.717386 
L 603.687872 105.622756 
L 605.08084 105.054976 
L 605.777325 104.960345 
L 606.473809 104.62914 
L 607.866778 104.34525 
L 608.563262 104.014044 
L 610.652715 103.540894 
L 612.045683 103.257003 
L 616.224589 102.499962 
L 617.617558 102.216072 
L 618.314042 102.074127 
L 619.010526 101.790237 
L 619.707011 101.742922 
L 621.796463 101.175141 
L 622.492948 100.79662 
L 625.975369 99.944949 
L 626.671854 99.803004 
L 628.064822 99.329854 
L 631.547244 98.241607 
L 632.243728 98.099662 
L 632.940212 97.768457 
L 633.636696 97.768457 
L 635.029665 97.295306 
L 635.726149 96.632895 
L 636.422634 96.30169 
L 637.815602 95.875854 
L 640.601539 94.834923 
L 641.298024 94.692978 
L 641.994508 94.267142 
L 642.690992 94.125197 
L 643.387477 93.699362 
L 646.869898 92.65843 
L 647.566382 92.232595 
L 648.262867 92.043335 
L 648.959351 91.475554 
L 651.048804 91.097033 
L 652.441772 90.339992 
L 653.138257 89.582952 
L 654.531225 89.299061 
L 658.710131 88.35276 
L 660.1031 87.97424 
L 661.496068 87.926925 
L 662.192553 87.595719 
L 664.97849 87.122569 
L 665.674974 86.791363 
L 667.764427 86.507473 
L 670.550364 85.655802 
L 672.639817 85.182651 
L 674.72927 84.662186 
L 677.515207 83.810514 
L 678.211691 83.668569 
L 678.908176 83.337364 
L 679.60466 83.242734 
L 680.301144 83.006158 
L 680.997628 82.580323 
L 683.087081 81.823282 
L 683.783566 81.302816 
L 685.176534 80.924296 
L 685.873019 80.640406 
L 687.265987 80.261885 
L 690.051924 78.984379 
L 692.141377 78.842433 
L 694.927314 77.990762 
L 695.623799 77.564927 
L 697.016767 77.139091 
L 699.10622 76.09816 
L 699.802704 75.956215 
L 700.499189 75.625009 
L 701.195673 75.530379 
L 708.857 72.975366 
L 711.642937 72.312955 
L 712.339422 72.123695 
L 713.73239 71.461284 
L 715.821843 70.940819 
L 716.518327 70.420353 
L 717.214812 70.089148 
L 717.911296 69.284792 
L 718.60778 68.764326 
L 720.000749 68.33849 
L 720.697233 67.77071 
L 728.35856 64.647916 
L 729.751529 64.31671 
L 731.144498 63.701615 
L 733.23395 62.471423 
L 733.930435 62.329478 
L 734.626919 61.809012 
L 736.019888 61.146602 
L 737.412856 60.294931 
L 739.502309 59.348629 
L 740.198793 58.875479 
L 741.591762 58.355013 
L 742.288246 57.834548 
L 743.681215 57.172137 
L 744.377699 56.698986 
L 745.770668 56.225836 
L 746.467152 56.08389 
L 747.163636 55.8 
L 747.163636 55.8 
" clip-path="url(#p3a433b27e1)" style="fill: none; stroke: #1f77b4; stroke-width: 1.5; stroke-linecap: square"/>
   </g>
   <g id="line2d_44">
    <path d="M 139.132848 307.8 
L 141.222301 307.70537 
L 143.311754 307.658055 
L 147.490659 307.563425 
L 150.973081 307.42148 
L 153.759018 307.42148 
L 154.455502 307.232219 
L 156.544955 307.184904 
L 160.723861 306.711754 
L 171.171125 306.096658 
L 176.743 306.002028 
L 180.225421 305.860083 
L 188.583233 305.765452 
L 192.065654 305.623507 
L 196.24456 305.528877 
L 199.030497 305.434247 
L 205.298856 305.339617 
L 207.388309 305.292302 
L 209.477762 305.244987 
L 211.567214 305.008412 
L 215.74612 304.961097 
L 217.139089 304.866466 
L 222.014479 304.771836 
L 229.675806 304.346001 
L 234.551196 304.251371 
L 235.944165 304.156741 
L 238.033618 304.06211 
L 242.212523 303.87285 
L 244.998461 303.825535 
L 247.087913 303.636275 
L 258.231662 302.973864 
L 261.017599 302.879234 
L 265.892989 302.642659 
L 267.982442 302.548029 
L 274.947285 302.169508 
L 282.608612 302.074878 
L 285.39455 301.790988 
L 286.787518 301.696357 
L 295.841814 300.986632 
L 300.02072 300.466166 
L 302.806657 300.371536 
L 308.378531 299.66181 
L 311.860953 299.56718 
L 320.915249 298.857454 
L 325.094154 298.384303 
L 327.183607 298.336988 
L 328.576576 298.242358 
L 331.362513 298.147728 
L 332.755482 298.053098 
L 336.237903 297.721893 
L 336.934387 297.532632 
L 341.113293 297.343372 
L 344.595715 297.248742 
L 353.65001 296.728276 
L 355.739463 296.633646 
L 364.793759 296.113181 
L 369.669149 296.018551 
L 370.365633 295.876605 
L 375.937508 295.781975 
L 380.812898 295.5454 
L 388.474225 295.45077 
L 393.349615 295.214195 
L 398.921489 295.119564 
L 405.189848 294.788359 
L 409.368754 294.693729 
L 422.601955 293.889373 
L 428.17383 293.794743 
L 431.656251 293.463537 
L 433.04922 293.321592 
L 436.531641 293.274277 
L 439.317579 292.990387 
L 446.282421 292.611866 
L 450.461327 292.517236 
L 452.55078 292.469921 
L 454.640233 292.422606 
L 456.729686 292.233346 
L 462.30156 292.138716 
L 463.694529 291.90214 
L 465.087497 291.80751 
L 467.873435 291.71288 
L 469.962887 291.61825 
L 471.355856 291.52362 
L 477.624215 291.42899 
L 479.017183 291.287045 
L 481.80312 291.192415 
L 482.499605 291.050469 
L 483.892573 291.003154 
L 484.589058 290.861209 
L 486.678511 290.766579 
L 498.518743 290.056853 
L 500.608196 289.962223 
L 504.090618 289.820278 
L 513.841398 289.725648 
L 518.716788 289.489072 
L 524.288662 289.394442 
L 527.0746 289.299812 
L 529.860537 289.252497 
L 531.253505 289.110552 
L 534.039442 289.015922 
L 541.004285 288.637401 
L 545.183191 288.590086 
L 547.272644 288.400826 
L 549.362097 288.353511 
L 554.237487 288.258881 
L 557.023424 288.164251 
L 565.381236 288.069621 
L 568.863657 287.927676 
L 573.042563 287.833045 
L 575.132016 287.59647 
L 579.310922 287.549155 
L 580.007406 287.40721 
L 581.400374 287.31258 
L 584.186312 287.21795 
L 592.544123 287.12332 
L 596.026545 286.981374 
L 607.866778 286.934059 
L 609.259746 286.839429 
L 611.349199 286.792114 
L 620.403495 286.697484 
L 621.796463 286.602854 
L 629.457791 286.508224 
L 632.243728 286.413594 
L 640.601539 286.366279 
L 641.994508 286.271649 
L 652.441772 286.224333 
L 654.531225 286.035073 
L 666.371458 285.940443 
L 668.460911 285.893128 
L 686.569503 285.798498 
L 689.35544 285.703868 
L 701.892157 285.609238 
L 703.285126 285.467293 
L 709.553485 285.372662 
L 717.214812 284.946827 
L 721.393717 284.852197 
L 724.179655 284.757567 
L 727.662076 284.710252 
L 729.055045 284.615621 
L 734.626919 284.520991 
L 740.198793 284.237101 
L 742.288246 284.189786 
L 743.681215 284.047841 
L 745.770668 284.000526 
L 747.163636 283.905896 
L 747.163636 283.905896 
" clip-path="url(#p3a433b27e1)" style="fill: none; stroke: #ff7f0e; stroke-width: 1.5; stroke-linecap: square"/>
   </g>
   <g id="patch_3">
    <path d="M 108 320.4 
L 108 43.2 
" style="fill: none; stroke: #a9a9a9; stroke-width: 0.8; stroke-linejoin: miter; stroke-linecap: square"/>
   </g>
   <g id="patch_4">
    <path d="M 777.6 320.4 
L 777.6 43.2 
" style="fill: none"/>
   </g>
   <g id="patch_5">
    <path d="M 108 320.4 
L 777.6 320.4 
" style="fill: none; stroke: #a9a9a9; stroke-width: 0.8; stroke-linejoin: miter; stroke-linecap: square"/>
   </g>
   <g id="patch_6">
    <path d="M 108 43.2 
L 777.6 43.2 
" style="fill: none"/>
   </g>
   <g id="text_22">
    <!-- get_subscribe history -->
    <g style="fill: #a9a9a9" transform="translate(378.6075 37.2) scale(0.12 -0.12)">
     <defs>
      <path id="DejaVuSans-67" d="M 2906 1791 
Q 2906 2416 2648 2759 
Q 2391 3103 1925 3103 
Q 1463 3103 1205 2759 
Q 947 2416 947 1791 
Q 947 1169 1205 825 
Q 1463 481 1925 481 
Q 2391 481 2648 825 
Q 2906 1169 2906 1791 
z
M 3481 434 
Q 3481 -459 3084 -895 
Q 2688 -1331 1869 -1331 
Q 1566 -1331 1297 -1286 
Q 1028 -1241 775 -1147 
L 775 -588 
Q 1028 -725 1275 -790 
Q 1522 -856 1778 -856 
Q 2344 -856 2625 -561 
Q 2906 -266 2906 331 
L 2906 616 
Q 2728 306 2450 153 
Q 2172 0 1784 0 
Q 1141 0 747 490 
Q 353 981 353 1791 
Q 353 2603 747 3093 
Q 1141 3584 1784 3584 
Q 2172 3584 2450 3431 
Q 2728 3278 2906 2969 
L 2906 3500 
L 3481 3500 
L 3481 434 
z
" transform="scale(0.015625)"/>
      <path id="DejaVuSans-65" d="M 3597 1894 
L 3597 1613 
L 953 1613 
Q 991 1019 1311 708 
Q 1631 397 2203 397 
Q 2534 397 2845 478 
Q 3156 559 3463 722 
L 3463 178 
Q 3153 47 2828 -22 
Q 2503 -91 2169 -91 
Q 1331 -91 842 396 
Q 353 884 353 1716 
Q 353 2575 817 3079 
Q 1281 3584 2069 3584 
Q 2775 3584 3186 3129 
Q 3597 2675 3597 1894 
z
M 3022 2063 
Q 3016 2534 2758 2815 
Q 2500 3097 2075 3097 
Q 1594 3097 1305 2825 
Q 1016 2553 972 2059 
L 3022 2063 
z
" transform="scale(0.015625)"/>
      <path id="DejaVuSans-74" d="M 1172 4494 
L 1172 3500 
L 2356 3500 
L 2356 3053 
L 1172 3053 
L 1172 1153 
Q 1172 725 1289 603 
Q 1406 481 1766 481 
L 2356 481 
L 2356 0 
L 1766 0 
Q 1100 0 847 248 
Q 594 497 594 1153 
L 594 3053 
L 172 3053 
L 172 3500 
L 594 3500 
L 594 4494 
L 1172 4494 
z
" transform="scale(0.015625)"/>
      <path id="DejaVuSans-5f" d="M 3263 -1063 
L 3263 -1509 
L -63 -1509 
L -63 -1063 
L 3263 -1063 
z
" transform="scale(0.015625)"/>
      <path id="DejaVuSans-73" d="M 2834 3397 
L 2834 2853 
Q 2591 2978 2328 3040 
Q 2066 3103 1784 3103 
Q 1356 3103 1142 2972 
Q 928 2841 928 2578 
Q 928 2378 1081 2264 
Q 1234 2150 1697 2047 
L 1894 2003 
Q 2506 1872 2764 1633 
Q 3022 1394 3022 966 
Q 3022 478 2636 193 
Q 2250 -91 1575 -91 
Q 1294 -91 989 -36 
Q 684 19 347 128 
L 347 722 
Q 666 556 975 473 
Q 1284 391 1588 391 
Q 1994 391 2212 530 
Q 2431 669 2431 922 
Q 2431 1156 2273 1281 
Q 2116 1406 1581 1522 
L 1381 1569 
Q 847 1681 609 1914 
Q 372 2147 372 2553 
Q 372 3047 722 3315 
Q 1072 3584 1716 3584 
Q 2034 3584 2315 3537 
Q 2597 3491 2834 3397 
z
" transform="scale(0.015625)"/>
      <path id="DejaVuSans-75" d="M 544 1381 
L 544 3500 
L 1119 3500 
L 1119 1403 
Q 1119 906 1312 657 
Q 1506 409 1894 409 
Q 2359 409 2629 706 
Q 2900 1003 2900 1516 
L 2900 3500 
L 3475 3500 
L 3475 0 
L 2900 0 
L 2900 538 
Q 2691 219 2414 64 
Q 2138 -91 1772 -91 
Q 1169 -91 856 284 
Q 544 659 544 1381 
z
M 1991 3584 
L 1991 3584 
z
" transform="scale(0.015625)"/>
      <path id="DejaVuSans-62" d="M 3116 1747 
Q 3116 2381 2855 2742 
Q 2594 3103 2138 3103 
Q 1681 3103 1420 2742 
Q 1159 2381 1159 1747 
Q 1159 1113 1420 752 
Q 1681 391 2138 391 
Q 2594 391 2855 752 
Q 3116 1113 3116 1747 
z
M 1159 2969 
Q 1341 3281 1617 3432 
Q 1894 3584 2278 3584 
Q 2916 3584 3314 3078 
Q 3713 2572 3713 1747 
Q 3713 922 3314 415 
Q 2916 -91 2278 -91 
Q 1894 -91 1617 61 
Q 1341 213 1159 525 
L 1159 0 
L 581 0 
L 581 4863 
L 1159 4863 
L 1159 2969 
z
" transform="scale(0.015625)"/>
      <path id="DejaVuSans-63" d="M 3122 3366 
L 3122 2828 
Q 2878 2963 2633 3030 
Q 2388 3097 2138 3097 
Q 1578 3097 1268 2742 
Q 959 2388 959 1747 
Q 959 1106 1268 751 
Q 1578 397 2138 397 
Q 2388 397 2633 464 
Q 2878 531 3122 666 
L 3122 134 
Q 2881 22 2623 -34 
Q 2366 -91 2075 -91 
Q 1284 -91 818 406 
Q 353 903 353 1747 
Q 353 2603 823 3093 
Q 1294 3584 2113 3584 
Q 2378 3584 2631 3529 
Q 2884 3475 3122 3366 
z
" transform="scale(0.015625)"/>
      <path id="DejaVuSans-72" d="M 2631 2963 
Q 2534 3019 2420 3045 
Q 2306 3072 2169 3072 
Q 1681 3072 1420 2755 
Q 1159 2438 1159 1844 
L 1159 0 
L 581 0 
L 581 3500 
L 1159 3500 
L 1159 2956 
Q 1341 3275 1631 3429 
Q 1922 3584 2338 3584 
Q 2397 3584 2469 3576 
Q 2541 3569 2628 3553 
L 2631 2963 
z
" transform="scale(0.015625)"/>
      <path id="DejaVuSans-69" d="M 603 3500 
L 1178 3500 
L 1178 0 
L 603 0 
L 603 3500 
z
M 603 4863 
L 1178 4863 
L 1178 4134 
L 603 4134 
L 603 4863 
z
" transform="scale(0.015625)"/>
      <path id="DejaVuSans-20" transform="scale(0.015625)"/>
      <path id="DejaVuSans-68" d="M 3513 2113 
L 3513 0 
L 2938 0 
L 2938 2094 
Q 2938 2591 2744 2837 
Q 2550 3084 2163 3084 
Q 1697 3084 1428 2787 
Q 1159 2491 1159 1978 
L 1159 0 
L 581 0 
L 581 4863 
L 1159 4863 
L 1159 2956 
Q 1366 3272 1645 3428 
Q 1925 3584 2291 3584 
Q 2894 3584 3203 3211 
Q 3513 2838 3513 2113 
z
" transform="scale(0.015625)"/>
      <path id="DejaVuSans-6f" d="M 1959 3097 
Q 1497 3097 1228 2736 
Q 959 2375 959 1747 
Q 959 1119 1226 758 
Q 1494 397 1959 397 
Q 2419 397 2687 759 
Q 2956 1122 2956 1747 
Q 2956 2369 2687 2733 
Q 2419 3097 1959 3097 
z
M 1959 3584 
Q 2709 3584 3137 3096 
Q 3566 2609 3566 1747 
Q 3566 888 3137 398 
Q 2709 -91 1959 -91 
Q 1206 -91 779 398 
Q 353 888 353 1747 
Q 353 2609 779 3096 
Q 1206 3584 1959 3584 
z
" transform="scale(0.015625)"/>
      <path id="DejaVuSans-79" d="M 2059 -325 
Q 1816 -950 1584 -1140 
Q 1353 -1331 966 -1331 
L 506 -1331 
L 506 -850 
L 844 -850 
Q 1081 -850 1212 -737 
Q 1344 -625 1503 -206 
L 1606 56 
L 191 3500 
L 800 3500 
L 1894 763 
L 2988 3500 
L 3597 3500 
L 2059 -325 
z
" transform="scale(0.015625)"/>
     </defs>
     <use xlink:href="#DejaVuSans-67"/>
     <use xlink:href="#DejaVuSans-65" x="63.476562"/>
     <use xlink:href="#DejaVuSans-74" x="125"/>
     <use xlink:href="#DejaVuSans-5f" x="164.208984"/>
     <use xlink:href="#DejaVuSans-73" x="214.208984"/>
     <use xlink:href="#DejaVuSans-75" x="266.308594"/>
     <use xlink:href="#DejaVuSans-62" x="329.6875"/>
     <use xlink:href="#DejaVuSans-73" x="393.164062"/>
     <use xlink:href="#DejaVuSans-63" x="445.263672"/>
     <use xlink:href="#DejaVuSans-72" x="500.244141"/>
     <use xlink:href="#DejaVuSans-69" x="541.357422"/>
     <use xlink:href="#DejaVuSans-62" x="569.140625"/>
     <use xlink:href="#DejaVuSans-65" x="632.617188"/>
     <use xlink:href="#DejaVuSans-20" x="694.140625"/>
     <use xlink:href="#DejaVuSans-68" x="725.927734"/>
     <use xlink:href="#DejaVuSans-69" x="789.306641"/>
     <use xlink:href="#DejaVuSans-73" x="817.089844"/>
     <use xlink:href="#DejaVuSans-74" x="869.189453"/>
     <use xlink:href="#DejaVuSans-6f" x="908.398438"/>
     <use xlink:href="#DejaVuSans-72" x="969.580078"/>
     <use xlink:href="#DejaVuSans-79" x="1010.693359"/>
    </g>
   </g>
   <g id="legend_1">
    <g id="line2d_45">
     <path d="M 815.08 328.498438 
L 825.08 328.498438 
L 835.08 328.498438 
" style="fill: none; stroke: #1f77b4; stroke-width: 1.5; stroke-linecap: square"/>
    </g>
    <g id="text_23">
     <!-- star -->
     <g style="fill: #a9a9a9" transform="translate(843.08 331.998438) scale(0.1 -0.1)">
      <defs>
       <path id="DejaVuSans-61" d="M 2194 1759 
Q 1497 1759 1228 1600 
Q 959 1441 959 1056 
Q 959 750 1161 570 
Q 1363 391 1709 391 
Q 2188 391 2477 730 
Q 2766 1069 2766 1631 
L 2766 1759 
L 2194 1759 
z
M 3341 1997 
L 3341 0 
L 2766 0 
L 2766 531 
Q 2569 213 2275 61 
Q 1981 -91 1556 -91 
Q 1019 -91 701 211 
Q 384 513 384 1019 
Q 384 1609 779 1909 
Q 1175 2209 1959 2209 
L 2766 2209 
L 2766 2266 
Q 2766 2663 2505 2880 
Q 2244 3097 1772 3097 
Q 1472 3097 1187 3025 
Q 903 2953 641 2809 
L 641 3341 
Q 956 3463 1253 3523 
Q 1550 3584 1831 3584 
Q 2591 3584 2966 3190 
Q 3341 2797 3341 1997 
z
" transform="scale(0.015625)"/>
      </defs>
      <use xlink:href="#DejaVuSans-73"/>
      <use xlink:href="#DejaVuSans-74" x="52.099609"/>
      <use xlink:href="#DejaVuSans-61" x="91.308594"/>
      <use xlink:href="#DejaVuSans-72" x="152.587891"/>
     </g>
    </g>
    <g id="line2d_46">
     <path d="M 815.08 343.176562 
L 825.08 343.176562 
L 835.08 343.176562 
" style="fill: none; stroke: #ff7f0e; stroke-width: 1.5; stroke-linecap: square"/>
    </g>
    <g id="text_24">
     <!-- fork -->
     <g style="fill: #a9a9a9" transform="translate(843.08 346.676562) scale(0.1 -0.1)">
      <defs>
       <path id="DejaVuSans-66" d="M 2375 4863 
L 2375 4384 
L 1825 4384 
Q 1516 4384 1395 4259 
Q 1275 4134 1275 3809 
L 1275 3500 
L 2222 3500 
L 2222 3053 
L 1275 3053 
L 1275 0 
L 697 0 
L 697 3053 
L 147 3053 
L 147 3500 
L 697 3500 
L 697 3744 
Q 697 4328 969 4595 
Q 1241 4863 1831 4863 
L 2375 4863 
z
" transform="scale(0.015625)"/>
       <path id="DejaVuSans-6b" d="M 581 4863 
L 1159 4863 
L 1159 1991 
L 2875 3500 
L 3609 3500 
L 1753 1863 
L 3688 0 
L 2938 0 
L 1159 1709 
L 1159 0 
L 581 0 
L 581 4863 
z
" transform="scale(0.015625)"/>
      </defs>
      <use xlink:href="#DejaVuSans-66"/>
      <use xlink:href="#DejaVuSans-6f" x="35.205078"/>
      <use xlink:href="#DejaVuSans-72" x="96.386719"/>
      <use xlink:href="#DejaVuSans-6b" x="137.5"/>
     </g>
    </g>
   </g>
  </g>
 </g>
 <defs>
  <clipPath id="p3a433b27e1">
   <rect x="108" y="43.2" width="669.6" height="277.2"/>
  </clipPath>
 </defs>
</svg>
