<?xml version="1.0" encoding="utf-8" standalone="no"?>
<!DOCTYPE svg PUBLIC "-//W3C//DTD SVG 1.1//EN"
  "http://www.w3.org/Graphics/SVG/1.1/DTD/svg11.dtd">
<svg xmlns:xlink="http://www.w3.org/1999/xlink" width="864pt" height="360pt" viewBox="0 0 864 360" xmlns="http://www.w3.org/2000/svg" version="1.1">
 <metadata>
  <rdf:RDF xmlns:dc="http://purl.org/dc/elements/1.1/" xmlns:cc="http://creativecommons.org/ns#" xmlns:rdf="http://www.w3.org/1999/02/22-rdf-syntax-ns#">
   <cc:Work>
    <dc:type rdf:resource="http://purl.org/dc/dcmitype/StillImage"/>
    <dc:date>2025-02-17T20:06:42.360900</dc:date>
    <dc:format>image/svg+xml</dc:format>
    <dc:creator>
     <cc:Agent>
      <dc:title>Matplotlib v3.10.0, https://matplotlib.org/</dc:title>
     </cc:Agent>
    </dc:creator>
   </cc:Work>
  </rdf:RDF>
 </metadata>
 <defs>
  <style type="text/css">*{stroke-linejoin: round; stroke-linecap: butt}</style>
 </defs>
 <g id="figure_1">
  <g id="patch_1">
   <path d="M 0 360 
L 864 360 
L 864 0 
L 0 0 
L 0 360 
z
" style="fill: none; opacity: 0"/>
  </g>
  <g id="axes_1">
   <g id="patch_2">
    <path d="M 108 320.4 
L 777.6 320.4 
L 777.6 43.2 
L 108 43.2 
L 108 320.4 
z
" style="fill: none; opacity: 0"/>
   </g>
   <g id="matplotlib.axis_1">
    <g id="xtick_1">
     <g id="line2d_1">
      <path d="M 127.69961 320.4 
L 127.69961 43.2 
" clip-path="url(#pe14de54662)" style="fill: none; stroke-dasharray: 5.12,1.28,0.8,1.28; stroke-dashoffset: 0; stroke: #b0b0b0; stroke-width: 0.8"/>
     </g>
     <g id="line2d_2">
      <defs>
       <path id="m41a056d69f" d="M 0 0 
L 0 3.5 
" style="stroke: #a9a9a9; stroke-width: 0.8"/>
      </defs>
      <g>
       <use xlink:href="#m41a056d69f" x="127.69961" y="320.4" style="fill: #a9a9a9; stroke: #a9a9a9; stroke-width: 0.8"/>
      </g>
     </g>
     <g id="text_1">
      <!-- 2021-07 -->
      <g style="fill: #a9a9a9" transform="translate(106.808203 334.998438) scale(0.1 -0.1)">
       <defs>
        <path id="DejaVuSans-32" d="M 1228 531 
L 3431 531 
L 3431 0 
L 469 0 
L 469 531 
Q 828 903 1448 1529 
Q 2069 2156 2228 2338 
Q 2531 2678 2651 2914 
Q 2772 3150 2772 3378 
Q 2772 3750 2511 3984 
Q 2250 4219 1831 4219 
Q 1534 4219 1204 4116 
Q 875 4013 500 3803 
L 500 4441 
Q 881 4594 1212 4672 
Q 1544 4750 1819 4750 
Q 2544 4750 2975 4387 
Q 3406 4025 3406 3419 
Q 3406 3131 3298 2873 
Q 3191 2616 2906 2266 
Q 2828 2175 2409 1742 
Q 1991 1309 1228 531 
z
" transform="scale(0.015625)"/>
        <path id="DejaVuSans-30" d="M 2034 4250 
Q 1547 4250 1301 3770 
Q 1056 3291 1056 2328 
Q 1056 1369 1301 889 
Q 1547 409 2034 409 
Q 2525 409 2770 889 
Q 3016 1369 3016 2328 
Q 3016 3291 2770 3770 
Q 2525 4250 2034 4250 
z
M 2034 4750 
Q 2819 4750 3233 4129 
Q 3647 3509 3647 2328 
Q 3647 1150 3233 529 
Q 2819 -91 2034 -91 
Q 1250 -91 836 529 
Q 422 1150 422 2328 
Q 422 3509 836 4129 
Q 1250 4750 2034 4750 
z
" transform="scale(0.015625)"/>
        <path id="DejaVuSans-31" d="M 794 531 
L 1825 531 
L 1825 4091 
L 703 3866 
L 703 4441 
L 1819 4666 
L 2450 4666 
L 2450 531 
L 3481 531 
L 3481 0 
L 794 0 
L 794 531 
z
" transform="scale(0.015625)"/>
        <path id="DejaVuSans-2d" d="M 313 2009 
L 1997 2009 
L 1997 1497 
L 313 1497 
L 313 2009 
z
" transform="scale(0.015625)"/>
        <path id="DejaVuSans-37" d="M 525 4666 
L 3525 4666 
L 3525 4397 
L 1831 0 
L 1172 0 
L 2766 4134 
L 525 4134 
L 525 4666 
z
" transform="scale(0.015625)"/>
       </defs>
       <use xlink:href="#DejaVuSans-32"/>
       <use xlink:href="#DejaVuSans-30" transform="translate(63.623047 0)"/>
       <use xlink:href="#DejaVuSans-32" transform="translate(127.246094 0)"/>
       <use xlink:href="#DejaVuSans-31" transform="translate(190.869141 0)"/>
       <use xlink:href="#DejaVuSans-2d" transform="translate(254.492188 0)"/>
       <use xlink:href="#DejaVuSans-30" transform="translate(290.576172 0)"/>
       <use xlink:href="#DejaVuSans-37" transform="translate(354.199219 0)"/>
      </g>
     </g>
    </g>
    <g id="xtick_2">
     <g id="line2d_3">
      <path d="M 213.593642 320.4 
L 213.593642 43.2 
" clip-path="url(#pe14de54662)" style="fill: none; stroke-dasharray: 5.12,1.28,0.8,1.28; stroke-dashoffset: 0; stroke: #b0b0b0; stroke-width: 0.8"/>
     </g>
     <g id="line2d_4">
      <g>
       <use xlink:href="#m41a056d69f" x="213.593642" y="320.4" style="fill: #a9a9a9; stroke: #a9a9a9; stroke-width: 0.8"/>
      </g>
     </g>
     <g id="text_2">
      <!-- 2022-01 -->
      <g style="fill: #a9a9a9" transform="translate(192.702236 334.998438) scale(0.1 -0.1)">
       <use xlink:href="#DejaVuSans-32"/>
       <use xlink:href="#DejaVuSans-30" transform="translate(63.623047 0)"/>
       <use xlink:href="#DejaVuSans-32" transform="translate(127.246094 0)"/>
       <use xlink:href="#DejaVuSans-32" transform="translate(190.869141 0)"/>
       <use xlink:href="#DejaVuSans-2d" transform="translate(254.492188 0)"/>
       <use xlink:href="#DejaVuSans-30" transform="translate(290.576172 0)"/>
       <use xlink:href="#DejaVuSans-31" transform="translate(354.199219 0)"/>
      </g>
     </g>
    </g>
    <g id="xtick_3">
     <g id="line2d_5">
      <path d="M 298.087228 320.4 
L 298.087228 43.2 
" clip-path="url(#pe14de54662)" style="fill: none; stroke-dasharray: 5.12,1.28,0.8,1.28; stroke-dashoffset: 0; stroke: #b0b0b0; stroke-width: 0.8"/>
     </g>
     <g id="line2d_6">
      <g>
       <use xlink:href="#m41a056d69f" x="298.087228" y="320.4" style="fill: #a9a9a9; stroke: #a9a9a9; stroke-width: 0.8"/>
      </g>
     </g>
     <g id="text_3">
      <!-- 2022-07 -->
      <g style="fill: #a9a9a9" transform="translate(277.195822 334.998438) scale(0.1 -0.1)">
       <use xlink:href="#DejaVuSans-32"/>
       <use xlink:href="#DejaVuSans-30" transform="translate(63.623047 0)"/>
       <use xlink:href="#DejaVuSans-32" transform="translate(127.246094 0)"/>
       <use xlink:href="#DejaVuSans-32" transform="translate(190.869141 0)"/>
       <use xlink:href="#DejaVuSans-2d" transform="translate(254.492188 0)"/>
       <use xlink:href="#DejaVuSans-30" transform="translate(290.576172 0)"/>
       <use xlink:href="#DejaVuSans-37" transform="translate(354.199219 0)"/>
      </g>
     </g>
    </g>
    <g id="xtick_4">
     <g id="line2d_7">
      <path d="M 383.98126 320.4 
L 383.98126 43.2 
" clip-path="url(#pe14de54662)" style="fill: none; stroke-dasharray: 5.12,1.28,0.8,1.28; stroke-dashoffset: 0; stroke: #b0b0b0; stroke-width: 0.8"/>
     </g>
     <g id="line2d_8">
      <g>
       <use xlink:href="#m41a056d69f" x="383.98126" y="320.4" style="fill: #a9a9a9; stroke: #a9a9a9; stroke-width: 0.8"/>
      </g>
     </g>
     <g id="text_4">
      <!-- 2023-01 -->
      <g style="fill: #a9a9a9" transform="translate(363.089854 334.998438) scale(0.1 -0.1)">
       <defs>
        <path id="DejaVuSans-33" d="M 2597 2516 
Q 3050 2419 3304 2112 
Q 3559 1806 3559 1356 
Q 3559 666 3084 287 
Q 2609 -91 1734 -91 
Q 1441 -91 1130 -33 
Q 819 25 488 141 
L 488 750 
Q 750 597 1062 519 
Q 1375 441 1716 441 
Q 2309 441 2620 675 
Q 2931 909 2931 1356 
Q 2931 1769 2642 2001 
Q 2353 2234 1838 2234 
L 1294 2234 
L 1294 2753 
L 1863 2753 
Q 2328 2753 2575 2939 
Q 2822 3125 2822 3475 
Q 2822 3834 2567 4026 
Q 2313 4219 1838 4219 
Q 1578 4219 1281 4162 
Q 984 4106 628 3988 
L 628 4550 
Q 988 4650 1302 4700 
Q 1616 4750 1894 4750 
Q 2613 4750 3031 4423 
Q 3450 4097 3450 3541 
Q 3450 3153 3228 2886 
Q 3006 2619 2597 2516 
z
" transform="scale(0.015625)"/>
       </defs>
       <use xlink:href="#DejaVuSans-32"/>
       <use xlink:href="#DejaVuSans-30" transform="translate(63.623047 0)"/>
       <use xlink:href="#DejaVuSans-32" transform="translate(127.246094 0)"/>
       <use xlink:href="#DejaVuSans-33" transform="translate(190.869141 0)"/>
       <use xlink:href="#DejaVuSans-2d" transform="translate(254.492188 0)"/>
       <use xlink:href="#DejaVuSans-30" transform="translate(290.576172 0)"/>
       <use xlink:href="#DejaVuSans-31" transform="translate(354.199219 0)"/>
      </g>
     </g>
    </g>
    <g id="xtick_5">
     <g id="line2d_9">
      <path d="M 468.474847 320.4 
L 468.474847 43.2 
" clip-path="url(#pe14de54662)" style="fill: none; stroke-dasharray: 5.12,1.28,0.8,1.28; stroke-dashoffset: 0; stroke: #b0b0b0; stroke-width: 0.8"/>
     </g>
     <g id="line2d_10">
      <g>
       <use xlink:href="#m41a056d69f" x="468.474847" y="320.4" style="fill: #a9a9a9; stroke: #a9a9a9; stroke-width: 0.8"/>
      </g>
     </g>
     <g id="text_5">
      <!-- 2023-07 -->
      <g style="fill: #a9a9a9" transform="translate(447.58344 334.998438) scale(0.1 -0.1)">
       <use xlink:href="#DejaVuSans-32"/>
       <use xlink:href="#DejaVuSans-30" transform="translate(63.623047 0)"/>
       <use xlink:href="#DejaVuSans-32" transform="translate(127.246094 0)"/>
       <use xlink:href="#DejaVuSans-33" transform="translate(190.869141 0)"/>
       <use xlink:href="#DejaVuSans-2d" transform="translate(254.492188 0)"/>
       <use xlink:href="#DejaVuSans-30" transform="translate(290.576172 0)"/>
       <use xlink:href="#DejaVuSans-37" transform="translate(354.199219 0)"/>
      </g>
     </g>
    </g>
    <g id="xtick_6">
     <g id="line2d_11">
      <path d="M 554.368879 320.4 
L 554.368879 43.2 
" clip-path="url(#pe14de54662)" style="fill: none; stroke-dasharray: 5.12,1.28,0.8,1.28; stroke-dashoffset: 0; stroke: #b0b0b0; stroke-width: 0.8"/>
     </g>
     <g id="line2d_12">
      <g>
       <use xlink:href="#m41a056d69f" x="554.368879" y="320.4" style="fill: #a9a9a9; stroke: #a9a9a9; stroke-width: 0.8"/>
      </g>
     </g>
     <g id="text_6">
      <!-- 2024-01 -->
      <g style="fill: #a9a9a9" transform="translate(533.477473 334.998438) scale(0.1 -0.1)">
       <defs>
        <path id="DejaVuSans-34" d="M 2419 4116 
L 825 1625 
L 2419 1625 
L 2419 4116 
z
M 2253 4666 
L 3047 4666 
L 3047 1625 
L 3713 1625 
L 3713 1100 
L 3047 1100 
L 3047 0 
L 2419 0 
L 2419 1100 
L 313 1100 
L 313 1709 
L 2253 4666 
z
" transform="scale(0.015625)"/>
       </defs>
       <use xlink:href="#DejaVuSans-32"/>
       <use xlink:href="#DejaVuSans-30" transform="translate(63.623047 0)"/>
       <use xlink:href="#DejaVuSans-32" transform="translate(127.246094 0)"/>
       <use xlink:href="#DejaVuSans-34" transform="translate(190.869141 0)"/>
       <use xlink:href="#DejaVuSans-2d" transform="translate(254.492188 0)"/>
       <use xlink:href="#DejaVuSans-30" transform="translate(290.576172 0)"/>
       <use xlink:href="#DejaVuSans-31" transform="translate(354.199219 0)"/>
      </g>
     </g>
    </g>
    <g id="xtick_7">
     <g id="line2d_13">
      <path d="M 639.329281 320.4 
L 639.329281 43.2 
" clip-path="url(#pe14de54662)" style="fill: none; stroke-dasharray: 5.12,1.28,0.8,1.28; stroke-dashoffset: 0; stroke: #b0b0b0; stroke-width: 0.8"/>
     </g>
     <g id="line2d_14">
      <g>
       <use xlink:href="#m41a056d69f" x="639.329281" y="320.4" style="fill: #a9a9a9; stroke: #a9a9a9; stroke-width: 0.8"/>
      </g>
     </g>
     <g id="text_7">
      <!-- 2024-07 -->
      <g style="fill: #a9a9a9" transform="translate(618.437874 334.998438) scale(0.1 -0.1)">
       <use xlink:href="#DejaVuSans-32"/>
       <use xlink:href="#DejaVuSans-30" transform="translate(63.623047 0)"/>
       <use xlink:href="#DejaVuSans-32" transform="translate(127.246094 0)"/>
       <use xlink:href="#DejaVuSans-34" transform="translate(190.869141 0)"/>
       <use xlink:href="#DejaVuSans-2d" transform="translate(254.492188 0)"/>
       <use xlink:href="#DejaVuSans-30" transform="translate(290.576172 0)"/>
       <use xlink:href="#DejaVuSans-37" transform="translate(354.199219 0)"/>
      </g>
     </g>
    </g>
    <g id="xtick_8">
     <g id="line2d_15">
      <path d="M 725.223313 320.4 
L 725.223313 43.2 
" clip-path="url(#pe14de54662)" style="fill: none; stroke-dasharray: 5.12,1.28,0.8,1.28; stroke-dashoffset: 0; stroke: #b0b0b0; stroke-width: 0.8"/>
     </g>
     <g id="line2d_16">
      <g>
       <use xlink:href="#m41a056d69f" x="725.223313" y="320.4" style="fill: #a9a9a9; stroke: #a9a9a9; stroke-width: 0.8"/>
      </g>
     </g>
     <g id="text_8">
      <!-- 2025-01 -->
      <g style="fill: #a9a9a9" transform="translate(704.331907 334.998438) scale(0.1 -0.1)">
       <defs>
        <path id="DejaVuSans-35" d="M 691 4666 
L 3169 4666 
L 3169 4134 
L 1269 4134 
L 1269 2991 
Q 1406 3038 1543 3061 
Q 1681 3084 1819 3084 
Q 2600 3084 3056 2656 
Q 3513 2228 3513 1497 
Q 3513 744 3044 326 
Q 2575 -91 1722 -91 
Q 1428 -91 1123 -41 
Q 819 9 494 109 
L 494 744 
Q 775 591 1075 516 
Q 1375 441 1709 441 
Q 2250 441 2565 725 
Q 2881 1009 2881 1497 
Q 2881 1984 2565 2268 
Q 2250 2553 1709 2553 
Q 1456 2553 1204 2497 
Q 953 2441 691 2322 
L 691 4666 
z
" transform="scale(0.015625)"/>
       </defs>
       <use xlink:href="#DejaVuSans-32"/>
       <use xlink:href="#DejaVuSans-30" transform="translate(63.623047 0)"/>
       <use xlink:href="#DejaVuSans-32" transform="translate(127.246094 0)"/>
       <use xlink:href="#DejaVuSans-35" transform="translate(190.869141 0)"/>
       <use xlink:href="#DejaVuSans-2d" transform="translate(254.492188 0)"/>
       <use xlink:href="#DejaVuSans-30" transform="translate(290.576172 0)"/>
       <use xlink:href="#DejaVuSans-31" transform="translate(354.199219 0)"/>
      </g>
     </g>
    </g>
   </g>
   <g id="matplotlib.axis_2">
    <g id="ytick_1">
     <g id="line2d_17">
      <path d="M 108 307.834431 
L 777.6 307.834431 
" clip-path="url(#pe14de54662)" style="fill: none; stroke-dasharray: 5.12,1.28,0.8,1.28; stroke-dashoffset: 0; stroke: #b0b0b0; stroke-width: 0.8"/>
     </g>
     <g id="line2d_18">
      <defs>
       <path id="m04670f93a4" d="M 0 0 
L -3.5 0 
" style="stroke: #a9a9a9; stroke-width: 0.8"/>
      </defs>
      <g>
       <use xlink:href="#m04670f93a4" x="108" y="307.834431" style="fill: #a9a9a9; stroke: #a9a9a9; stroke-width: 0.8"/>
      </g>
     </g>
     <g id="text_9">
      <!-- 0 -->
      <g style="fill: #a9a9a9" transform="translate(94.6375 311.63365) scale(0.1 -0.1)">
       <use xlink:href="#DejaVuSans-30"/>
      </g>
     </g>
    </g>
    <g id="ytick_2">
     <g id="line2d_19">
      <path d="M 108 273.403498 
L 777.6 273.403498 
" clip-path="url(#pe14de54662)" style="fill: none; stroke-dasharray: 5.12,1.28,0.8,1.28; stroke-dashoffset: 0; stroke: #b0b0b0; stroke-width: 0.8"/>
     </g>
     <g id="line2d_20">
      <g>
       <use xlink:href="#m04670f93a4" x="108" y="273.403498" style="fill: #a9a9a9; stroke: #a9a9a9; stroke-width: 0.8"/>
      </g>
     </g>
     <g id="text_10">
      <!-- 1000 -->
      <g style="fill: #a9a9a9" transform="translate(75.55 277.202716) scale(0.1 -0.1)">
       <use xlink:href="#DejaVuSans-31"/>
       <use xlink:href="#DejaVuSans-30" transform="translate(63.623047 0)"/>
       <use xlink:href="#DejaVuSans-30" transform="translate(127.246094 0)"/>
       <use xlink:href="#DejaVuSans-30" transform="translate(190.869141 0)"/>
      </g>
     </g>
    </g>
    <g id="ytick_3">
     <g id="line2d_21">
      <path d="M 108 238.972565 
L 777.6 238.972565 
" clip-path="url(#pe14de54662)" style="fill: none; stroke-dasharray: 5.12,1.28,0.8,1.28; stroke-dashoffset: 0; stroke: #b0b0b0; stroke-width: 0.8"/>
     </g>
     <g id="line2d_22">
      <g>
       <use xlink:href="#m04670f93a4" x="108" y="238.972565" style="fill: #a9a9a9; stroke: #a9a9a9; stroke-width: 0.8"/>
      </g>
     </g>
     <g id="text_11">
      <!-- 2000 -->
      <g style="fill: #a9a9a9" transform="translate(75.55 242.771783) scale(0.1 -0.1)">
       <use xlink:href="#DejaVuSans-32"/>
       <use xlink:href="#DejaVuSans-30" transform="translate(63.623047 0)"/>
       <use xlink:href="#DejaVuSans-30" transform="translate(127.246094 0)"/>
       <use xlink:href="#DejaVuSans-30" transform="translate(190.869141 0)"/>
      </g>
     </g>
    </g>
    <g id="ytick_4">
     <g id="line2d_23">
      <path d="M 108 204.541631 
L 777.6 204.541631 
" clip-path="url(#pe14de54662)" style="fill: none; stroke-dasharray: 5.12,1.28,0.8,1.28; stroke-dashoffset: 0; stroke: #b0b0b0; stroke-width: 0.8"/>
     </g>
     <g id="line2d_24">
      <g>
       <use xlink:href="#m04670f93a4" x="108" y="204.541631" style="fill: #a9a9a9; stroke: #a9a9a9; stroke-width: 0.8"/>
      </g>
     </g>
     <g id="text_12">
      <!-- 3000 -->
      <g style="fill: #a9a9a9" transform="translate(75.55 208.34085) scale(0.1 -0.1)">
       <use xlink:href="#DejaVuSans-33"/>
       <use xlink:href="#DejaVuSans-30" transform="translate(63.623047 0)"/>
       <use xlink:href="#DejaVuSans-30" transform="translate(127.246094 0)"/>
       <use xlink:href="#DejaVuSans-30" transform="translate(190.869141 0)"/>
      </g>
     </g>
    </g>
    <g id="ytick_5">
     <g id="line2d_25">
      <path d="M 108 170.110698 
L 777.6 170.110698 
" clip-path="url(#pe14de54662)" style="fill: none; stroke-dasharray: 5.12,1.28,0.8,1.28; stroke-dashoffset: 0; stroke: #b0b0b0; stroke-width: 0.8"/>
     </g>
     <g id="line2d_26">
      <g>
       <use xlink:href="#m04670f93a4" x="108" y="170.110698" style="fill: #a9a9a9; stroke: #a9a9a9; stroke-width: 0.8"/>
      </g>
     </g>
     <g id="text_13">
      <!-- 4000 -->
      <g style="fill: #a9a9a9" transform="translate(75.55 173.909917) scale(0.1 -0.1)">
       <use xlink:href="#DejaVuSans-34"/>
       <use xlink:href="#DejaVuSans-30" transform="translate(63.623047 0)"/>
       <use xlink:href="#DejaVuSans-30" transform="translate(127.246094 0)"/>
       <use xlink:href="#DejaVuSans-30" transform="translate(190.869141 0)"/>
      </g>
     </g>
    </g>
    <g id="ytick_6">
     <g id="line2d_27">
      <path d="M 108 135.679765 
L 777.6 135.679765 
" clip-path="url(#pe14de54662)" style="fill: none; stroke-dasharray: 5.12,1.28,0.8,1.28; stroke-dashoffset: 0; stroke: #b0b0b0; stroke-width: 0.8"/>
     </g>
     <g id="line2d_28">
      <g>
       <use xlink:href="#m04670f93a4" x="108" y="135.679765" style="fill: #a9a9a9; stroke: #a9a9a9; stroke-width: 0.8"/>
      </g>
     </g>
     <g id="text_14">
      <!-- 5000 -->
      <g style="fill: #a9a9a9" transform="translate(75.55 139.478984) scale(0.1 -0.1)">
       <use xlink:href="#DejaVuSans-35"/>
       <use xlink:href="#DejaVuSans-30" transform="translate(63.623047 0)"/>
       <use xlink:href="#DejaVuSans-30" transform="translate(127.246094 0)"/>
       <use xlink:href="#DejaVuSans-30" transform="translate(190.869141 0)"/>
      </g>
     </g>
    </g>
    <g id="ytick_7">
     <g id="line2d_29">
      <path d="M 108 101.248832 
L 777.6 101.248832 
" clip-path="url(#pe14de54662)" style="fill: none; stroke-dasharray: 5.12,1.28,0.8,1.28; stroke-dashoffset: 0; stroke: #b0b0b0; stroke-width: 0.8"/>
     </g>
     <g id="line2d_30">
      <g>
       <use xlink:href="#m04670f93a4" x="108" y="101.248832" style="fill: #a9a9a9; stroke: #a9a9a9; stroke-width: 0.8"/>
      </g>
     </g>
     <g id="text_15">
      <!-- 6000 -->
      <g style="fill: #a9a9a9" transform="translate(75.55 105.048051) scale(0.1 -0.1)">
       <defs>
        <path id="DejaVuSans-36" d="M 2113 2584 
Q 1688 2584 1439 2293 
Q 1191 2003 1191 1497 
Q 1191 994 1439 701 
Q 1688 409 2113 409 
Q 2538 409 2786 701 
Q 3034 994 3034 1497 
Q 3034 2003 2786 2293 
Q 2538 2584 2113 2584 
z
M 3366 4563 
L 3366 3988 
Q 3128 4100 2886 4159 
Q 2644 4219 2406 4219 
Q 1781 4219 1451 3797 
Q 1122 3375 1075 2522 
Q 1259 2794 1537 2939 
Q 1816 3084 2150 3084 
Q 2853 3084 3261 2657 
Q 3669 2231 3669 1497 
Q 3669 778 3244 343 
Q 2819 -91 2113 -91 
Q 1303 -91 875 529 
Q 447 1150 447 2328 
Q 447 3434 972 4092 
Q 1497 4750 2381 4750 
Q 2619 4750 2861 4703 
Q 3103 4656 3366 4563 
z
" transform="scale(0.015625)"/>
       </defs>
       <use xlink:href="#DejaVuSans-36"/>
       <use xlink:href="#DejaVuSans-30" transform="translate(63.623047 0)"/>
       <use xlink:href="#DejaVuSans-30" transform="translate(127.246094 0)"/>
       <use xlink:href="#DejaVuSans-30" transform="translate(190.869141 0)"/>
      </g>
     </g>
    </g>
    <g id="ytick_8">
     <g id="line2d_31">
      <path d="M 108 66.817899 
L 777.6 66.817899 
" clip-path="url(#pe14de54662)" style="fill: none; stroke-dasharray: 5.12,1.28,0.8,1.28; stroke-dashoffset: 0; stroke: #b0b0b0; stroke-width: 0.8"/>
     </g>
     <g id="line2d_32">
      <g>
       <use xlink:href="#m04670f93a4" x="108" y="66.817899" style="fill: #a9a9a9; stroke: #a9a9a9; stroke-width: 0.8"/>
      </g>
     </g>
     <g id="text_16">
      <!-- 7000 -->
      <g style="fill: #a9a9a9" transform="translate(75.55 70.617117) scale(0.1 -0.1)">
       <use xlink:href="#DejaVuSans-37"/>
       <use xlink:href="#DejaVuSans-30" transform="translate(63.623047 0)"/>
       <use xlink:href="#DejaVuSans-30" transform="translate(127.246094 0)"/>
       <use xlink:href="#DejaVuSans-30" transform="translate(190.869141 0)"/>
      </g>
     </g>
    </g>
   </g>
   <g id="line2d_33">
    <path d="M 138.436364 307.731138 
L 141.237256 307.490122 
L 141.704071 307.283536 
L 143.571333 307.042519 
L 145.438595 306.663779 
L 146.372225 306.526055 
L 148.706302 306.31947 
L 149.639933 305.94073 
L 150.106748 305.320973 
L 150.573564 305.011094 
L 151.040379 303.943735 
L 151.507195 303.874874 
L 151.97401 303.496133 
L 152.907641 303.0141 
L 154.774902 301.499139 
L 156.642164 300.569504 
L 158.04261 299.915316 
L 158.509426 299.157836 
L 159.443056 298.469217 
L 159.909872 298.262632 
L 164.578026 297.574013 
L 165.044841 297.367427 
L 168.312549 297.09198 
L 170.17981 296.644378 
L 173.914334 296.127914 
L 174.381149 295.886897 
L 174.847964 295.818035 
L 175.781595 295.508157 
L 179.049303 294.957262 
L 179.982934 294.681814 
L 184.184272 293.958765 
L 185.117903 293.752179 
L 186.051534 293.717748 
L 187.918795 293.270146 
L 188.385611 292.615958 
L 189.786057 292.065064 
L 191.186503 291.686323 
L 191.653318 291.445307 
L 192.586949 291.273152 
L 194.454211 290.722257 
L 195.387842 290.653395 
L 196.321472 290.412379 
L 198.188734 289.930346 
L 198.655549 289.895915 
L 199.58918 289.448313 
L 200.055996 289.379451 
L 200.522811 289.138434 
L 205.65778 288.277661 
L 207.525042 287.726766 
L 207.991857 287.416888 
L 210.325934 286.624976 
L 211.259565 285.970788 
L 212.660011 285.695341 
L 224.797211 282.217817 
L 225.264027 282.217817 
L 225.730842 282.011231 
L 226.664473 281.907938 
L 227.131288 281.735784 
L 228.99855 281.666922 
L 229.932181 281.494767 
L 230.865811 281.012734 
L 232.266258 280.49627 
L 232.733073 280.186392 
L 233.666704 279.77322 
L 234.133519 279.532204 
L 235.06715 279.222325 
L 235.533965 279.084602 
L 236.467596 278.499276 
L 236.934412 277.982812 
L 237.868042 276.536713 
L 238.334858 276.398989 
L 238.801673 276.398989 
L 240.202119 275.572647 
L 240.668935 275.33163 
L 241.13575 275.228337 
L 241.602566 274.780735 
L 242.536196 274.401995 
L 243.469827 273.954393 
L 245.803904 270.958901 
L 248.604796 269.44394 
L 249.538427 268.68646 
L 250.005243 268.376582 
L 250.472058 267.722394 
L 250.938873 266.655035 
L 251.405689 265.931985 
L 251.872504 265.553245 
L 252.33932 265.346659 
L 256.073843 261.903566 
L 257.007474 261.042793 
L 259.808366 259.286815 
L 260.275181 259.11466 
L 261.675627 258.288318 
L 263.076074 257.358683 
L 264.943335 255.671567 
L 265.876966 255.292827 
L 266.810597 254.638639 
L 267.277412 254.363192 
L 267.744228 254.29433 
L 269.144674 253.502418 
L 269.611489 252.985954 
L 271.945566 251.71201 
L 272.412381 251.539855 
L 273.812828 250.575789 
L 280.815059 248.096762 
L 281.748689 247.235989 
L 283.149136 246.54737 
L 284.082766 245.962044 
L 285.016397 245.686597 
L 285.483212 245.376718 
L 285.950028 245.238994 
L 287.350474 244.309359 
L 289.684551 243.758464 
L 291.084997 242.932122 
L 292.485443 242.622243 
L 292.952259 242.48452 
L 294.352705 241.417161 
L 296.219967 240.900697 
L 296.686782 240.521957 
L 299.487674 239.55789 
L 300.421305 239.385736 
L 301.354936 239.006995 
L 304.622644 237.801913 
L 305.556274 237.664189 
L 306.956721 237.182156 
L 309.290798 236.045935 
L 311.158059 235.013007 
L 314.892582 233.463615 
L 315.359398 233.394753 
L 316.293028 232.809428 
L 316.759844 232.740566 
L 318.627105 231.983085 
L 320.494367 231.742069 
L 321.427998 231.260036 
L 321.894813 230.846864 
L 322.361629 229.986091 
L 324.22889 229.469627 
L 325.629336 228.746577 
L 326.562967 228.436699 
L 327.496598 227.954666 
L 330.29749 226.818445 
L 331.231121 226.61186 
L 332.164752 226.129826 
L 332.631567 225.923241 
L 333.098383 225.854379 
L 334.965644 224.993606 
L 336.36609 224.098401 
L 337.766537 223.822954 
L 339.633798 223.30649 
L 340.100613 223.272059 
L 340.567429 222.893319 
L 341.50106 222.58344 
L 343.835137 221.653805 
L 344.301952 221.309496 
L 344.768767 221.137341 
L 345.702398 220.620877 
L 347.56966 220.035551 
L 348.036475 219.794535 
L 349.436921 218.658314 
L 349.903737 218.555021 
L 350.837368 217.797541 
L 351.304183 217.728679 
L 351.770998 216.971198 
L 352.237814 216.764613 
L 352.704629 216.385872 
L 353.171445 216.317011 
L 354.105075 215.731685 
L 355.038706 215.421806 
L 355.505521 215.077497 
L 355.972337 214.905342 
L 357.839598 213.665829 
L 358.773229 213.149365 
L 359.240045 212.908348 
L 360.173675 212.667332 
L 361.107306 212.150868 
L 361.574122 211.358956 
L 362.507752 210.670337 
L 362.974568 210.567045 
L 365.77546 209.224238 
L 366.709091 208.845498 
L 368.109537 207.674846 
L 369.043168 206.882935 
L 369.976799 206.33204 
L 370.443614 205.815576 
L 370.910429 205.505697 
L 371.84406 204.748217 
L 372.310876 204.541631 
L 372.777691 203.990736 
L 373.244506 203.611996 
L 374.178137 203.267687 
L 375.111768 202.64793 
L 376.512214 201.92488 
L 376.97903 201.856019 
L 378.379476 201.098538 
L 379.313107 200.513212 
L 383.98126 198.791666 
L 384.448076 198.412925 
L 386.315337 197.689876 
L 386.782153 197.552152 
L 387.715784 196.932395 
L 388.649414 196.519224 
L 389.583045 195.865036 
L 390.516676 194.005766 
L 391.450307 192.903976 
L 392.850753 192.180926 
L 393.784384 191.802186 
L 394.251199 191.733324 
L 394.718015 191.457877 
L 397.052091 190.700396 
L 397.518907 190.493811 
L 398.452538 189.839623 
L 399.852984 189.219866 
L 400.786615 188.703402 
L 403.587507 186.77527 
L 405.921584 185.501325 
L 408.722476 184.089657 
L 410.122922 183.676486 
L 411.523369 183.125591 
L 411.990184 182.781282 
L 412.923815 182.505834 
L 413.857446 182.127094 
L 414.324261 181.748354 
L 416.191523 181.094166 
L 417.125153 180.405547 
L 418.058784 180.026807 
L 418.992415 179.303757 
L 419.926046 178.993879 
L 420.392861 178.580708 
L 420.859677 178.511846 
L 421.793307 177.788796 
L 422.726938 177.306763 
L 423.193753 177.100178 
L 423.660569 176.618145 
L 426.928277 175.309769 
L 427.861907 174.896598 
L 429.262354 174.448996 
L 430.195984 174.311272 
L 430.6628 174.104686 
L 431.129615 174.035825 
L 432.063246 173.622653 
L 432.530061 173.588222 
L 434.397323 172.899604 
L 435.797769 171.901107 
L 436.264584 171.728952 
L 437.198215 171.212488 
L 437.665031 171.074764 
L 440.465923 169.490941 
L 440.932738 169.387649 
L 442.333185 168.561306 
L 443.733631 168.079273 
L 444.667262 167.769395 
L 446.534523 167.149638 
L 447.468154 166.83976 
L 449.335416 166.461019 
L 449.802231 166.254434 
L 450.269046 166.185572 
L 451.202677 165.772401 
L 451.669492 165.703539 
L 452.136308 165.462522 
L 453.069939 165.290368 
L 454.470385 164.773904 
L 455.404016 164.670611 
L 456.804462 164.360732 
L 459.138539 163.947561 
L 471.275739 160.366744 
L 471.742554 159.884711 
L 472.676185 159.505971 
L 476.410708 158.094303 
L 476.877524 157.818855 
L 478.27797 157.405684 
L 479.211601 157.164667 
L 479.678416 156.854789 
L 480.145231 156.751496 
L 480.612047 156.338325 
L 482.012493 156.062877 
L 482.946124 155.615275 
L 483.412939 155.06438 
L 485.280201 154.616778 
L 488.547909 153.92816 
L 489.014724 153.92816 
L 489.481539 153.721574 
L 491.348801 153.377265 
L 491.815616 153.170679 
L 493.682878 152.82637 
L 494.616509 152.413199 
L 495.550139 152.241044 
L 497.884216 151.655718 
L 499.751478 151.070392 
L 500.218293 150.967099 
L 500.685109 150.726083 
L 501.61874 150.485066 
L 502.55237 150.106326 
L 503.486001 149.762017 
L 503.952817 149.452138 
L 504.886447 149.176691 
L 508.62097 147.868315 
L 509.554601 147.799453 
L 511.421863 147.248559 
L 511.888678 146.973111 
L 512.822309 146.697664 
L 515.156386 145.630305 
L 515.623201 145.595874 
L 520.758171 143.771034 
L 523.092248 143.151277 
L 524.025878 142.703675 
L 525.426325 142.393797 
L 527.293586 140.878836 
L 528.227217 140.603388 
L 528.694032 140.224648 
L 531.494925 139.157289 
L 531.96174 138.847411 
L 532.895371 138.571963 
L 533.362186 138.262085 
L 535.696263 137.504604 
L 537.096709 136.678262 
L 537.563525 136.574969 
L 539.897602 135.301025 
L 541.298048 134.681268 
L 541.764863 134.336959 
L 542.698494 134.02708 
L 543.632125 133.476185 
L 544.09894 133.304031 
L 544.565756 132.959721 
L 550.634356 130.825003 
L 551.101171 130.721711 
L 551.567987 130.411832 
L 553.435248 130.033092 
L 554.368879 129.654352 
L 557.169771 128.311545 
L 557.636587 128.242683 
L 559.037033 127.450772 
L 560.437479 126.968739 
L 563.705187 125.625933 
L 564.172002 125.488209 
L 564.638818 125.17833 
L 565.572448 125.075038 
L 566.039264 124.765159 
L 566.972895 124.593005 
L 567.906525 124.145402 
L 568.373341 123.938817 
L 568.840156 123.869955 
L 569.773787 123.560077 
L 573.041495 122.423856 
L 574.441941 122.113977 
L 575.842387 121.563082 
L 577.709649 120.530154 
L 578.643279 120.151414 
L 579.110095 119.841536 
L 580.043726 119.63495 
L 580.510541 119.359503 
L 580.977356 119.25621 
L 582.377803 118.464298 
L 583.311433 118.085558 
L 585.178695 117.362509 
L 587.512772 116.570597 
L 588.446403 116.088564 
L 590.78048 115.296653 
L 593.581372 114.160432 
L 595.448634 113.299658 
L 600.116788 111.474819 
L 600.583603 111.164941 
L 602.450864 110.545184 
L 602.91768 110.545184 
L 603.851311 110.132013 
L 605.718572 108.617052 
L 606.185388 108.479328 
L 606.652203 108.20388 
L 607.119018 108.100588 
L 607.585834 107.859571 
L 608.052649 107.790709 
L 608.519465 107.4464 
L 608.98628 107.343107 
L 609.919911 106.757781 
L 611.320357 106.034732 
L 612.253988 105.655991 
L 612.720803 105.414975 
L 614.121249 105.105096 
L 616.455326 104.313185 
L 617.388957 104.003306 
L 618.789403 103.280257 
L 619.723034 102.832655 
L 620.656665 102.591638 
L 622.057111 101.93745 
L 626.25845 100.388058 
L 627.658896 99.527285 
L 628.125711 99.423992 
L 629.059342 98.97639 
L 629.992973 98.632081 
L 630.459788 98.21891 
L 631.393419 97.840169 
L 632.793865 97.323705 
L 633.26068 96.944965 
L 633.727496 96.910534 
L 634.661127 96.635087 
L 635.594757 96.325208 
L 636.061573 96.084192 
L 636.528388 96.01533 
L 637.928834 95.498866 
L 639.329281 94.982402 
L 641.196542 94.15606 
L 641.663358 94.087198 
L 645.397881 92.537806 
L 646.798327 92.090204 
L 647.731958 92.021342 
L 648.665588 91.642601 
L 651.466481 90.816259 
L 652.400112 90.781828 
L 656.134635 89.576745 
L 657.068265 89.060281 
L 657.535081 88.64711 
L 658.935527 87.820768 
L 659.869158 87.269873 
L 662.67005 86.374669 
L 663.136866 85.995928 
L 665.937758 84.825277 
L 667.80502 84.308813 
L 668.73865 83.895641 
L 669.205466 83.654625 
L 670.139096 83.379177 
L 670.605912 83.10373 
L 671.539543 82.931575 
L 675.274066 81.313321 
L 675.740881 81.24446 
L 676.207697 80.934581 
L 676.674512 80.762427 
L 677.141327 80.349255 
L 677.608143 80.280393 
L 679.475404 79.557344 
L 681.342666 79.109742 
L 681.809481 79.04088 
L 682.276297 78.834294 
L 682.743112 78.799863 
L 683.676743 78.489985 
L 684.143558 78.455554 
L 685.544004 77.904659 
L 687.411266 77.353764 
L 688.344897 76.630715 
L 690.212158 75.597787 
L 691.612605 75.115754 
L 695.347128 73.359776 
L 695.813943 73.118759 
L 696.280759 72.671157 
L 699.081651 71.775953 
L 700.015282 71.397213 
L 700.948912 71.156196 
L 701.415728 70.91518 
L 701.882543 70.502008 
L 703.749805 70.019975 
L 704.21662 69.675666 
L 710.28522 67.472086 
L 711.218851 67.299932 
L 715.42019 65.819402 
L 716.35382 65.578385 
L 716.820636 65.371799 
L 717.287451 65.371799 
L 718.221082 64.993059 
L 719.154713 64.442164 
L 721.48879 63.650253 
L 722.889236 63.16822 
L 723.356051 63.099358 
L 724.289682 62.720618 
L 725.690128 62.410739 
L 727.090574 61.963137 
L 727.55739 61.859844 
L 728.024205 61.549966 
L 728.957836 61.34338 
L 738.294144 58.657767 
L 740.628221 58.244596 
L 741.561852 57.796994 
L 742.028667 57.487116 
L 745.76319 56.17874 
L 747.163636 55.8 
L 747.163636 55.8 
" clip-path="url(#pe14de54662)" style="fill: none; stroke: #1f77b4; stroke-width: 1.5; stroke-linecap: square"/>
   </g>
   <g id="line2d_34">
    <path d="M 138.903179 307.8 
L 143.104518 307.696707 
L 146.839041 307.524553 
L 148.706302 307.524553 
L 149.173118 307.386829 
L 151.507195 307.283536 
L 154.308087 306.973658 
L 157.108979 306.870365 
L 158.04261 306.767072 
L 161.310318 306.629348 
L 164.578026 306.526055 
L 166.912103 306.457194 
L 172.980703 306.353901 
L 175.31478 306.285039 
L 178.582487 306.181746 
L 180.916564 306.112884 
L 186.051534 306.009591 
L 187.918795 305.837437 
L 189.786057 305.803006 
L 192.586949 305.699713 
L 194.454211 305.665282 
L 196.788288 305.59642 
L 198.655549 305.424266 
L 202.856888 305.320973 
L 203.790519 305.252111 
L 205.65778 305.148818 
L 208.458673 305.045525 
L 210.325934 304.942233 
L 218.728611 304.425769 
L 221.996319 304.322476 
L 223.396765 304.184752 
L 225.730842 304.081459 
L 230.398996 303.840443 
L 235.06715 303.771581 
L 236.934412 303.564995 
L 238.801673 303.461702 
L 243.936642 302.979669 
L 247.20435 302.600929 
L 248.604796 302.532067 
L 252.33932 302.050034 
L 255.140212 301.981172 
L 256.540658 301.843449 
L 257.941104 301.740156 
L 271.011935 300.741659 
L 271.945566 300.569504 
L 274.746458 300.466211 
L 282.215505 300.018609 
L 285.483212 299.915316 
L 287.350474 299.708731 
L 289.684551 299.605438 
L 292.485443 299.502145 
L 294.81952 299.398852 
L 296.686782 299.364421 
L 299.020859 299.29556 
L 299.95449 299.157836 
L 306.489905 299.054543 
L 307.423536 298.95125 
L 313.025321 298.847957 
L 317.226659 298.641372 
L 320.494367 298.538079 
L 322.361629 298.331493 
L 325.629336 298.228201 
L 326.562967 298.056046 
L 328.897044 297.987184 
L 333.565198 297.918322 
L 335.43246 297.746168 
L 337.299721 297.711737 
L 338.700167 297.608444 
L 340.567429 297.436289 
L 345.235583 297.195273 
L 349.903737 297.09198 
L 354.105075 296.885394 
L 355.505521 296.850963 
L 356.439152 296.71324 
L 358.773229 296.609947 
L 359.70686 296.541085 
L 360.640491 296.472223 
L 361.574122 296.403361 
L 365.77546 296.334499 
L 367.175906 296.231206 
L 379.779922 295.404864 
L 382.113999 295.301571 
L 384.448076 295.232709 
L 390.983491 295.129417 
L 391.917122 294.991693 
L 398.452538 294.8884 
L 403.120692 294.647384 
L 404.054322 294.612953 
L 404.987953 294.50966 
L 407.32203 294.406367 
L 409.656107 294.337505 
L 411.990184 294.234212 
L 414.324261 294.16535 
L 418.5256 294.062058 
L 421.326492 293.958765 
L 427.861907 293.855472 
L 432.996877 293.580025 
L 434.864138 293.511163 
L 436.264584 293.40787 
L 442.8 293.304577 
L 445.600892 293.201284 
L 454.003569 293.097992 
L 455.870831 293.063561 
L 461.472616 292.994699 
L 462.406247 292.925837 
L 468.941662 292.822544 
L 470.808924 292.788113 
L 482.946124 292.68482 
L 484.34657 292.547097 
L 505.353263 292.443804 
L 507.68734 292.374942 
L 519.82454 292.30608 
L 520.758171 292.237218 
L 523.092248 292.168356 
L 524.492694 292.030633 
L 527.293586 291.92734 
L 530.561294 291.789616 
L 534.762632 291.686323 
L 537.096709 291.617461 
L 540.364417 291.514169 
L 544.09894 291.342014 
L 546.433017 291.238721 
L 548.300279 291.20429 
L 552.501617 291.100997 
L 554.368879 291.066566 
L 560.437479 290.963274 
L 562.304741 290.928843 
L 564.638818 290.82555 
L 567.43971 290.722257 
L 570.707418 290.653395 
L 571.641049 290.584533 
L 582.844618 290.481241 
L 588.913218 290.136931 
L 591.247295 290.068069 
L 592.180926 289.964777 
L 593.114557 289.895915 
L 596.84908 289.792622 
L 599.649972 289.689329 
L 604.318126 289.586036 
L 606.652203 289.34502 
L 611.320357 289.241727 
L 612.253988 289.138434 
L 616.922142 289.035141 
L 619.256219 288.96628 
L 624.391188 288.931849 
L 625.324819 288.828556 
L 630.459788 288.725263 
L 631.393419 288.656401 
L 641.663358 288.553108 
L 644.46425 288.449816 
L 651.466481 288.346523 
L 653.333742 288.312092 
L 657.535081 288.24323 
L 658.468712 288.139937 
L 664.537312 288.036644 
L 666.871389 287.967782 
L 675.274066 287.86449 
L 676.674512 287.761197 
L 678.074958 287.657904 
L 679.475404 287.554611 
L 686.477635 287.451318 
L 689.278528 287.348026 
L 701.882543 287.244733 
L 706.083882 287.038147 
L 711.685666 286.934854 
L 712.619297 286.865993 
L 719.621528 286.797131 
L 720.555159 286.728269 
L 725.690128 286.624976 
L 727.55739 286.590545 
L 734.092805 286.487252 
L 736.893698 286.38396 
L 744.829559 286.280667 
L 746.696821 286.246236 
L 747.163636 286.246236 
L 747.163636 286.246236 
" clip-path="url(#pe14de54662)" style="fill: none; stroke: #ff7f0e; stroke-width: 1.5; stroke-linecap: square"/>
   </g>
   <g id="patch_3">
    <path d="M 108 320.4 
L 108 43.2 
" style="fill: none; stroke: #a9a9a9; stroke-width: 0.8; stroke-linejoin: miter; stroke-linecap: square"/>
   </g>
   <g id="patch_4">
    <path d="M 777.6 320.4 
L 777.6 43.2 
" style="fill: none"/>
   </g>
   <g id="patch_5">
    <path d="M 108 320.4 
L 777.6 320.4 
" style="fill: none; stroke: #a9a9a9; stroke-width: 0.8; stroke-linejoin: miter; stroke-linecap: square"/>
   </g>
   <g id="patch_6">
    <path d="M 108 43.2 
L 777.6 43.2 
" style="fill: none"/>
   </g>
   <g id="text_17">
    <!-- get_subscribe history -->
    <g style="fill: #a9a9a9" transform="translate(378.6075 37.2) scale(0.12 -0.12)">
     <defs>
      <path id="DejaVuSans-67" d="M 2906 1791 
Q 2906 2416 2648 2759 
Q 2391 3103 1925 3103 
Q 1463 3103 1205 2759 
Q 947 2416 947 1791 
Q 947 1169 1205 825 
Q 1463 481 1925 481 
Q 2391 481 2648 825 
Q 2906 1169 2906 1791 
z
M 3481 434 
Q 3481 -459 3084 -895 
Q 2688 -1331 1869 -1331 
Q 1566 -1331 1297 -1286 
Q 1028 -1241 775 -1147 
L 775 -588 
Q 1028 -725 1275 -790 
Q 1522 -856 1778 -856 
Q 2344 -856 2625 -561 
Q 2906 -266 2906 331 
L 2906 616 
Q 2728 306 2450 153 
Q 2172 0 1784 0 
Q 1141 0 747 490 
Q 353 981 353 1791 
Q 353 2603 747 3093 
Q 1141 3584 1784 3584 
Q 2172 3584 2450 3431 
Q 2728 3278 2906 2969 
L 2906 3500 
L 3481 3500 
L 3481 434 
z
" transform="scale(0.015625)"/>
      <path id="DejaVuSans-65" d="M 3597 1894 
L 3597 1613 
L 953 1613 
Q 991 1019 1311 708 
Q 1631 397 2203 397 
Q 2534 397 2845 478 
Q 3156 559 3463 722 
L 3463 178 
Q 3153 47 2828 -22 
Q 2503 -91 2169 -91 
Q 1331 -91 842 396 
Q 353 884 353 1716 
Q 353 2575 817 3079 
Q 1281 3584 2069 3584 
Q 2775 3584 3186 3129 
Q 3597 2675 3597 1894 
z
M 3022 2063 
Q 3016 2534 2758 2815 
Q 2500 3097 2075 3097 
Q 1594 3097 1305 2825 
Q 1016 2553 972 2059 
L 3022 2063 
z
" transform="scale(0.015625)"/>
      <path id="DejaVuSans-74" d="M 1172 4494 
L 1172 3500 
L 2356 3500 
L 2356 3053 
L 1172 3053 
L 1172 1153 
Q 1172 725 1289 603 
Q 1406 481 1766 481 
L 2356 481 
L 2356 0 
L 1766 0 
Q 1100 0 847 248 
Q 594 497 594 1153 
L 594 3053 
L 172 3053 
L 172 3500 
L 594 3500 
L 594 4494 
L 1172 4494 
z
" transform="scale(0.015625)"/>
      <path id="DejaVuSans-5f" d="M 3263 -1063 
L 3263 -1509 
L -63 -1509 
L -63 -1063 
L 3263 -1063 
z
" transform="scale(0.015625)"/>
      <path id="DejaVuSans-73" d="M 2834 3397 
L 2834 2853 
Q 2591 2978 2328 3040 
Q 2066 3103 1784 3103 
Q 1356 3103 1142 2972 
Q 928 2841 928 2578 
Q 928 2378 1081 2264 
Q 1234 2150 1697 2047 
L 1894 2003 
Q 2506 1872 2764 1633 
Q 3022 1394 3022 966 
Q 3022 478 2636 193 
Q 2250 -91 1575 -91 
Q 1294 -91 989 -36 
Q 684 19 347 128 
L 347 722 
Q 666 556 975 473 
Q 1284 391 1588 391 
Q 1994 391 2212 530 
Q 2431 669 2431 922 
Q 2431 1156 2273 1281 
Q 2116 1406 1581 1522 
L 1381 1569 
Q 847 1681 609 1914 
Q 372 2147 372 2553 
Q 372 3047 722 3315 
Q 1072 3584 1716 3584 
Q 2034 3584 2315 3537 
Q 2597 3491 2834 3397 
z
" transform="scale(0.015625)"/>
      <path id="DejaVuSans-75" d="M 544 1381 
L 544 3500 
L 1119 3500 
L 1119 1403 
Q 1119 906 1312 657 
Q 1506 409 1894 409 
Q 2359 409 2629 706 
Q 2900 1003 2900 1516 
L 2900 3500 
L 3475 3500 
L 3475 0 
L 2900 0 
L 2900 538 
Q 2691 219 2414 64 
Q 2138 -91 1772 -91 
Q 1169 -91 856 284 
Q 544 659 544 1381 
z
M 1991 3584 
L 1991 3584 
z
" transform="scale(0.015625)"/>
      <path id="DejaVuSans-62" d="M 3116 1747 
Q 3116 2381 2855 2742 
Q 2594 3103 2138 3103 
Q 1681 3103 1420 2742 
Q 1159 2381 1159 1747 
Q 1159 1113 1420 752 
Q 1681 391 2138 391 
Q 2594 391 2855 752 
Q 3116 1113 3116 1747 
z
M 1159 2969 
Q 1341 3281 1617 3432 
Q 1894 3584 2278 3584 
Q 2916 3584 3314 3078 
Q 3713 2572 3713 1747 
Q 3713 922 3314 415 
Q 2916 -91 2278 -91 
Q 1894 -91 1617 61 
Q 1341 213 1159 525 
L 1159 0 
L 581 0 
L 581 4863 
L 1159 4863 
L 1159 2969 
z
" transform="scale(0.015625)"/>
      <path id="DejaVuSans-63" d="M 3122 3366 
L 3122 2828 
Q 2878 2963 2633 3030 
Q 2388 3097 2138 3097 
Q 1578 3097 1268 2742 
Q 959 2388 959 1747 
Q 959 1106 1268 751 
Q 1578 397 2138 397 
Q 2388 397 2633 464 
Q 2878 531 3122 666 
L 3122 134 
Q 2881 22 2623 -34 
Q 2366 -91 2075 -91 
Q 1284 -91 818 406 
Q 353 903 353 1747 
Q 353 2603 823 3093 
Q 1294 3584 2113 3584 
Q 2378 3584 2631 3529 
Q 2884 3475 3122 3366 
z
" transform="scale(0.015625)"/>
      <path id="DejaVuSans-72" d="M 2631 2963 
Q 2534 3019 2420 3045 
Q 2306 3072 2169 3072 
Q 1681 3072 1420 2755 
Q 1159 2438 1159 1844 
L 1159 0 
L 581 0 
L 581 3500 
L 1159 3500 
L 1159 2956 
Q 1341 3275 1631 3429 
Q 1922 3584 2338 3584 
Q 2397 3584 2469 3576 
Q 2541 3569 2628 3553 
L 2631 2963 
z
" transform="scale(0.015625)"/>
      <path id="DejaVuSans-69" d="M 603 3500 
L 1178 3500 
L 1178 0 
L 603 0 
L 603 3500 
z
M 603 4863 
L 1178 4863 
L 1178 4134 
L 603 4134 
L 603 4863 
z
" transform="scale(0.015625)"/>
      <path id="DejaVuSans-20" transform="scale(0.015625)"/>
      <path id="DejaVuSans-68" d="M 3513 2113 
L 3513 0 
L 2938 0 
L 2938 2094 
Q 2938 2591 2744 2837 
Q 2550 3084 2163 3084 
Q 1697 3084 1428 2787 
Q 1159 2491 1159 1978 
L 1159 0 
L 581 0 
L 581 4863 
L 1159 4863 
L 1159 2956 
Q 1366 3272 1645 3428 
Q 1925 3584 2291 3584 
Q 2894 3584 3203 3211 
Q 3513 2838 3513 2113 
z
" transform="scale(0.015625)"/>
      <path id="DejaVuSans-6f" d="M 1959 3097 
Q 1497 3097 1228 2736 
Q 959 2375 959 1747 
Q 959 1119 1226 758 
Q 1494 397 1959 397 
Q 2419 397 2687 759 
Q 2956 1122 2956 1747 
Q 2956 2369 2687 2733 
Q 2419 3097 1959 3097 
z
M 1959 3584 
Q 2709 3584 3137 3096 
Q 3566 2609 3566 1747 
Q 3566 888 3137 398 
Q 2709 -91 1959 -91 
Q 1206 -91 779 398 
Q 353 888 353 1747 
Q 353 2609 779 3096 
Q 1206 3584 1959 3584 
z
" transform="scale(0.015625)"/>
      <path id="DejaVuSans-79" d="M 2059 -325 
Q 1816 -950 1584 -1140 
Q 1353 -1331 966 -1331 
L 506 -1331 
L 506 -850 
L 844 -850 
Q 1081 -850 1212 -737 
Q 1344 -625 1503 -206 
L 1606 56 
L 191 3500 
L 800 3500 
L 1894 763 
L 2988 3500 
L 3597 3500 
L 2059 -325 
z
" transform="scale(0.015625)"/>
     </defs>
     <use xlink:href="#DejaVuSans-67"/>
     <use xlink:href="#DejaVuSans-65" transform="translate(63.476562 0)"/>
     <use xlink:href="#DejaVuSans-74" transform="translate(125 0)"/>
     <use xlink:href="#DejaVuSans-5f" transform="translate(164.208984 0)"/>
     <use xlink:href="#DejaVuSans-73" transform="translate(214.208984 0)"/>
     <use xlink:href="#DejaVuSans-75" transform="translate(266.308594 0)"/>
     <use xlink:href="#DejaVuSans-62" transform="translate(329.6875 0)"/>
     <use xlink:href="#DejaVuSans-73" transform="translate(393.164062 0)"/>
     <use xlink:href="#DejaVuSans-63" transform="translate(445.263672 0)"/>
     <use xlink:href="#DejaVuSans-72" transform="translate(500.244141 0)"/>
     <use xlink:href="#DejaVuSans-69" transform="translate(541.357422 0)"/>
     <use xlink:href="#DejaVuSans-62" transform="translate(569.140625 0)"/>
     <use xlink:href="#DejaVuSans-65" transform="translate(632.617188 0)"/>
     <use xlink:href="#DejaVuSans-20" transform="translate(694.140625 0)"/>
     <use xlink:href="#DejaVuSans-68" transform="translate(725.927734 0)"/>
     <use xlink:href="#DejaVuSans-69" transform="translate(789.306641 0)"/>
     <use xlink:href="#DejaVuSans-73" transform="translate(817.089844 0)"/>
     <use xlink:href="#DejaVuSans-74" transform="translate(869.189453 0)"/>
     <use xlink:href="#DejaVuSans-6f" transform="translate(908.398438 0)"/>
     <use xlink:href="#DejaVuSans-72" transform="translate(969.580078 0)"/>
     <use xlink:href="#DejaVuSans-79" transform="translate(1010.693359 0)"/>
    </g>
   </g>
   <g id="legend_1">
    <g id="line2d_35">
     <path d="M 815.08 328.498438 
L 825.08 328.498438 
L 835.08 328.498438 
" style="fill: none; stroke: #1f77b4; stroke-width: 1.5; stroke-linecap: square"/>
    </g>
    <g id="text_18">
     <!-- star -->
     <g style="fill: #a9a9a9" transform="translate(843.08 331.998438) scale(0.1 -0.1)">
      <defs>
       <path id="DejaVuSans-61" d="M 2194 1759 
Q 1497 1759 1228 1600 
Q 959 1441 959 1056 
Q 959 750 1161 570 
Q 1363 391 1709 391 
Q 2188 391 2477 730 
Q 2766 1069 2766 1631 
L 2766 1759 
L 2194 1759 
z
M 3341 1997 
L 3341 0 
L 2766 0 
L 2766 531 
Q 2569 213 2275 61 
Q 1981 -91 1556 -91 
Q 1019 -91 701 211 
Q 384 513 384 1019 
Q 384 1609 779 1909 
Q 1175 2209 1959 2209 
L 2766 2209 
L 2766 2266 
Q 2766 2663 2505 2880 
Q 2244 3097 1772 3097 
Q 1472 3097 1187 3025 
Q 903 2953 641 2809 
L 641 3341 
Q 956 3463 1253 3523 
Q 1550 3584 1831 3584 
Q 2591 3584 2966 3190 
Q 3341 2797 3341 1997 
z
" transform="scale(0.015625)"/>
      </defs>
      <use xlink:href="#DejaVuSans-73"/>
      <use xlink:href="#DejaVuSans-74" transform="translate(52.099609 0)"/>
      <use xlink:href="#DejaVuSans-61" transform="translate(91.308594 0)"/>
      <use xlink:href="#DejaVuSans-72" transform="translate(152.587891 0)"/>
     </g>
    </g>
    <g id="line2d_36">
     <path d="M 815.08 343.176562 
L 825.08 343.176562 
L 835.08 343.176562 
" style="fill: none; stroke: #ff7f0e; stroke-width: 1.5; stroke-linecap: square"/>
    </g>
    <g id="text_19">
     <!-- fork -->
     <g style="fill: #a9a9a9" transform="translate(843.08 346.676562) scale(0.1 -0.1)">
      <defs>
       <path id="DejaVuSans-66" d="M 2375 4863 
L 2375 4384 
L 1825 4384 
Q 1516 4384 1395 4259 
Q 1275 4134 1275 3809 
L 1275 3500 
L 2222 3500 
L 2222 3053 
L 1275 3053 
L 1275 0 
L 697 0 
L 697 3053 
L 147 3053 
L 147 3500 
L 697 3500 
L 697 3744 
Q 697 4328 969 4595 
Q 1241 4863 1831 4863 
L 2375 4863 
z
" transform="scale(0.015625)"/>
       <path id="DejaVuSans-6b" d="M 581 4863 
L 1159 4863 
L 1159 1991 
L 2875 3500 
L 3609 3500 
L 1753 1863 
L 3688 0 
L 2938 0 
L 1159 1709 
L 1159 0 
L 581 0 
L 581 4863 
z
" transform="scale(0.015625)"/>
      </defs>
      <use xlink:href="#DejaVuSans-66"/>
      <use xlink:href="#DejaVuSans-6f" transform="translate(35.205078 0)"/>
      <use xlink:href="#DejaVuSans-72" transform="translate(96.386719 0)"/>
      <use xlink:href="#DejaVuSans-6b" transform="translate(137.5 0)"/>
     </g>
    </g>
   </g>
  </g>
 </g>
 <defs>
  <clipPath id="pe14de54662">
   <rect x="108" y="43.2" width="669.6" height="277.2"/>
  </clipPath>
 </defs>
</svg>
