<?xml version="1.0" encoding="utf-8" standalone="no"?>
<!DOCTYPE svg PUBLIC "-//W3C//DTD SVG 1.1//EN"
  "http://www.w3.org/Graphics/SVG/1.1/DTD/svg11.dtd">
<svg xmlns:xlink="http://www.w3.org/1999/xlink" width="864pt" height="360pt" viewBox="0 0 864 360" xmlns="http://www.w3.org/2000/svg" version="1.1">
 <metadata>
  <rdf:RDF xmlns:dc="http://purl.org/dc/elements/1.1/" xmlns:cc="http://creativecommons.org/ns#" xmlns:rdf="http://www.w3.org/1999/02/22-rdf-syntax-ns#">
   <cc:Work>
    <dc:type rdf:resource="http://purl.org/dc/dcmitype/StillImage"/>
    <dc:date>2025-02-17T08:15:05.017725</dc:date>
    <dc:format>image/svg+xml</dc:format>
    <dc:creator>
     <cc:Agent>
      <dc:title>Matplotlib v3.10.0, https://matplotlib.org/</dc:title>
     </cc:Agent>
    </dc:creator>
   </cc:Work>
  </rdf:RDF>
 </metadata>
 <defs>
  <style type="text/css">*{stroke-linejoin: round; stroke-linecap: butt}</style>
 </defs>
 <g id="figure_1">
  <g id="patch_1">
   <path d="M 0 360 
L 864 360 
L 864 0 
L 0 0 
L 0 360 
z
" style="fill: none; opacity: 0"/>
  </g>
  <g id="axes_1">
   <g id="patch_2">
    <path d="M 108 320.4 
L 777.6 320.4 
L 777.6 43.2 
L 108 43.2 
L 108 320.4 
z
" style="fill: none; opacity: 0"/>
   </g>
   <g id="matplotlib.axis_1">
    <g id="xtick_1">
     <g id="line2d_1">
      <path d="M 127.69961 320.4 
L 127.69961 43.2 
" clip-path="url(#p6d5216effb)" style="fill: none; stroke-dasharray: 5.12,1.28,0.8,1.28; stroke-dashoffset: 0; stroke: #b0b0b0; stroke-width: 0.8"/>
     </g>
     <g id="line2d_2">
      <defs>
       <path id="mebb397bb60" d="M 0 0 
L 0 3.5 
" style="stroke: #a9a9a9; stroke-width: 0.8"/>
      </defs>
      <g>
       <use xlink:href="#mebb397bb60" x="127.69961" y="320.4" style="fill: #a9a9a9; stroke: #a9a9a9; stroke-width: 0.8"/>
      </g>
     </g>
     <g id="text_1">
      <!-- 2021-07 -->
      <g style="fill: #a9a9a9" transform="translate(106.808203 334.998438) scale(0.1 -0.1)">
       <defs>
        <path id="DejaVuSans-32" d="M 1228 531 
L 3431 531 
L 3431 0 
L 469 0 
L 469 531 
Q 828 903 1448 1529 
Q 2069 2156 2228 2338 
Q 2531 2678 2651 2914 
Q 2772 3150 2772 3378 
Q 2772 3750 2511 3984 
Q 2250 4219 1831 4219 
Q 1534 4219 1204 4116 
Q 875 4013 500 3803 
L 500 4441 
Q 881 4594 1212 4672 
Q 1544 4750 1819 4750 
Q 2544 4750 2975 4387 
Q 3406 4025 3406 3419 
Q 3406 3131 3298 2873 
Q 3191 2616 2906 2266 
Q 2828 2175 2409 1742 
Q 1991 1309 1228 531 
z
" transform="scale(0.015625)"/>
        <path id="DejaVuSans-30" d="M 2034 4250 
Q 1547 4250 1301 3770 
Q 1056 3291 1056 2328 
Q 1056 1369 1301 889 
Q 1547 409 2034 409 
Q 2525 409 2770 889 
Q 3016 1369 3016 2328 
Q 3016 3291 2770 3770 
Q 2525 4250 2034 4250 
z
M 2034 4750 
Q 2819 4750 3233 4129 
Q 3647 3509 3647 2328 
Q 3647 1150 3233 529 
Q 2819 -91 2034 -91 
Q 1250 -91 836 529 
Q 422 1150 422 2328 
Q 422 3509 836 4129 
Q 1250 4750 2034 4750 
z
" transform="scale(0.015625)"/>
        <path id="DejaVuSans-31" d="M 794 531 
L 1825 531 
L 1825 4091 
L 703 3866 
L 703 4441 
L 1819 4666 
L 2450 4666 
L 2450 531 
L 3481 531 
L 3481 0 
L 794 0 
L 794 531 
z
" transform="scale(0.015625)"/>
        <path id="DejaVuSans-2d" d="M 313 2009 
L 1997 2009 
L 1997 1497 
L 313 1497 
L 313 2009 
z
" transform="scale(0.015625)"/>
        <path id="DejaVuSans-37" d="M 525 4666 
L 3525 4666 
L 3525 4397 
L 1831 0 
L 1172 0 
L 2766 4134 
L 525 4134 
L 525 4666 
z
" transform="scale(0.015625)"/>
       </defs>
       <use xlink:href="#DejaVuSans-32"/>
       <use xlink:href="#DejaVuSans-30" transform="translate(63.623047 0)"/>
       <use xlink:href="#DejaVuSans-32" transform="translate(127.246094 0)"/>
       <use xlink:href="#DejaVuSans-31" transform="translate(190.869141 0)"/>
       <use xlink:href="#DejaVuSans-2d" transform="translate(254.492188 0)"/>
       <use xlink:href="#DejaVuSans-30" transform="translate(290.576172 0)"/>
       <use xlink:href="#DejaVuSans-37" transform="translate(354.199219 0)"/>
      </g>
     </g>
    </g>
    <g id="xtick_2">
     <g id="line2d_3">
      <path d="M 213.593642 320.4 
L 213.593642 43.2 
" clip-path="url(#p6d5216effb)" style="fill: none; stroke-dasharray: 5.12,1.28,0.8,1.28; stroke-dashoffset: 0; stroke: #b0b0b0; stroke-width: 0.8"/>
     </g>
     <g id="line2d_4">
      <g>
       <use xlink:href="#mebb397bb60" x="213.593642" y="320.4" style="fill: #a9a9a9; stroke: #a9a9a9; stroke-width: 0.8"/>
      </g>
     </g>
     <g id="text_2">
      <!-- 2022-01 -->
      <g style="fill: #a9a9a9" transform="translate(192.702236 334.998438) scale(0.1 -0.1)">
       <use xlink:href="#DejaVuSans-32"/>
       <use xlink:href="#DejaVuSans-30" transform="translate(63.623047 0)"/>
       <use xlink:href="#DejaVuSans-32" transform="translate(127.246094 0)"/>
       <use xlink:href="#DejaVuSans-32" transform="translate(190.869141 0)"/>
       <use xlink:href="#DejaVuSans-2d" transform="translate(254.492188 0)"/>
       <use xlink:href="#DejaVuSans-30" transform="translate(290.576172 0)"/>
       <use xlink:href="#DejaVuSans-31" transform="translate(354.199219 0)"/>
      </g>
     </g>
    </g>
    <g id="xtick_3">
     <g id="line2d_5">
      <path d="M 298.087228 320.4 
L 298.087228 43.2 
" clip-path="url(#p6d5216effb)" style="fill: none; stroke-dasharray: 5.12,1.28,0.8,1.28; stroke-dashoffset: 0; stroke: #b0b0b0; stroke-width: 0.8"/>
     </g>
     <g id="line2d_6">
      <g>
       <use xlink:href="#mebb397bb60" x="298.087228" y="320.4" style="fill: #a9a9a9; stroke: #a9a9a9; stroke-width: 0.8"/>
      </g>
     </g>
     <g id="text_3">
      <!-- 2022-07 -->
      <g style="fill: #a9a9a9" transform="translate(277.195822 334.998438) scale(0.1 -0.1)">
       <use xlink:href="#DejaVuSans-32"/>
       <use xlink:href="#DejaVuSans-30" transform="translate(63.623047 0)"/>
       <use xlink:href="#DejaVuSans-32" transform="translate(127.246094 0)"/>
       <use xlink:href="#DejaVuSans-32" transform="translate(190.869141 0)"/>
       <use xlink:href="#DejaVuSans-2d" transform="translate(254.492188 0)"/>
       <use xlink:href="#DejaVuSans-30" transform="translate(290.576172 0)"/>
       <use xlink:href="#DejaVuSans-37" transform="translate(354.199219 0)"/>
      </g>
     </g>
    </g>
    <g id="xtick_4">
     <g id="line2d_7">
      <path d="M 383.98126 320.4 
L 383.98126 43.2 
" clip-path="url(#p6d5216effb)" style="fill: none; stroke-dasharray: 5.12,1.28,0.8,1.28; stroke-dashoffset: 0; stroke: #b0b0b0; stroke-width: 0.8"/>
     </g>
     <g id="line2d_8">
      <g>
       <use xlink:href="#mebb397bb60" x="383.98126" y="320.4" style="fill: #a9a9a9; stroke: #a9a9a9; stroke-width: 0.8"/>
      </g>
     </g>
     <g id="text_4">
      <!-- 2023-01 -->
      <g style="fill: #a9a9a9" transform="translate(363.089854 334.998438) scale(0.1 -0.1)">
       <defs>
        <path id="DejaVuSans-33" d="M 2597 2516 
Q 3050 2419 3304 2112 
Q 3559 1806 3559 1356 
Q 3559 666 3084 287 
Q 2609 -91 1734 -91 
Q 1441 -91 1130 -33 
Q 819 25 488 141 
L 488 750 
Q 750 597 1062 519 
Q 1375 441 1716 441 
Q 2309 441 2620 675 
Q 2931 909 2931 1356 
Q 2931 1769 2642 2001 
Q 2353 2234 1838 2234 
L 1294 2234 
L 1294 2753 
L 1863 2753 
Q 2328 2753 2575 2939 
Q 2822 3125 2822 3475 
Q 2822 3834 2567 4026 
Q 2313 4219 1838 4219 
Q 1578 4219 1281 4162 
Q 984 4106 628 3988 
L 628 4550 
Q 988 4650 1302 4700 
Q 1616 4750 1894 4750 
Q 2613 4750 3031 4423 
Q 3450 4097 3450 3541 
Q 3450 3153 3228 2886 
Q 3006 2619 2597 2516 
z
" transform="scale(0.015625)"/>
       </defs>
       <use xlink:href="#DejaVuSans-32"/>
       <use xlink:href="#DejaVuSans-30" transform="translate(63.623047 0)"/>
       <use xlink:href="#DejaVuSans-32" transform="translate(127.246094 0)"/>
       <use xlink:href="#DejaVuSans-33" transform="translate(190.869141 0)"/>
       <use xlink:href="#DejaVuSans-2d" transform="translate(254.492188 0)"/>
       <use xlink:href="#DejaVuSans-30" transform="translate(290.576172 0)"/>
       <use xlink:href="#DejaVuSans-31" transform="translate(354.199219 0)"/>
      </g>
     </g>
    </g>
    <g id="xtick_5">
     <g id="line2d_9">
      <path d="M 468.474847 320.4 
L 468.474847 43.2 
" clip-path="url(#p6d5216effb)" style="fill: none; stroke-dasharray: 5.12,1.28,0.8,1.28; stroke-dashoffset: 0; stroke: #b0b0b0; stroke-width: 0.8"/>
     </g>
     <g id="line2d_10">
      <g>
       <use xlink:href="#mebb397bb60" x="468.474847" y="320.4" style="fill: #a9a9a9; stroke: #a9a9a9; stroke-width: 0.8"/>
      </g>
     </g>
     <g id="text_5">
      <!-- 2023-07 -->
      <g style="fill: #a9a9a9" transform="translate(447.58344 334.998438) scale(0.1 -0.1)">
       <use xlink:href="#DejaVuSans-32"/>
       <use xlink:href="#DejaVuSans-30" transform="translate(63.623047 0)"/>
       <use xlink:href="#DejaVuSans-32" transform="translate(127.246094 0)"/>
       <use xlink:href="#DejaVuSans-33" transform="translate(190.869141 0)"/>
       <use xlink:href="#DejaVuSans-2d" transform="translate(254.492188 0)"/>
       <use xlink:href="#DejaVuSans-30" transform="translate(290.576172 0)"/>
       <use xlink:href="#DejaVuSans-37" transform="translate(354.199219 0)"/>
      </g>
     </g>
    </g>
    <g id="xtick_6">
     <g id="line2d_11">
      <path d="M 554.368879 320.4 
L 554.368879 43.2 
" clip-path="url(#p6d5216effb)" style="fill: none; stroke-dasharray: 5.12,1.28,0.8,1.28; stroke-dashoffset: 0; stroke: #b0b0b0; stroke-width: 0.8"/>
     </g>
     <g id="line2d_12">
      <g>
       <use xlink:href="#mebb397bb60" x="554.368879" y="320.4" style="fill: #a9a9a9; stroke: #a9a9a9; stroke-width: 0.8"/>
      </g>
     </g>
     <g id="text_6">
      <!-- 2024-01 -->
      <g style="fill: #a9a9a9" transform="translate(533.477473 334.998438) scale(0.1 -0.1)">
       <defs>
        <path id="DejaVuSans-34" d="M 2419 4116 
L 825 1625 
L 2419 1625 
L 2419 4116 
z
M 2253 4666 
L 3047 4666 
L 3047 1625 
L 3713 1625 
L 3713 1100 
L 3047 1100 
L 3047 0 
L 2419 0 
L 2419 1100 
L 313 1100 
L 313 1709 
L 2253 4666 
z
" transform="scale(0.015625)"/>
       </defs>
       <use xlink:href="#DejaVuSans-32"/>
       <use xlink:href="#DejaVuSans-30" transform="translate(63.623047 0)"/>
       <use xlink:href="#DejaVuSans-32" transform="translate(127.246094 0)"/>
       <use xlink:href="#DejaVuSans-34" transform="translate(190.869141 0)"/>
       <use xlink:href="#DejaVuSans-2d" transform="translate(254.492188 0)"/>
       <use xlink:href="#DejaVuSans-30" transform="translate(290.576172 0)"/>
       <use xlink:href="#DejaVuSans-31" transform="translate(354.199219 0)"/>
      </g>
     </g>
    </g>
    <g id="xtick_7">
     <g id="line2d_13">
      <path d="M 639.329281 320.4 
L 639.329281 43.2 
" clip-path="url(#p6d5216effb)" style="fill: none; stroke-dasharray: 5.12,1.28,0.8,1.28; stroke-dashoffset: 0; stroke: #b0b0b0; stroke-width: 0.8"/>
     </g>
     <g id="line2d_14">
      <g>
       <use xlink:href="#mebb397bb60" x="639.329281" y="320.4" style="fill: #a9a9a9; stroke: #a9a9a9; stroke-width: 0.8"/>
      </g>
     </g>
     <g id="text_7">
      <!-- 2024-07 -->
      <g style="fill: #a9a9a9" transform="translate(618.437874 334.998438) scale(0.1 -0.1)">
       <use xlink:href="#DejaVuSans-32"/>
       <use xlink:href="#DejaVuSans-30" transform="translate(63.623047 0)"/>
       <use xlink:href="#DejaVuSans-32" transform="translate(127.246094 0)"/>
       <use xlink:href="#DejaVuSans-34" transform="translate(190.869141 0)"/>
       <use xlink:href="#DejaVuSans-2d" transform="translate(254.492188 0)"/>
       <use xlink:href="#DejaVuSans-30" transform="translate(290.576172 0)"/>
       <use xlink:href="#DejaVuSans-37" transform="translate(354.199219 0)"/>
      </g>
     </g>
    </g>
    <g id="xtick_8">
     <g id="line2d_15">
      <path d="M 725.223313 320.4 
L 725.223313 43.2 
" clip-path="url(#p6d5216effb)" style="fill: none; stroke-dasharray: 5.12,1.28,0.8,1.28; stroke-dashoffset: 0; stroke: #b0b0b0; stroke-width: 0.8"/>
     </g>
     <g id="line2d_16">
      <g>
       <use xlink:href="#mebb397bb60" x="725.223313" y="320.4" style="fill: #a9a9a9; stroke: #a9a9a9; stroke-width: 0.8"/>
      </g>
     </g>
     <g id="text_8">
      <!-- 2025-01 -->
      <g style="fill: #a9a9a9" transform="translate(704.331907 334.998438) scale(0.1 -0.1)">
       <defs>
        <path id="DejaVuSans-35" d="M 691 4666 
L 3169 4666 
L 3169 4134 
L 1269 4134 
L 1269 2991 
Q 1406 3038 1543 3061 
Q 1681 3084 1819 3084 
Q 2600 3084 3056 2656 
Q 3513 2228 3513 1497 
Q 3513 744 3044 326 
Q 2575 -91 1722 -91 
Q 1428 -91 1123 -41 
Q 819 9 494 109 
L 494 744 
Q 775 591 1075 516 
Q 1375 441 1709 441 
Q 2250 441 2565 725 
Q 2881 1009 2881 1497 
Q 2881 1984 2565 2268 
Q 2250 2553 1709 2553 
Q 1456 2553 1204 2497 
Q 953 2441 691 2322 
L 691 4666 
z
" transform="scale(0.015625)"/>
       </defs>
       <use xlink:href="#DejaVuSans-32"/>
       <use xlink:href="#DejaVuSans-30" transform="translate(63.623047 0)"/>
       <use xlink:href="#DejaVuSans-32" transform="translate(127.246094 0)"/>
       <use xlink:href="#DejaVuSans-35" transform="translate(190.869141 0)"/>
       <use xlink:href="#DejaVuSans-2d" transform="translate(254.492188 0)"/>
       <use xlink:href="#DejaVuSans-30" transform="translate(290.576172 0)"/>
       <use xlink:href="#DejaVuSans-31" transform="translate(354.199219 0)"/>
      </g>
     </g>
    </g>
   </g>
   <g id="matplotlib.axis_2">
    <g id="ytick_1">
     <g id="line2d_17">
      <path d="M 108 307.834445 
L 777.6 307.834445 
" clip-path="url(#p6d5216effb)" style="fill: none; stroke-dasharray: 5.12,1.28,0.8,1.28; stroke-dashoffset: 0; stroke: #b0b0b0; stroke-width: 0.8"/>
     </g>
     <g id="line2d_18">
      <defs>
       <path id="m2ac811655a" d="M 0 0 
L -3.5 0 
" style="stroke: #a9a9a9; stroke-width: 0.8"/>
      </defs>
      <g>
       <use xlink:href="#m2ac811655a" x="108" y="307.834445" style="fill: #a9a9a9; stroke: #a9a9a9; stroke-width: 0.8"/>
      </g>
     </g>
     <g id="text_9">
      <!-- 0 -->
      <g style="fill: #a9a9a9" transform="translate(94.6375 311.633664) scale(0.1 -0.1)">
       <use xlink:href="#DejaVuSans-30"/>
      </g>
     </g>
    </g>
    <g id="ytick_2">
     <g id="line2d_19">
      <path d="M 108 273.389393 
L 777.6 273.389393 
" clip-path="url(#p6d5216effb)" style="fill: none; stroke-dasharray: 5.12,1.28,0.8,1.28; stroke-dashoffset: 0; stroke: #b0b0b0; stroke-width: 0.8"/>
     </g>
     <g id="line2d_20">
      <g>
       <use xlink:href="#m2ac811655a" x="108" y="273.389393" style="fill: #a9a9a9; stroke: #a9a9a9; stroke-width: 0.8"/>
      </g>
     </g>
     <g id="text_10">
      <!-- 1000 -->
      <g style="fill: #a9a9a9" transform="translate(75.55 277.188612) scale(0.1 -0.1)">
       <use xlink:href="#DejaVuSans-31"/>
       <use xlink:href="#DejaVuSans-30" transform="translate(63.623047 0)"/>
       <use xlink:href="#DejaVuSans-30" transform="translate(127.246094 0)"/>
       <use xlink:href="#DejaVuSans-30" transform="translate(190.869141 0)"/>
      </g>
     </g>
    </g>
    <g id="ytick_3">
     <g id="line2d_21">
      <path d="M 108 238.944341 
L 777.6 238.944341 
" clip-path="url(#p6d5216effb)" style="fill: none; stroke-dasharray: 5.12,1.28,0.8,1.28; stroke-dashoffset: 0; stroke: #b0b0b0; stroke-width: 0.8"/>
     </g>
     <g id="line2d_22">
      <g>
       <use xlink:href="#m2ac811655a" x="108" y="238.944341" style="fill: #a9a9a9; stroke: #a9a9a9; stroke-width: 0.8"/>
      </g>
     </g>
     <g id="text_11">
      <!-- 2000 -->
      <g style="fill: #a9a9a9" transform="translate(75.55 242.74356) scale(0.1 -0.1)">
       <use xlink:href="#DejaVuSans-32"/>
       <use xlink:href="#DejaVuSans-30" transform="translate(63.623047 0)"/>
       <use xlink:href="#DejaVuSans-30" transform="translate(127.246094 0)"/>
       <use xlink:href="#DejaVuSans-30" transform="translate(190.869141 0)"/>
      </g>
     </g>
    </g>
    <g id="ytick_4">
     <g id="line2d_23">
      <path d="M 108 204.499289 
L 777.6 204.499289 
" clip-path="url(#p6d5216effb)" style="fill: none; stroke-dasharray: 5.12,1.28,0.8,1.28; stroke-dashoffset: 0; stroke: #b0b0b0; stroke-width: 0.8"/>
     </g>
     <g id="line2d_24">
      <g>
       <use xlink:href="#m2ac811655a" x="108" y="204.499289" style="fill: #a9a9a9; stroke: #a9a9a9; stroke-width: 0.8"/>
      </g>
     </g>
     <g id="text_12">
      <!-- 3000 -->
      <g style="fill: #a9a9a9" transform="translate(75.55 208.298508) scale(0.1 -0.1)">
       <use xlink:href="#DejaVuSans-33"/>
       <use xlink:href="#DejaVuSans-30" transform="translate(63.623047 0)"/>
       <use xlink:href="#DejaVuSans-30" transform="translate(127.246094 0)"/>
       <use xlink:href="#DejaVuSans-30" transform="translate(190.869141 0)"/>
      </g>
     </g>
    </g>
    <g id="ytick_5">
     <g id="line2d_25">
      <path d="M 108 170.054237 
L 777.6 170.054237 
" clip-path="url(#p6d5216effb)" style="fill: none; stroke-dasharray: 5.12,1.28,0.8,1.28; stroke-dashoffset: 0; stroke: #b0b0b0; stroke-width: 0.8"/>
     </g>
     <g id="line2d_26">
      <g>
       <use xlink:href="#m2ac811655a" x="108" y="170.054237" style="fill: #a9a9a9; stroke: #a9a9a9; stroke-width: 0.8"/>
      </g>
     </g>
     <g id="text_13">
      <!-- 4000 -->
      <g style="fill: #a9a9a9" transform="translate(75.55 173.853456) scale(0.1 -0.1)">
       <use xlink:href="#DejaVuSans-34"/>
       <use xlink:href="#DejaVuSans-30" transform="translate(63.623047 0)"/>
       <use xlink:href="#DejaVuSans-30" transform="translate(127.246094 0)"/>
       <use xlink:href="#DejaVuSans-30" transform="translate(190.869141 0)"/>
      </g>
     </g>
    </g>
    <g id="ytick_6">
     <g id="line2d_27">
      <path d="M 108 135.609185 
L 777.6 135.609185 
" clip-path="url(#p6d5216effb)" style="fill: none; stroke-dasharray: 5.12,1.28,0.8,1.28; stroke-dashoffset: 0; stroke: #b0b0b0; stroke-width: 0.8"/>
     </g>
     <g id="line2d_28">
      <g>
       <use xlink:href="#m2ac811655a" x="108" y="135.609185" style="fill: #a9a9a9; stroke: #a9a9a9; stroke-width: 0.8"/>
      </g>
     </g>
     <g id="text_14">
      <!-- 5000 -->
      <g style="fill: #a9a9a9" transform="translate(75.55 139.408404) scale(0.1 -0.1)">
       <use xlink:href="#DejaVuSans-35"/>
       <use xlink:href="#DejaVuSans-30" transform="translate(63.623047 0)"/>
       <use xlink:href="#DejaVuSans-30" transform="translate(127.246094 0)"/>
       <use xlink:href="#DejaVuSans-30" transform="translate(190.869141 0)"/>
      </g>
     </g>
    </g>
    <g id="ytick_7">
     <g id="line2d_29">
      <path d="M 108 101.164133 
L 777.6 101.164133 
" clip-path="url(#p6d5216effb)" style="fill: none; stroke-dasharray: 5.12,1.28,0.8,1.28; stroke-dashoffset: 0; stroke: #b0b0b0; stroke-width: 0.8"/>
     </g>
     <g id="line2d_30">
      <g>
       <use xlink:href="#m2ac811655a" x="108" y="101.164133" style="fill: #a9a9a9; stroke: #a9a9a9; stroke-width: 0.8"/>
      </g>
     </g>
     <g id="text_15">
      <!-- 6000 -->
      <g style="fill: #a9a9a9" transform="translate(75.55 104.963352) scale(0.1 -0.1)">
       <defs>
        <path id="DejaVuSans-36" d="M 2113 2584 
Q 1688 2584 1439 2293 
Q 1191 2003 1191 1497 
Q 1191 994 1439 701 
Q 1688 409 2113 409 
Q 2538 409 2786 701 
Q 3034 994 3034 1497 
Q 3034 2003 2786 2293 
Q 2538 2584 2113 2584 
z
M 3366 4563 
L 3366 3988 
Q 3128 4100 2886 4159 
Q 2644 4219 2406 4219 
Q 1781 4219 1451 3797 
Q 1122 3375 1075 2522 
Q 1259 2794 1537 2939 
Q 1816 3084 2150 3084 
Q 2853 3084 3261 2657 
Q 3669 2231 3669 1497 
Q 3669 778 3244 343 
Q 2819 -91 2113 -91 
Q 1303 -91 875 529 
Q 447 1150 447 2328 
Q 447 3434 972 4092 
Q 1497 4750 2381 4750 
Q 2619 4750 2861 4703 
Q 3103 4656 3366 4563 
z
" transform="scale(0.015625)"/>
       </defs>
       <use xlink:href="#DejaVuSans-36"/>
       <use xlink:href="#DejaVuSans-30" transform="translate(63.623047 0)"/>
       <use xlink:href="#DejaVuSans-30" transform="translate(127.246094 0)"/>
       <use xlink:href="#DejaVuSans-30" transform="translate(190.869141 0)"/>
      </g>
     </g>
    </g>
    <g id="ytick_8">
     <g id="line2d_31">
      <path d="M 108 66.719081 
L 777.6 66.719081 
" clip-path="url(#p6d5216effb)" style="fill: none; stroke-dasharray: 5.12,1.28,0.8,1.28; stroke-dashoffset: 0; stroke: #b0b0b0; stroke-width: 0.8"/>
     </g>
     <g id="line2d_32">
      <g>
       <use xlink:href="#m2ac811655a" x="108" y="66.719081" style="fill: #a9a9a9; stroke: #a9a9a9; stroke-width: 0.8"/>
      </g>
     </g>
     <g id="text_16">
      <!-- 7000 -->
      <g style="fill: #a9a9a9" transform="translate(75.55 70.5183) scale(0.1 -0.1)">
       <use xlink:href="#DejaVuSans-37"/>
       <use xlink:href="#DejaVuSans-30" transform="translate(63.623047 0)"/>
       <use xlink:href="#DejaVuSans-30" transform="translate(127.246094 0)"/>
       <use xlink:href="#DejaVuSans-30" transform="translate(190.869141 0)"/>
      </g>
     </g>
    </g>
   </g>
   <g id="line2d_33">
    <path d="M 138.436364 307.73111 
L 141.237256 307.489995 
L 141.704071 307.283324 
L 143.571333 307.042209 
L 145.438595 306.663313 
L 146.372225 306.525533 
L 148.706302 306.318863 
L 149.639933 305.939967 
L 150.106748 305.319956 
L 150.573564 305.009951 
L 151.040379 303.942154 
L 151.507195 303.873264 
L 151.97401 303.494369 
L 152.907641 303.012138 
L 154.774902 301.496555 
L 156.642164 300.566539 
L 158.04261 299.912083 
L 158.509426 299.154292 
L 159.443056 298.465391 
L 159.909872 298.258721 
L 164.578026 297.56982 
L 165.044841 297.363149 
L 168.312549 297.087589 
L 170.17981 296.639803 
L 173.914334 296.123127 
L 174.381149 295.882012 
L 174.847964 295.813122 
L 175.781595 295.503116 
L 179.049303 294.951996 
L 179.982934 294.676435 
L 184.184272 293.953089 
L 185.117903 293.746419 
L 186.051534 293.711974 
L 187.918795 293.264188 
L 188.385611 292.609732 
L 189.786057 292.058611 
L 191.186503 291.679716 
L 191.653318 291.4386 
L 192.586949 291.266375 
L 194.454211 290.715254 
L 195.387842 290.646364 
L 196.321472 290.405249 
L 198.188734 289.923018 
L 198.655549 289.888573 
L 199.58918 289.440787 
L 200.055996 289.371897 
L 200.522811 289.130782 
L 205.65778 288.269656 
L 207.525042 287.718535 
L 207.991857 287.408529 
L 210.325934 286.616293 
L 211.259565 285.961837 
L 212.660011 285.686277 
L 224.797211 282.207326 
L 225.264027 282.207326 
L 225.730842 282.000656 
L 226.664473 281.897321 
L 227.131288 281.725096 
L 228.99855 281.656206 
L 229.932181 281.48398 
L 230.865811 281.00175 
L 232.266258 280.485074 
L 232.733073 280.175068 
L 233.666704 279.761728 
L 234.133519 279.520612 
L 235.06715 279.210607 
L 235.533965 279.072827 
L 236.467596 278.487261 
L 236.934412 277.970585 
L 237.868042 276.523893 
L 238.334858 276.386113 
L 238.801673 276.386113 
L 240.202119 275.559431 
L 240.668935 275.318316 
L 241.13575 275.214981 
L 241.602566 274.767195 
L 242.536196 274.3883 
L 243.469827 273.940514 
L 245.803904 270.943794 
L 248.604796 269.428212 
L 249.538427 268.670421 
L 250.005243 268.360416 
L 250.472058 267.70596 
L 250.938873 266.638163 
L 251.405689 265.914817 
L 251.872504 265.535921 
L 252.33932 265.329251 
L 256.073843 261.884746 
L 257.007474 261.023619 
L 259.808366 259.266922 
L 260.275181 259.094697 
L 261.675627 258.268015 
L 263.076074 257.337999 
L 264.943335 255.650191 
L 265.876966 255.271296 
L 266.810597 254.61684 
L 267.277412 254.341279 
L 267.744228 254.272389 
L 269.144674 253.480153 
L 269.611489 252.963477 
L 271.945566 251.68901 
L 272.412381 251.516785 
L 273.812828 250.552324 
L 280.815059 248.07228 
L 281.748689 247.211154 
L 283.149136 246.522253 
L 284.082766 245.936687 
L 285.016397 245.661126 
L 285.483212 245.351121 
L 285.950028 245.213341 
L 287.350474 244.283324 
L 289.684551 243.732203 
L 291.084997 242.905522 
L 292.485443 242.595517 
L 292.952259 242.457736 
L 294.352705 241.38994 
L 296.219967 240.873264 
L 296.686782 240.494369 
L 299.487674 239.529907 
L 300.421305 239.357682 
L 301.354936 238.978786 
L 304.622644 237.773209 
L 305.556274 237.635429 
L 306.956721 237.153198 
L 309.290798 236.016512 
L 311.158059 234.98316 
L 314.892582 233.433133 
L 315.359398 233.364243 
L 316.293028 232.778677 
L 316.759844 232.709787 
L 318.627105 231.951996 
L 320.494367 231.71088 
L 321.427998 231.22865 
L 321.894813 230.815309 
L 322.361629 229.954183 
L 324.22889 229.437507 
L 325.629336 228.714161 
L 326.562967 228.404155 
L 327.496598 227.921925 
L 330.29749 226.785238 
L 331.231121 226.578568 
L 332.164752 226.096337 
L 332.631567 225.889666 
L 333.098383 225.820776 
L 334.965644 224.95965 
L 336.36609 224.064079 
L 337.766537 223.788518 
L 339.633798 223.271843 
L 340.100613 223.237397 
L 340.567429 222.858502 
L 341.50106 222.548496 
L 343.835137 221.61848 
L 344.301952 221.27403 
L 344.768767 221.101804 
L 345.702398 220.585128 
L 347.56966 219.999563 
L 348.036475 219.758447 
L 349.436921 218.621761 
L 349.903737 218.518425 
L 350.837368 217.760634 
L 351.304183 217.691744 
L 351.770998 216.933953 
L 352.237814 216.727283 
L 352.704629 216.348387 
L 353.171445 216.279497 
L 354.105075 215.693931 
L 355.038706 215.383926 
L 355.505521 215.039475 
L 355.972337 214.86725 
L 357.839598 213.627228 
L 358.773229 213.110552 
L 359.240045 212.869437 
L 360.173675 212.628321 
L 361.107306 212.111646 
L 361.574122 211.31941 
L 362.507752 210.630508 
L 362.974568 210.527173 
L 365.77546 209.183816 
L 366.709091 208.804921 
L 368.109537 207.633789 
L 369.043168 206.841553 
L 369.976799 206.290432 
L 370.443614 205.773756 
L 370.910429 205.463751 
L 371.84406 204.70596 
L 372.310876 204.499289 
L 372.777691 203.948168 
L 373.244506 203.569273 
L 374.178137 203.224822 
L 375.111768 202.604811 
L 376.512214 201.881465 
L 376.97903 201.812575 
L 378.379476 201.054784 
L 379.313107 200.469218 
L 383.98126 198.746966 
L 384.448076 198.36807 
L 386.315337 197.644724 
L 386.782153 197.506944 
L 387.715784 196.886933 
L 388.649414 196.473592 
L 389.583045 195.819136 
L 390.516676 193.959103 
L 391.450307 192.856862 
L 392.850753 192.133516 
L 393.784384 191.75462 
L 394.251199 191.68573 
L 394.718015 191.410169 
L 397.052091 190.652378 
L 397.518907 190.445708 
L 398.452538 189.791252 
L 399.852984 189.171241 
L 400.786615 188.654565 
L 403.587507 186.725642 
L 405.921584 185.451176 
L 408.722476 184.038928 
L 410.122922 183.625588 
L 411.523369 183.074467 
L 411.990184 182.730016 
L 412.923815 182.454456 
L 413.857446 182.07556 
L 414.324261 181.696665 
L 416.191523 181.042209 
L 417.125153 180.353308 
L 418.058784 179.974412 
L 418.992415 179.251066 
L 419.926046 178.941061 
L 420.392861 178.52772 
L 420.859677 178.45883 
L 421.793307 177.735484 
L 422.726938 177.253253 
L 423.193753 177.046583 
L 423.660569 176.564352 
L 426.928277 175.25544 
L 427.861907 174.8421 
L 429.262354 174.394314 
L 430.195984 174.256534 
L 430.6628 174.049863 
L 431.129615 173.980973 
L 432.063246 173.567633 
L 432.530061 173.533188 
L 434.397323 172.844286 
L 435.797769 171.84538 
L 436.264584 171.673155 
L 437.198215 171.156479 
L 437.665031 171.018699 
L 440.465923 169.434226 
L 440.932738 169.330891 
L 442.333185 168.50421 
L 443.733631 168.021979 
L 444.667262 167.711974 
L 446.534523 167.091963 
L 447.468154 166.781957 
L 449.335416 166.403062 
L 449.802231 166.196391 
L 450.269046 166.127501 
L 451.202677 165.714161 
L 451.669492 165.645271 
L 452.136308 165.404155 
L 453.069939 165.23193 
L 454.470385 164.715254 
L 455.404016 164.611919 
L 456.804462 164.301914 
L 459.138539 163.888573 
L 471.275739 160.306288 
L 471.742554 159.824057 
L 472.676185 159.445161 
L 476.410708 158.032914 
L 476.877524 157.757354 
L 478.27797 157.344013 
L 479.211601 157.102898 
L 479.678416 156.792892 
L 480.145231 156.689557 
L 480.612047 156.276217 
L 482.012493 156.000656 
L 482.946124 155.55287 
L 483.412939 155.00175 
L 485.280201 154.553964 
L 488.547909 153.865063 
L 489.014724 153.865063 
L 489.481539 153.658393 
L 491.348801 153.313942 
L 491.815616 153.107272 
L 493.682878 152.762821 
L 494.616509 152.349481 
L 495.550139 152.177255 
L 497.884216 151.591689 
L 499.751478 151.006124 
L 500.218293 150.902788 
L 500.685109 150.661673 
L 501.61874 150.420558 
L 502.55237 150.041662 
L 503.486001 149.697212 
L 503.952817 149.387206 
L 504.886447 149.111646 
L 508.62097 147.802734 
L 509.554601 147.733844 
L 511.421863 147.182723 
L 511.888678 146.907162 
L 512.822309 146.631602 
L 515.156386 145.563805 
L 515.623201 145.52936 
L 520.758171 143.703773 
L 523.092248 143.083762 
L 524.025878 142.635976 
L 525.426325 142.32597 
L 527.293586 140.810388 
L 528.227217 140.534828 
L 528.694032 140.155932 
L 531.494925 139.088136 
L 531.96174 138.77813 
L 532.895371 138.50257 
L 533.362186 138.192564 
L 535.696263 137.434773 
L 537.096709 136.608092 
L 537.563525 136.504757 
L 539.897602 135.23029 
L 541.298048 134.610279 
L 541.764863 134.265828 
L 542.698494 133.955823 
L 543.632125 133.404702 
L 544.09894 133.232477 
L 544.565756 132.888026 
L 550.634356 130.752433 
L 551.101171 130.649098 
L 551.567987 130.339092 
L 553.435248 129.960197 
L 554.368879 129.581301 
L 557.169771 128.237944 
L 557.636587 128.169054 
L 559.037033 127.376818 
L 560.437479 126.894587 
L 563.705187 125.55123 
L 564.172002 125.41345 
L 564.638818 125.103445 
L 565.572448 125.000109 
L 566.039264 124.690104 
L 566.972895 124.517879 
L 567.906525 124.070093 
L 568.373341 123.863423 
L 568.840156 123.794533 
L 569.773787 123.484527 
L 573.041495 122.34784 
L 574.441941 122.037835 
L 575.842387 121.486714 
L 577.709649 120.453362 
L 578.643279 120.074467 
L 579.110095 119.764461 
L 580.043726 119.557791 
L 580.510541 119.282231 
L 580.977356 119.178896 
L 582.377803 118.386659 
L 583.311433 118.007764 
L 585.178695 117.284418 
L 587.512772 116.492182 
L 588.446403 116.009951 
L 590.78048 115.217715 
L 593.581372 114.081028 
L 595.448634 113.219902 
L 600.116788 111.394314 
L 600.583603 111.084308 
L 602.450864 110.464297 
L 602.91768 110.464297 
L 603.851311 110.050957 
L 605.718572 108.535375 
L 606.185388 108.397594 
L 606.652203 108.122034 
L 607.119018 108.018699 
L 607.585834 107.777583 
L 608.052649 107.708693 
L 608.519465 107.364243 
L 608.98628 107.260908 
L 609.919911 106.675342 
L 611.320357 105.951996 
L 612.253988 105.5731 
L 612.720803 105.331985 
L 614.121249 105.021979 
L 616.455326 104.229743 
L 617.388957 103.919738 
L 618.789403 103.196391 
L 619.723034 102.748606 
L 620.656665 102.50749 
L 622.057111 101.853034 
L 626.25845 100.303007 
L 627.658896 99.441881 
L 628.125711 99.338546 
L 629.059342 98.89076 
L 629.992973 98.546309 
L 630.459788 98.132969 
L 631.393419 97.754073 
L 632.793865 97.237397 
L 633.26068 96.858502 
L 633.727496 96.824057 
L 634.661127 96.548496 
L 635.594757 96.238491 
L 636.061573 95.997376 
L 636.528388 95.928486 
L 637.928834 95.41181 
L 639.329281 94.895134 
L 641.196542 94.068453 
L 641.663358 93.999563 
L 645.397881 92.449535 
L 646.798327 92.00175 
L 647.731958 91.932859 
L 648.665588 91.553964 
L 651.466481 90.727283 
L 652.400112 90.692838 
L 656.134635 89.487261 
L 657.068265 88.970585 
L 657.535081 88.557244 
L 658.935527 87.730563 
L 659.869158 87.179442 
L 662.67005 86.283871 
L 663.136866 85.904975 
L 665.937758 84.733844 
L 667.80502 84.217168 
L 668.73865 83.803827 
L 669.205466 83.562712 
L 670.139096 83.287151 
L 670.605912 83.011591 
L 671.539543 82.839366 
L 675.274066 81.220448 
L 675.740881 81.151558 
L 676.207697 80.841553 
L 676.674512 80.669328 
L 677.141327 80.255987 
L 677.608143 80.187097 
L 679.475404 79.463751 
L 681.342666 79.015965 
L 681.809481 78.947075 
L 682.276297 78.740405 
L 682.743112 78.70596 
L 683.676743 78.395954 
L 684.143558 78.361509 
L 685.544004 77.810388 
L 687.411266 77.259267 
L 688.344897 76.535921 
L 690.212158 75.50257 
L 691.612605 75.020339 
L 695.347128 73.263641 
L 695.813943 73.022526 
L 696.280759 72.57474 
L 699.081651 71.679169 
L 700.015282 71.300273 
L 700.948912 71.059158 
L 701.415728 70.818043 
L 701.882543 70.404702 
L 703.749805 69.922471 
L 704.21662 69.578021 
L 710.28522 67.373537 
L 711.218851 67.201312 
L 715.42019 65.720175 
L 716.35382 65.47906 
L 716.820636 65.272389 
L 717.287451 65.272389 
L 718.221082 64.893494 
L 719.154713 64.342373 
L 721.48879 63.550137 
L 722.889236 63.067906 
L 723.356051 62.999016 
L 724.289682 62.62012 
L 725.690128 62.310115 
L 727.090574 61.862329 
L 727.55739 61.758994 
L 728.024205 61.448989 
L 728.957836 61.242318 
L 738.294144 58.555604 
L 740.628221 58.142264 
L 741.561852 57.694478 
L 742.028667 57.384472 
L 745.76319 56.07556 
L 747.163636 55.8 
L 747.163636 55.8 
" clip-path="url(#p6d5216effb)" style="fill: none; stroke: #1f77b4; stroke-width: 1.5; stroke-linecap: square"/>
   </g>
   <g id="line2d_34">
    <path d="M 138.903179 307.8 
L 143.104518 307.696665 
L 146.839041 307.52444 
L 148.706302 307.52444 
L 149.173118 307.386659 
L 151.507195 307.283324 
L 154.308087 306.973319 
L 157.108979 306.869984 
L 158.04261 306.766648 
L 161.310318 306.628868 
L 164.578026 306.525533 
L 166.912103 306.456643 
L 172.980703 306.353308 
L 175.31478 306.284418 
L 178.582487 306.181083 
L 180.916564 306.112192 
L 186.051534 306.008857 
L 187.918795 305.836632 
L 189.786057 305.802187 
L 192.586949 305.698852 
L 194.454211 305.664407 
L 196.788288 305.595517 
L 198.655549 305.423291 
L 202.856888 305.319956 
L 203.790519 305.251066 
L 205.65778 305.147731 
L 208.458673 305.044396 
L 210.325934 304.941061 
L 218.728611 304.424385 
L 221.996319 304.32105 
L 223.396765 304.18327 
L 225.730842 304.079934 
L 230.398996 303.838819 
L 235.06715 303.769929 
L 236.934412 303.563259 
L 238.801673 303.459923 
L 243.936642 302.977693 
L 247.20435 302.598797 
L 248.604796 302.529907 
L 252.33932 302.047676 
L 255.140212 301.978786 
L 256.540658 301.841006 
L 257.941104 301.737671 
L 271.011935 300.738764 
L 271.945566 300.566539 
L 274.746458 300.463204 
L 282.215505 300.015418 
L 285.483212 299.912083 
L 287.350474 299.705413 
L 289.684551 299.602078 
L 292.485443 299.498742 
L 294.81952 299.395407 
L 296.686782 299.360962 
L 299.020859 299.292072 
L 299.95449 299.154292 
L 306.489905 299.050957 
L 307.423536 298.947622 
L 313.025321 298.844286 
L 317.226659 298.637616 
L 320.494367 298.534281 
L 322.361629 298.327611 
L 325.629336 298.224276 
L 326.562967 298.05205 
L 328.897044 297.98316 
L 333.565198 297.91427 
L 335.43246 297.742045 
L 337.299721 297.7076 
L 338.700167 297.604265 
L 340.567429 297.432039 
L 345.235583 297.190924 
L 349.903737 297.087589 
L 354.105075 296.880919 
L 355.505521 296.846473 
L 356.439152 296.708693 
L 358.773229 296.605358 
L 359.70686 296.536468 
L 360.640491 296.467578 
L 361.574122 296.398688 
L 365.77546 296.329798 
L 367.175906 296.226463 
L 379.779922 295.399781 
L 382.113999 295.296446 
L 384.448076 295.227556 
L 390.983491 295.124221 
L 391.917122 294.986441 
L 398.452538 294.883106 
L 403.120692 294.64199 
L 404.054322 294.607545 
L 404.987953 294.50421 
L 407.32203 294.400875 
L 409.656107 294.331985 
L 411.990184 294.22865 
L 414.324261 294.159759 
L 418.5256 294.056424 
L 421.326492 293.953089 
L 427.861907 293.849754 
L 432.996877 293.574194 
L 434.864138 293.505303 
L 436.264584 293.401968 
L 442.8 293.298633 
L 445.600892 293.195298 
L 454.003569 293.091963 
L 455.870831 293.057518 
L 461.472616 292.988628 
L 462.406247 292.919738 
L 468.941662 292.816402 
L 470.808924 292.781957 
L 482.946124 292.678622 
L 484.34657 292.540842 
L 505.353263 292.437507 
L 507.68734 292.368617 
L 519.82454 292.299727 
L 520.758171 292.230837 
L 523.092248 292.161946 
L 524.492694 292.024166 
L 527.293586 291.920831 
L 530.561294 291.783051 
L 534.762632 291.679716 
L 537.096709 291.610826 
L 540.364417 291.50749 
L 544.09894 291.335265 
L 546.433017 291.23193 
L 548.300279 291.197485 
L 552.501617 291.09415 
L 554.368879 291.059705 
L 560.437479 290.95637 
L 562.304741 290.921925 
L 564.638818 290.818589 
L 567.43971 290.715254 
L 570.707418 290.646364 
L 571.641049 290.577474 
L 582.844618 290.474139 
L 588.913218 290.129688 
L 591.247295 290.060798 
L 592.180926 289.957463 
L 593.114557 289.888573 
L 596.84908 289.785238 
L 599.649972 289.681903 
L 604.318126 289.578568 
L 606.652203 289.337452 
L 611.320357 289.234117 
L 612.253988 289.130782 
L 616.922142 289.027447 
L 619.256219 288.958557 
L 624.391188 288.924112 
L 625.324819 288.820776 
L 630.459788 288.717441 
L 631.393419 288.648551 
L 641.663358 288.545216 
L 644.46425 288.441881 
L 651.466481 288.338546 
L 653.333742 288.304101 
L 657.535081 288.23521 
L 658.468712 288.131875 
L 664.537312 288.02854 
L 666.871389 287.95965 
L 675.274066 287.856315 
L 676.674512 287.75298 
L 678.074958 287.649645 
L 679.475404 287.546309 
L 686.477635 287.442974 
L 689.278528 287.339639 
L 701.882543 287.236304 
L 706.083882 287.029634 
L 711.685666 286.926299 
L 712.619297 286.857408 
L 719.621528 286.788518 
L 720.555159 286.719628 
L 725.690128 286.616293 
L 727.55739 286.581848 
L 734.092805 286.478513 
L 736.893698 286.375178 
L 744.829559 286.271843 
L 746.696821 286.237397 
L 747.163636 286.237397 
L 747.163636 286.237397 
" clip-path="url(#p6d5216effb)" style="fill: none; stroke: #ff7f0e; stroke-width: 1.5; stroke-linecap: square"/>
   </g>
   <g id="patch_3">
    <path d="M 108 320.4 
L 108 43.2 
" style="fill: none; stroke: #a9a9a9; stroke-width: 0.8; stroke-linejoin: miter; stroke-linecap: square"/>
   </g>
   <g id="patch_4">
    <path d="M 777.6 320.4 
L 777.6 43.2 
" style="fill: none"/>
   </g>
   <g id="patch_5">
    <path d="M 108 320.4 
L 777.6 320.4 
" style="fill: none; stroke: #a9a9a9; stroke-width: 0.8; stroke-linejoin: miter; stroke-linecap: square"/>
   </g>
   <g id="patch_6">
    <path d="M 108 43.2 
L 777.6 43.2 
" style="fill: none"/>
   </g>
   <g id="text_17">
    <!-- get_subscribe history -->
    <g style="fill: #a9a9a9" transform="translate(378.6075 37.2) scale(0.12 -0.12)">
     <defs>
      <path id="DejaVuSans-67" d="M 2906 1791 
Q 2906 2416 2648 2759 
Q 2391 3103 1925 3103 
Q 1463 3103 1205 2759 
Q 947 2416 947 1791 
Q 947 1169 1205 825 
Q 1463 481 1925 481 
Q 2391 481 2648 825 
Q 2906 1169 2906 1791 
z
M 3481 434 
Q 3481 -459 3084 -895 
Q 2688 -1331 1869 -1331 
Q 1566 -1331 1297 -1286 
Q 1028 -1241 775 -1147 
L 775 -588 
Q 1028 -725 1275 -790 
Q 1522 -856 1778 -856 
Q 2344 -856 2625 -561 
Q 2906 -266 2906 331 
L 2906 616 
Q 2728 306 2450 153 
Q 2172 0 1784 0 
Q 1141 0 747 490 
Q 353 981 353 1791 
Q 353 2603 747 3093 
Q 1141 3584 1784 3584 
Q 2172 3584 2450 3431 
Q 2728 3278 2906 2969 
L 2906 3500 
L 3481 3500 
L 3481 434 
z
" transform="scale(0.015625)"/>
      <path id="DejaVuSans-65" d="M 3597 1894 
L 3597 1613 
L 953 1613 
Q 991 1019 1311 708 
Q 1631 397 2203 397 
Q 2534 397 2845 478 
Q 3156 559 3463 722 
L 3463 178 
Q 3153 47 2828 -22 
Q 2503 -91 2169 -91 
Q 1331 -91 842 396 
Q 353 884 353 1716 
Q 353 2575 817 3079 
Q 1281 3584 2069 3584 
Q 2775 3584 3186 3129 
Q 3597 2675 3597 1894 
z
M 3022 2063 
Q 3016 2534 2758 2815 
Q 2500 3097 2075 3097 
Q 1594 3097 1305 2825 
Q 1016 2553 972 2059 
L 3022 2063 
z
" transform="scale(0.015625)"/>
      <path id="DejaVuSans-74" d="M 1172 4494 
L 1172 3500 
L 2356 3500 
L 2356 3053 
L 1172 3053 
L 1172 1153 
Q 1172 725 1289 603 
Q 1406 481 1766 481 
L 2356 481 
L 2356 0 
L 1766 0 
Q 1100 0 847 248 
Q 594 497 594 1153 
L 594 3053 
L 172 3053 
L 172 3500 
L 594 3500 
L 594 4494 
L 1172 4494 
z
" transform="scale(0.015625)"/>
      <path id="DejaVuSans-5f" d="M 3263 -1063 
L 3263 -1509 
L -63 -1509 
L -63 -1063 
L 3263 -1063 
z
" transform="scale(0.015625)"/>
      <path id="DejaVuSans-73" d="M 2834 3397 
L 2834 2853 
Q 2591 2978 2328 3040 
Q 2066 3103 1784 3103 
Q 1356 3103 1142 2972 
Q 928 2841 928 2578 
Q 928 2378 1081 2264 
Q 1234 2150 1697 2047 
L 1894 2003 
Q 2506 1872 2764 1633 
Q 3022 1394 3022 966 
Q 3022 478 2636 193 
Q 2250 -91 1575 -91 
Q 1294 -91 989 -36 
Q 684 19 347 128 
L 347 722 
Q 666 556 975 473 
Q 1284 391 1588 391 
Q 1994 391 2212 530 
Q 2431 669 2431 922 
Q 2431 1156 2273 1281 
Q 2116 1406 1581 1522 
L 1381 1569 
Q 847 1681 609 1914 
Q 372 2147 372 2553 
Q 372 3047 722 3315 
Q 1072 3584 1716 3584 
Q 2034 3584 2315 3537 
Q 2597 3491 2834 3397 
z
" transform="scale(0.015625)"/>
      <path id="DejaVuSans-75" d="M 544 1381 
L 544 3500 
L 1119 3500 
L 1119 1403 
Q 1119 906 1312 657 
Q 1506 409 1894 409 
Q 2359 409 2629 706 
Q 2900 1003 2900 1516 
L 2900 3500 
L 3475 3500 
L 3475 0 
L 2900 0 
L 2900 538 
Q 2691 219 2414 64 
Q 2138 -91 1772 -91 
Q 1169 -91 856 284 
Q 544 659 544 1381 
z
M 1991 3584 
L 1991 3584 
z
" transform="scale(0.015625)"/>
      <path id="DejaVuSans-62" d="M 3116 1747 
Q 3116 2381 2855 2742 
Q 2594 3103 2138 3103 
Q 1681 3103 1420 2742 
Q 1159 2381 1159 1747 
Q 1159 1113 1420 752 
Q 1681 391 2138 391 
Q 2594 391 2855 752 
Q 3116 1113 3116 1747 
z
M 1159 2969 
Q 1341 3281 1617 3432 
Q 1894 3584 2278 3584 
Q 2916 3584 3314 3078 
Q 3713 2572 3713 1747 
Q 3713 922 3314 415 
Q 2916 -91 2278 -91 
Q 1894 -91 1617 61 
Q 1341 213 1159 525 
L 1159 0 
L 581 0 
L 581 4863 
L 1159 4863 
L 1159 2969 
z
" transform="scale(0.015625)"/>
      <path id="DejaVuSans-63" d="M 3122 3366 
L 3122 2828 
Q 2878 2963 2633 3030 
Q 2388 3097 2138 3097 
Q 1578 3097 1268 2742 
Q 959 2388 959 1747 
Q 959 1106 1268 751 
Q 1578 397 2138 397 
Q 2388 397 2633 464 
Q 2878 531 3122 666 
L 3122 134 
Q 2881 22 2623 -34 
Q 2366 -91 2075 -91 
Q 1284 -91 818 406 
Q 353 903 353 1747 
Q 353 2603 823 3093 
Q 1294 3584 2113 3584 
Q 2378 3584 2631 3529 
Q 2884 3475 3122 3366 
z
" transform="scale(0.015625)"/>
      <path id="DejaVuSans-72" d="M 2631 2963 
Q 2534 3019 2420 3045 
Q 2306 3072 2169 3072 
Q 1681 3072 1420 2755 
Q 1159 2438 1159 1844 
L 1159 0 
L 581 0 
L 581 3500 
L 1159 3500 
L 1159 2956 
Q 1341 3275 1631 3429 
Q 1922 3584 2338 3584 
Q 2397 3584 2469 3576 
Q 2541 3569 2628 3553 
L 2631 2963 
z
" transform="scale(0.015625)"/>
      <path id="DejaVuSans-69" d="M 603 3500 
L 1178 3500 
L 1178 0 
L 603 0 
L 603 3500 
z
M 603 4863 
L 1178 4863 
L 1178 4134 
L 603 4134 
L 603 4863 
z
" transform="scale(0.015625)"/>
      <path id="DejaVuSans-20" transform="scale(0.015625)"/>
      <path id="DejaVuSans-68" d="M 3513 2113 
L 3513 0 
L 2938 0 
L 2938 2094 
Q 2938 2591 2744 2837 
Q 2550 3084 2163 3084 
Q 1697 3084 1428 2787 
Q 1159 2491 1159 1978 
L 1159 0 
L 581 0 
L 581 4863 
L 1159 4863 
L 1159 2956 
Q 1366 3272 1645 3428 
Q 1925 3584 2291 3584 
Q 2894 3584 3203 3211 
Q 3513 2838 3513 2113 
z
" transform="scale(0.015625)"/>
      <path id="DejaVuSans-6f" d="M 1959 3097 
Q 1497 3097 1228 2736 
Q 959 2375 959 1747 
Q 959 1119 1226 758 
Q 1494 397 1959 397 
Q 2419 397 2687 759 
Q 2956 1122 2956 1747 
Q 2956 2369 2687 2733 
Q 2419 3097 1959 3097 
z
M 1959 3584 
Q 2709 3584 3137 3096 
Q 3566 2609 3566 1747 
Q 3566 888 3137 398 
Q 2709 -91 1959 -91 
Q 1206 -91 779 398 
Q 353 888 353 1747 
Q 353 2609 779 3096 
Q 1206 3584 1959 3584 
z
" transform="scale(0.015625)"/>
      <path id="DejaVuSans-79" d="M 2059 -325 
Q 1816 -950 1584 -1140 
Q 1353 -1331 966 -1331 
L 506 -1331 
L 506 -850 
L 844 -850 
Q 1081 -850 1212 -737 
Q 1344 -625 1503 -206 
L 1606 56 
L 191 3500 
L 800 3500 
L 1894 763 
L 2988 3500 
L 3597 3500 
L 2059 -325 
z
" transform="scale(0.015625)"/>
     </defs>
     <use xlink:href="#DejaVuSans-67"/>
     <use xlink:href="#DejaVuSans-65" transform="translate(63.476562 0)"/>
     <use xlink:href="#DejaVuSans-74" transform="translate(125 0)"/>
     <use xlink:href="#DejaVuSans-5f" transform="translate(164.208984 0)"/>
     <use xlink:href="#DejaVuSans-73" transform="translate(214.208984 0)"/>
     <use xlink:href="#DejaVuSans-75" transform="translate(266.308594 0)"/>
     <use xlink:href="#DejaVuSans-62" transform="translate(329.6875 0)"/>
     <use xlink:href="#DejaVuSans-73" transform="translate(393.164062 0)"/>
     <use xlink:href="#DejaVuSans-63" transform="translate(445.263672 0)"/>
     <use xlink:href="#DejaVuSans-72" transform="translate(500.244141 0)"/>
     <use xlink:href="#DejaVuSans-69" transform="translate(541.357422 0)"/>
     <use xlink:href="#DejaVuSans-62" transform="translate(569.140625 0)"/>
     <use xlink:href="#DejaVuSans-65" transform="translate(632.617188 0)"/>
     <use xlink:href="#DejaVuSans-20" transform="translate(694.140625 0)"/>
     <use xlink:href="#DejaVuSans-68" transform="translate(725.927734 0)"/>
     <use xlink:href="#DejaVuSans-69" transform="translate(789.306641 0)"/>
     <use xlink:href="#DejaVuSans-73" transform="translate(817.089844 0)"/>
     <use xlink:href="#DejaVuSans-74" transform="translate(869.189453 0)"/>
     <use xlink:href="#DejaVuSans-6f" transform="translate(908.398438 0)"/>
     <use xlink:href="#DejaVuSans-72" transform="translate(969.580078 0)"/>
     <use xlink:href="#DejaVuSans-79" transform="translate(1010.693359 0)"/>
    </g>
   </g>
   <g id="legend_1">
    <g id="line2d_35">
     <path d="M 815.08 328.498438 
L 825.08 328.498438 
L 835.08 328.498438 
" style="fill: none; stroke: #1f77b4; stroke-width: 1.5; stroke-linecap: square"/>
    </g>
    <g id="text_18">
     <!-- star -->
     <g style="fill: #a9a9a9" transform="translate(843.08 331.998438) scale(0.1 -0.1)">
      <defs>
       <path id="DejaVuSans-61" d="M 2194 1759 
Q 1497 1759 1228 1600 
Q 959 1441 959 1056 
Q 959 750 1161 570 
Q 1363 391 1709 391 
Q 2188 391 2477 730 
Q 2766 1069 2766 1631 
L 2766 1759 
L 2194 1759 
z
M 3341 1997 
L 3341 0 
L 2766 0 
L 2766 531 
Q 2569 213 2275 61 
Q 1981 -91 1556 -91 
Q 1019 -91 701 211 
Q 384 513 384 1019 
Q 384 1609 779 1909 
Q 1175 2209 1959 2209 
L 2766 2209 
L 2766 2266 
Q 2766 2663 2505 2880 
Q 2244 3097 1772 3097 
Q 1472 3097 1187 3025 
Q 903 2953 641 2809 
L 641 3341 
Q 956 3463 1253 3523 
Q 1550 3584 1831 3584 
Q 2591 3584 2966 3190 
Q 3341 2797 3341 1997 
z
" transform="scale(0.015625)"/>
      </defs>
      <use xlink:href="#DejaVuSans-73"/>
      <use xlink:href="#DejaVuSans-74" transform="translate(52.099609 0)"/>
      <use xlink:href="#DejaVuSans-61" transform="translate(91.308594 0)"/>
      <use xlink:href="#DejaVuSans-72" transform="translate(152.587891 0)"/>
     </g>
    </g>
    <g id="line2d_36">
     <path d="M 815.08 343.176562 
L 825.08 343.176562 
L 835.08 343.176562 
" style="fill: none; stroke: #ff7f0e; stroke-width: 1.5; stroke-linecap: square"/>
    </g>
    <g id="text_19">
     <!-- fork -->
     <g style="fill: #a9a9a9" transform="translate(843.08 346.676562) scale(0.1 -0.1)">
      <defs>
       <path id="DejaVuSans-66" d="M 2375 4863 
L 2375 4384 
L 1825 4384 
Q 1516 4384 1395 4259 
Q 1275 4134 1275 3809 
L 1275 3500 
L 2222 3500 
L 2222 3053 
L 1275 3053 
L 1275 0 
L 697 0 
L 697 3053 
L 147 3053 
L 147 3500 
L 697 3500 
L 697 3744 
Q 697 4328 969 4595 
Q 1241 4863 1831 4863 
L 2375 4863 
z
" transform="scale(0.015625)"/>
       <path id="DejaVuSans-6b" d="M 581 4863 
L 1159 4863 
L 1159 1991 
L 2875 3500 
L 3609 3500 
L 1753 1863 
L 3688 0 
L 2938 0 
L 1159 1709 
L 1159 0 
L 581 0 
L 581 4863 
z
" transform="scale(0.015625)"/>
      </defs>
      <use xlink:href="#DejaVuSans-66"/>
      <use xlink:href="#DejaVuSans-6f" transform="translate(35.205078 0)"/>
      <use xlink:href="#DejaVuSans-72" transform="translate(96.386719 0)"/>
      <use xlink:href="#DejaVuSans-6b" transform="translate(137.5 0)"/>
     </g>
    </g>
   </g>
  </g>
 </g>
 <defs>
  <clipPath id="p6d5216effb">
   <rect x="108" y="43.2" width="669.6" height="277.2"/>
  </clipPath>
 </defs>
</svg>
